<?xml version="1.0" encoding="utf-8"?>
<!-- Generator: Adobe Illustrator 19.2.1, SVG Export Plug-In . SVG Version: 6.00 Build 0)  -->
<svg version="1.1" id="Layer_1" xmlns="http://www.w3.org/2000/svg" xmlns:xlink="http://www.w3.org/1999/xlink" x="0px" y="0px"
	 viewBox="0 0 523.6 137.2" style="enable-background:new 0 0 523.6 137.2;" xml:space="preserve">
<style type="text/css">
	.st0{fill:#FFFFFF;}
</style>
<g id="Layer_1_1_">
	<g>
		<g>
			<path class="st0" d="M0,0.7h30.1c11.7,0,23.7,5.4,23.7,19.4c0,8.7-5.5,14.5-13.4,16.9v0.2c9.7,1.1,16.7,8.7,16.7,18.7
				c0,16.8-14.6,22-29.2,22H0V0.7L0,0.7z M13.8,32.2h12.5c9.2,0,13.8-3.9,13.8-9.7c0-6.7-4.6-9.9-15-9.9H13.7L13.8,32.2L13.8,32.2z
				 M13.8,66.2h12.7c7.1,0,16.9-1.2,16.9-11.4c0-8.1-5.2-10.9-16.4-10.9H13.8C13.8,44,13.8,66.2,13.8,66.2z"/>
			<path class="st0" d="M66.2-0.1h13.1V78H66.2V-0.1z"/>
			<path class="st0" d="M116.7,24.3c15.8,0,28.5,11,28.5,27.5s-12.7,27.5-28.5,27.5s-28.5-11-28.5-27.5
				C88.3,35.4,100.9,24.3,116.7,24.3z M116.7,67.5c9.6,0,15.4-7.5,15.4-15.7s-5.8-15.7-15.4-15.7c-9.6,0-15.4,7.5-15.4,15.7
				C101.3,60,107.1,67.5,116.7,67.5z"/>
			<path class="st0" d="M179.8,24.3c15.8,0,28.5,11,28.5,27.5s-12.7,27.5-28.5,27.5c-15.8,0-28.5-11-28.5-27.5
				C151.3,35.4,164,24.3,179.8,24.3z M179.8,67.5c9.6,0,15.4-7.5,15.4-15.7s-5.8-15.7-15.4-15.7s-15.4,7.5-15.4,15.7
				S170.2,67.5,179.8,67.5z"/>
			<path class="st0" d="M216.5,25.6H229v8.2h0.2c2.3-4.9,7.3-9.5,16.1-9.5c8.1,0,13.7,3.2,16.4,9.7c3.8-6.7,9.4-9.7,17.3-9.7
				c14,0,18.9,9.9,18.9,22.5V78h-13.1V48.3c0-6.6-2-12.2-9.7-12.2c-8.2,0-11.3,6.8-11.3,13.5V78h-13.1V46.8c0-6.4-2.6-10.7-9-10.7
				c-8.6,0-12,6.3-12,13.3V78h-13.1L216.5,25.6L216.5,25.6z"/>
			<path class="st0" d="M308.4-0.1h13.1v32.4h0.3c2.7-3.4,8-8,17.8-8c15,0,25.3,12,25.3,27.5s-9.7,27.5-25.9,27.5
				c-7.3,0-14.2-2.8-18-9.2h-0.2V78h-12.5L308.4-0.1L308.4-0.1z M336.4,36.1c-9.6,0-15.4,7.5-15.4,15.7s5.8,15.7,15.4,15.7
				s15.4-7.5,15.4-15.7C351.8,43.6,346,36.1,336.4,36.1z"/>
			<path class="st0" d="M384.1,56.4c0.9,7.8,6.8,12.5,14.1,12.5c6.6,0,10.8-3.1,14.1-7.1l9.4,7.1c-6.1,7.5-13.9,10.5-22.2,10.5
				c-15.8,0-28.5-11-28.5-27.5s12.7-27.5,28.5-27.5c14.6,0,24.6,10.3,24.6,28.5v3.6L384.1,56.4L384.1,56.4z M410.9,46.6
				c-0.1-7.6-5.1-12.5-13.3-12.5c-7.8,0-12.6,4.9-13.5,12.5H410.9z"/>
			<path class="st0" d="M432.8,25.6h13.1v8.3h0.2c2.8-6,8.6-9.6,15.5-9.6c1.6,0,3.2,0.3,4.7,0.8v12.7c-2.2-0.5-4.3-1-6.3-1
				c-12.3,0-14.1,10.4-14.1,13.2v28h-13.1L432.8,25.6L432.8,25.6z"/>
			<path class="st0" d="M523.7,25.6v47.7c0,18.9-9.2,30.9-29.6,30.9c-9.7,0-18.6-2.1-26-8.6l7.9-10.7c5.2,4.8,10.7,7.5,18,7.5
				c12.7,0,16.6-7.2,16.6-17.6V71h-0.2c-3.8,5.1-10.6,7.6-17.1,7.6c-15.7,0-26.1-12-26.1-26.8c0-15.5,9.7-27.5,25.9-27.5
				c7.3,0,14.2,2.8,18,9.2h0.2v-7.9L523.7,25.6L523.7,25.6z M480.2,51.7c0,8.3,6.6,15.2,15.4,15.2c9.7,0,15.6-6.7,15.6-15.4
				c0-9.1-6-15.4-15.5-15.4C486.6,36.1,480.2,42.4,480.2,51.7z"/>
		</g>
	</g>
	<g>
		<g>
			<path class="st0" d="M0.2,104.3v-7.9h30.4v7.8H20.3v31.7h-9.8v-31.7H0.2V104.3z"/>
			<path class="st0" d="M51.9,124.6L60,96.5h10.5L56.8,136H46.7L33.2,96.5h10.5L51.9,124.6z"/>
			<path class="st0" d="M116.3,123l7.8,4c-1,1.5-1.7,2.7-2.3,3.4c-1,1.2-2.3,2.3-3.6,3.3c-3.3,2.3-7,3.5-11,3.5
				c-5.4,0-9.9-1.8-13.4-5.5c-3.7-3.8-5.5-9-5.5-15.5c0-5.9,1.8-10.8,5.4-14.9c3.6-4,8.2-6,13.7-6c4.4,0,8.2,1.3,11.5,3.9
				c1.9,1.5,3.6,3.6,5.1,6.3l-7.8,3.9c-0.8-1.7-1.7-3.1-2.9-4.1c-1.6-1.3-3.4-2-5.4-2c-3.1,0-5.5,1.3-7.3,3.8
				c-1.6,2.3-2.5,5.2-2.5,8.7c0,4.2,1,7.4,2.8,9.7c1.8,2.2,4.1,3.3,6.9,3.3c2.2,0,4.2-0.7,5.7-2.1C114.3,126,115.2,124.7,116.3,123z
				"/>
			<path class="st0" d="M139.7,96.5H150l14.5,39.5H154l-2-6.3h-14.5l-2,6.3H125L139.7,96.5z M149.8,122.5l-5.1-16.7
				c-0.5,2-1,4-1.6,6.1c-0.8,2.5-1.9,6.1-3.3,10.6H149.8L149.8,122.5z"/>
			<path class="st0" d="M168.8,136V96.5h9.7L187,111c1.3,2.2,3.3,5.8,5.9,10.8l-0.4-25.3h9.5V136h-9.7l-7.4-12.5
				c-1.4-2.4-3.7-6.5-6.9-12.3l0.3,24.8H168.8z"/>
			<path class="st0" d="M220.8,96.5h10.3l14.5,39.5h-10.5l-2-6.3h-14.5l-2,6.3h-10.5L220.8,96.5z M231,122.5l-5.1-16.7
				c-0.5,2-1,4-1.6,6.1c-0.8,2.5-1.9,6.1-3.3,10.6H231L231,122.5z"/>
			<path class="st0" d="M249.9,136V96.5h12.6c8,0,13.7,1.5,17.1,4.6c3.8,3.4,5.7,8.3,5.7,14.8c0,2.8-0.3,5.4-1,7.6
				c-2.5,8.3-8.7,12.5-18.8,12.5H249.9L249.9,136z M263.8,104.8h-4V128h3c3.7,0,6.5-0.5,8.2-1.6c2.9-1.7,4.3-5.1,4.3-10.1
				c0-3.4-0.7-6.1-2.1-8c-1.2-1.6-2.7-2.6-4.6-3.1C267.6,105,266,104.8,263.8,104.8z"/>
			<path class="st0" d="M299.4,96.5h10.3l14.5,39.5h-10.5l-2-6.3h-14.5l-2,6.3h-10.5L299.4,96.5z M309.5,122.5l-5.1-16.7
				c-0.5,2-1,4-1.6,6.1c-0.8,2.5-1.9,6.1-3.3,10.6H309.5L309.5,122.5z"/>
		</g>
	</g>
</g>
</svg>
