<?xml version="1.0" encoding="utf-8"?>
<!-- Generator: Adobe Illustrator 19.2.1, SVG Export Plug-In . SVG Version: 6.00 Build 0)  -->
<svg version="1.1" id="Layer_1" xmlns="http://www.w3.org/2000/svg" xmlns:xlink="http://www.w3.org/1999/xlink" x="0px" y="0px"
	 viewBox="0 0 1280 374.8" style="enable-background:new 0 0 1280 374.8;" xml:space="preserve">
<style type="text/css">
	.st0{fill:#FFFFFF;}
</style>
<g>
	<path class="st0" d="M56.8,220.9c0,15.2-12.1,28.2-27.7,28.2c-13.4,0-29-6.5-29-29v-67.2c-0.1-15.6,11.6-28.2,28.5-28.2
		c16,0,28.2,12.1,28.2,29v6.9H39V155c0-6.9-4.3-12.6-10.8-12.6c-8.7,0-10.8,6.1-10.8,14.3v62.4c0,6.9,2.6,12.6,10.8,12.6
		c4.8,0,10.8-2.6,10.8-12.6V213h17.3L56.8,220.9L56.8,220.9z"/>
	<path class="st0" d="M112.2,126h17.3v52.4h21.7V126h17.3v122.2h-17.3v-54.6h-21.7v54.6h-17.3V126z"/>
	<path class="st0" d="M245.7,126h14.7l27.3,122.2h-17.3l-5.2-26.4h-23.8l-5.2,26.4h-17.3L245.7,126z M253.1,161.1L253.1,161.1
		l-9.1,44.2h17.3L253.1,161.1z"/>
	<path class="st0" d="M336.7,126h16.9l26.4,73.7h0.4V126h17.3v122.2h-16.5l-26.9-73.7H354v73.7h-17.3V126L336.7,126z"/>
	<path class="st0" d="M454.1,126H471l26.4,73.7h0.4V126h17.3v122.2h-16.5l-26.9-73.7h-0.4v73.7H454V126H454.1z"/>
	<path class="st0" d="M572.4,126h52v16.5h-34.7v36H620V195h-30.3v36h34.7v17.3h-52V126z"/>
	<path class="st0" d="M676.8,126h17.3v104.9h34.7v17.3h-52V126z"/>
</g>
<g>
	<rect x="1051.6" y="144.2" class="st0" width="41.2" height="42.5"/>
	<path class="st0" d="M1277,85.3v-0.4c0-0.4,0-0.9,0-0.9c0-1.7-0.4-3.5-0.4-5.2c-0.9-6.9-1.7-10.8-2.6-13
		c-10.4-37.7-39.9-50.7-58.9-55c-1.3-0.4-3-0.9-6.1-1.3c-2.6-0.4-4.8-0.9-6.5-0.9c-20.4-2.2-67.2-8.7-176.8-8.7
		c-156,0-186.3,9.1-192,11.3c-19.1,4.8-47.2,17.3-57.6,53.7c-0.9,2.2-2.2,6.5-3,14.7c0,1.3-0.4,2.6-0.4,3.9v0.4c0,0.4,0,1.3,0,2.2
		c-1.7,16.9-3,45.5-3,94.9c0,53.3,1.3,84.9,2.6,103.6c0,4.8,0.4,10,1.7,16.5c7.4,42,36.8,57.6,57.6,62.8c0.9,0.4,3.9,1.3,10.4,2.2
		c5.6,0.9,9.1,0.9,9.5,0.9c23.8,1.7,73.2,7.8,175.9,7.8c104,0,150.8-6.5,172-8.7c2.2,0,5.2-0.4,9.1-1.3c3-0.4,5.2-0.9,6.5-1.3
		c20.8-5.2,52-19.9,59.8-63.7c0.9-4.8,1.3-8.7,1.3-12.1c1.7-18.2,3.9-50.3,3.9-106.6C1280,130.8,1278.7,101.8,1277,85.3z
		 M879.6,253.9h-68.5v-3v-10V214h13.4v-13h13.9v-13.4h13.9v-13.4h13.9v-29.9h-55v-13h68.5v0.9v12.1v29.9h-13.4v13.4h-13.9V201h-13.9
		v13.4h-13.9v26.9h55V253.9L879.6,253.9z M992.7,144.2h-54.6v41.6h41.6v13h-41.6v42h54.6v13h-68v-13l0,0V131.2h13.4l0,0h54.6V144.2
		L992.7,144.2z M1106.2,186.3h-13.4v13h13.4v54.2h-13.4v-54.2h-41.2v54.2h-13.4V144.2v-11.3v-1.7h54.6v13h13.4V186.3z M1208.1,253.9
		h-42v-13h42V253.9z M1221.5,240.9h-13.4v-54.2h-13.9v13.9h-13.9v13.9H1166v26.9h-13.4v-97.1h13.4v-13h42v13h-42v55.9h13.9v-13.9
		h13.9v-13.9h13.9v-28.6h13.4L1221.5,240.9L1221.5,240.9z"/>
</g>
</svg>
