<?xml version="1.0" encoding="utf-8"?>
<!-- Generator: Adobe Illustrator 19.2.1, SVG Export Plug-In . SVG Version: 6.00 Build 0)  -->
<svg version="1.1" id="Layer_1" xmlns="http://www.w3.org/2000/svg" xmlns:xlink="http://www.w3.org/1999/xlink" x="0px" y="0px"
	 viewBox="0 0 2975 1669.8" style="enable-background:new 0 0 2975 1669.8;" xml:space="preserve">
<style type="text/css">
	.st0{fill:#FFFDFD;}
</style>
<g id="Layer_3">
</g>
<g id="Layer_1_copy">
	<g>
		<polygon class="st0" points="725.3,802 823,802 774.3,692.7 		"/>
		<path class="st0" d="M2574.5,835.5c7.6,8,16.5,14.3,26.8,19c10.3,4.7,21.6,7,33.8,7c12.2,0,23.5-2.3,33.8-6.9
			c10.3-4.6,19.1-10.9,26.5-18.8c7.3-8,13.1-17.2,17.3-27.9c4.2-10.6,6.3-22,6.3-34.3V773c0-12.2-2.1-23.7-6.3-34.4
			c-4.2-10.7-10.1-20.1-17.6-28c-7.6-8-16.5-14.3-26.8-19c-10.3-4.7-21.6-7-33.8-7s-23.5,2.3-33.8,6.9
			c-10.3,4.6-19.1,10.9-26.5,18.8c-7.4,8-12.9,17.3-17.1,27.9c-4.2,10.6-6.1,22-6.1,34.3v0.6c0,12.2,1.9,23.7,6.1,34.4
			C2561.2,818.2,2566.9,827.5,2574.5,835.5z"/>
		<path class="st0" d="M401.6,1121H353v219h48.6c71.5,0,119.4-39.3,119.4-109v-1.2C521,1160.7,473.1,1121,401.6,1121z"/>
		<rect x="187" y="117" class="st0" width="76" height="46"/>
		<polygon class="st0" points="96,0.2 0,0.2 0,1.3 0.1,56 96,56 		"/>
		<rect x="0.1" y="163" class="st0" width="95.9" height="61"/>
		<polygon class="st0" points="293,0.2 293,56 385,56 385,0.2 		"/>
		<polygon class="st0" points="871,0.2 871,87 1024,87 1024,0.1 		"/>
		<polygon class="st0" points="385,56 385,163 445.5,163 537,163 537,56 		"/>
		<path class="st0" d="M2443.4,763.4c4.9-3.8,8.7-8.4,11.5-13.8c2.8-5.4,4.1-11.6,4.1-18.5v-0.6c0-13.3-4.8-23.7-14.4-31.2
			c-9.6-7.4-23.1-11.3-40.5-11.3H2338v87h65.8c8,0,15.3-0.9,22.1-3C2432.6,770,2438.5,767.2,2443.4,763.4z"/>
		<path class="st0" d="M2974.9,222.6c0-123-98.5-222.6-220.2-222.6L1161,0.1V87h-137v122h-92v60H750V163H537v167h137v46H536.8H446
			v-45.7V285H263v-61H96v91h106v122H96v106H0.1l0.1,904.1c0,122.9,98.7,222.7,220.4,222.7l2534.2-0.2
			c121.7,0,220.4-99.7,220.3-222.6L2974.9,222.6z M2525,773c0-14.7,2.9-28.8,8.2-42.3c5.3-13.5,12.9-25.3,22.5-35.4
			c9.6-10.1,21.2-18.2,34.7-24.2c13.5-6,28.4-9,44.7-9c16.3,0,31.2,3,44.6,8.9c13.4,5.9,24.9,13.9,34.5,24
			c9.6,10.1,17,21.8,22.2,35.2c5.2,13.4,7.8,27.4,7.8,42.1c0.2,0.2,0.2,0.4,0,0.6c0,14.7-2.7,28.8-8,42.3
			c-5.3,13.5-12.8,25.3-22.4,35.4c-9.6,10.1-21.1,18.2-34.6,24.2c-13.5,6-28.4,9-44.7,9c-16.3,0-31.2-3-44.6-8.9
			c-13.4-5.9-24.9-13.9-34.4-24c-9.6-10.1-17.2-21.8-22.4-35.2c-5.2-13.4-8-27.4-8-42.1L2525,773L2525,773z M2108,666h155v22h-130
			v73h117v22h-117v75h132v22h-157V666z M1886,864l139.1-176H1891v-22h167v16.1L1919.2,858H2058v22h-172V864z M1615,666h24v192h121
			v22h-145V666z M1410,666h155v22h-131v73h117v22h-117v75h132v22h-156V666z M1024,315h60v-46h77v46.1V361h-76.5H1024V315z M926,666
			h22.5L1084,837.7V666h23v214h-19.2L949,704.5V880h-23V666z M451,666h24v95h124v-95h24v214h-24v-96H475v96h-24V666z M293,437h107
			v106H293V437z M216,773.7V773c0-15.1,2.6-29.4,8-42.9c5.4-13.5,12.9-25.3,22.5-35.4c9.6-10.1,21-18.1,34.3-23.9
			c13.3-5.8,27.7-8.7,43.5-8.7c9.8,0,18.6,0.8,26.5,2.5c7.9,1.6,15.2,3.9,21.9,6.9c6.7,3,13,6.5,18.7,10.7
			c5.7,4.2,11.2,8.8,16.5,13.9l-16.5,17.8c-9.2-8.6-19-15.6-29.5-21.1c-10.5-5.5-23.1-8.3-37.8-8.3c-11.8,0-22.8,2.2-32.9,6.7
			c-10.1,4.5-18.9,10.7-26.3,18.7c-7.5,8-13.2,17.3-17.4,28c-4.2,10.7-6.2,22.2-6.2,34.4v0.6c0,12.5,2,24,6.2,34.8
			c4.2,10.7,10,20.1,17.4,28c7.4,8,16.2,14.2,26.3,18.8c10.1,4.6,21.1,6.9,32.9,6.9c14.7,0,27.3-2.7,38-8.1
			c10.6-5.4,21-13,31.2-22.8l15.9,15.6c-5.5,5.7-11.3,10.9-17.3,15.5c-6,4.6-12.5,8.5-19.4,11.8c-6.9,3.3-14.4,5.8-22.4,7.7
			c-8,1.8-16.8,2.8-26.6,2.8c-15.5,0-29.8-2.9-42.9-8.6c-13.1-5.7-24.4-13.5-34-23.4c-9.6-9.9-17-21.6-22.4-35.1
			C218.6,803.4,216,789,216,773.7z M643,1229.2c0,124.6-90.3,216.8-245.7,216.8H233v-431h166.7c154.2,0,243.3,88.3,243.3,212.9
			V1229.2z M828,1446H708v-431h120V1446z M857.6,880l-25.1-56H715.8l-25.4,56h-24.8l97.7-216h22.7l97.7,216H857.6z M887,543h-92v-45
			h92V543z M1314,1388.3c-45,37.6-108.9,66.6-187.3,66.6c-134.5,0-234.7-92.5-234.7-223.3v-1.2c0-125.8,98.7-224.5,232.5-224.5
			c75.9,0,129.5,23.4,175.2,62.9l-70.3,84.5c-30.8-25.9-61.5-40.7-104.1-40.7c-62.3,0-110.2,52.4-110.2,118.4v1.2
			c0,69.7,48.6,119.7,117.1,119.7c29,0,50.9-6.2,68.9-17.9v-52h-85v-88h198V1388.3z M1349,880h-19.3L1191,704.5V880h-23V666h22.4
			L1325,837.7V666h24V880z M1504,1446h-120v-431h120V1446z M1808,1446h-120v-327h-129v-104h378v104h-129V1446z M2254.4,1446
			l-31.5-77h-166.5l-30.8,77h-125.8l183.8-435h115.3l183.8,435H2254.4z M2398.4,797H2338v83h-24V666h91.7c13.3,0,25.1,1.8,35.4,5.6
			c10.3,3.8,18.8,9,25.6,15.7c5.3,5.3,9.3,11.5,12.1,18.7c2.9,7.1,4.2,15,4.2,23.6v0.6c0,9-1.3,17-4.2,24c-2.9,7-6.8,13.2-12,18.4
			s-11.4,9.5-18.5,12.9c-7.1,3.4-14.9,5.7-23.3,7.1l65.8,87.5h-29.7l-62.2-83L2398.4,797L2398.4,797z M2753,1446h-328v-431h119v326
			h209V1446z"/>
		<polygon class="st0" points="2091.6,1276 2188.4,1276 2140.3,1153.3 		"/>
	</g>
</g>
</svg>
