<?xml version="1.0" encoding="utf-8"?>
<!-- Generator: Adobe Illustrator 19.2.1, SVG Export Plug-In . SVG Version: 6.00 Build 0)  -->
<svg version="1.1" id="Layer_1" xmlns="http://www.w3.org/2000/svg" xmlns:xlink="http://www.w3.org/1999/xlink" x="0px" y="0px"
	 viewBox="0 0 639.3 590.3" style="enable-background:new 0 0 639.3 590.3;" xml:space="preserve">
<style type="text/css">
	.st0{fill:#FFFFFF;}
</style>
<g>
	<g>
		<g>
			<path class="st0" d="M176.8,360.3l-5.5-0.2c-17-0.1-37.6-16.9-37.6-37.9v-54.6c0-21,20.5-37.9,37.6-37.9l5.5-0.2l5.5,0.2
				c15.3,0,38.4,15.2,38.4,37.9l0,8.1h-29.5v-5.1c0-6.8-7.2-12-11.9-12h-0.1l-2.3-0.1l-2.4,0.1c-4.7,0-11.9,5.2-11.9,12.1V319
				c0,6.9,7.2,12.1,11.9,12.1l0.1,0l2.3,0.1l2.4-0.1c4.7,0,11.9-5.1,11.9-11.9V314h29.5l0,8.1c0,22.8-23.1,37.9-38.4,37.9
				L176.8,360.3L176.8,360.3z"/>
		</g>
		<g>
			<path class="st0" d="M313.7,360.2H285v-50.3h-25.6v50.3h-28.7V229.5h28.7v50.7H285v-50.7h28.7L313.7,360.2L313.7,360.2z"/>
		</g>
		<g>
			<path class="st0" d="M366.8,360.3l-5.5-0.2c-17-0.1-37.6-16.9-37.6-37.9v-54.6c0-21,20.5-37.9,37.6-37.9l5.5-0.2l5.5,0.2
				c15.3,0,38.4,15.2,38.4,37.9l0,8.1h-29.5v-5.1c0-6.8-7.2-12-11.9-12h-0.1l-2.3-0.1l-2.4,0.1c-4.7,0-11.9,5.2-11.9,12.1V319
				c0,6.9,7.2,12.1,11.9,12.1l0.1,0l2.3,0.1l2.4-0.1c4.7,0,11.9-5.1,11.9-11.9V314h29.5l0,8.1c0,22.8-23.1,37.9-38.4,37.9
				L366.8,360.3L366.8,360.3z"/>
		</g>
		<g>
			<path class="st0" d="M503.7,360.2H475v-50.3h-25.6v50.3h-28.7V229.5h28.7v50.7H475v-50.7h28.7V360.2L503.7,360.2z"/>
		</g>
	</g>
	<path class="st0" d="M131.1,159.6c29.8-15.5,83.3-22.5,125.8-25.7c0.2-26.4,7.2-52.4,20.7-75.9c7.2-12.5,16.1-23.8,26.2-33.6
		c-22.3-15.4-49-24-76.9-24c-23.6,0-47,6.3-67.6,18.2C94.8,56,72.7,138.8,110.1,203.3c3,5.2,6.4,10.2,10.1,14.9
		C124.9,182.9,131.1,159.6,131.1,159.6z"/>
	<path class="st0" d="M542,100.1c-9.4-34.9-31.8-64-63.1-82C458.5,6.2,435.2,0,411.7,0c-48.3,0-93.2,26-117.3,67.7
		c-11.6,20.1-17.7,42.3-18.1,64.9c25.5-1.4,43.5-1.4,43.5-1.4s83.3,0,145.2,13.9c12.5-3.2,25.5-4.9,38.8-4.9h0.2
		c14.6,0,28.8,2.1,42.2,5.9C547.5,130.8,546.1,115.3,542,100.1z"/>
	<path class="st0" d="M508.4,159.7c0.4,1.6,16.3,62.3,16.3,135.6c0,18-1,35.3-2.4,51.1c9.1,9.2,17.1,19.5,23.7,31
		c7.3,12.6,12.7,25.9,16.2,39.6c13.8-6.6,26.6-15.5,37.7-26.7c25.5-25.6,39.5-59.5,39.5-95.6C639.2,221.6,580.8,161.9,508.4,159.7z"
		/>
	<path class="st0" d="M529.2,387c-3-5.1-6.3-10-9.9-14.7c-4.8,35.2-11,58.4-11,58.4c-29.8,15.5-83.5,22.5-126,25.7
		c-0.2,26.4-7.2,52.4-20.7,75.8c-7.2,12.5-16.1,23.8-26.2,33.6c22.3,15.4,49,24,76.9,24c23.6,0,47-6.3,67.6-18.2
		c31.3-18.1,53.6-47.3,62.9-82.2C552.1,454.7,547.3,418.2,529.2,387z"/>
	<path class="st0" d="M319.8,459c0,0-83.5,0-145.5-13.9c-12.6,3.3-25.6,5-38.9,5h-0.2c-14.6,0-28.8-2.1-42.2-5.9
		c-1.2,15.3,0.2,30.8,4.3,46c9.4,34.9,31.8,64,63.1,82c20.5,11.8,43.8,18.1,67.3,18.1c48.3,0,93.2-26,117.3-67.7
		c11.6-20.1,17.7-42.3,18.1-64.9C337.6,459,319.8,459,319.8,459z"/>
	<path class="st0" d="M114.8,295.3c0-18,1-35.3,2.4-51.1C108,235,100,224.5,93.3,213C86,200.3,80.6,187,77.2,173.4
		c-13.8,6.6-26.6,15.5-37.7,26.7C14,225.6,0,259.6,0,295.7c0.1,68.6,51.6,125.4,117.9,133.9c0.1,0,3.7,0.4,4.1,0.5
		c0.7,0.1,7.5,0.5,9.2,0.6C130.7,429.1,114.8,368.7,114.8,295.3z"/>
</g>
</svg>
