<?xml version="1.0" encoding="utf-8"?>
<!-- Generator: Adobe Illustrator 17.0.0, SVG Export Plug-In . SVG Version: 6.00 Build 0)  -->
<!DOCTYPE svg PUBLIC "-//W3C//DTD SVG 1.1//EN" "http://www.w3.org/Graphics/SVG/1.1/DTD/svg11.dtd">
<svg version="1.1" xmlns="http://www.w3.org/2000/svg" xmlns:xlink="http://www.w3.org/1999/xlink" x="0px" y="0px" width="460px"
	 height="424px" viewBox="0 0 460 424" enable-background="new 0 0 460 424" xml:space="preserve">
<g id="BG" display="none">
	<rect x="-74" y="-94.887" display="inline" width="612" height="612"/>
</g>
<g id="Logo">
	<g>
		<g>
			<g>
				<path fill="#FFFFFF" d="M132.181,256.649l-3.818-0.156c-11.904-0.039-26.26-11.846-26.26-26.504v-38.14
					c0-14.658,14.356-26.47,26.26-26.504l3.818-0.156l3.813,0.156c10.718,0.034,26.865,10.601,26.865,26.504l-0.024,5.669h-20.601
					v-3.54c0-4.766-5.063-8.355-8.354-8.355h-0.103l-1.597-0.068l-1.709,0.068c-3.281,0-8.34,3.623-8.34,8.433v33.726
					c0,4.814,5.059,8.428,8.34,8.428l0.107,0.005l1.602,0.073l1.699-0.078c3.291,0,8.354-3.584,8.354-8.35v-3.535h20.601
					l0.024,5.654c0,15.918-16.147,26.475-26.865,26.514L132.181,256.649L132.181,256.649z"/>
			</g>
			<g>
				<path fill="#FFFFFF" d="M227.854,256.615H207.83v-35.161h-17.905v35.161H169.9v-91.382h20.024v35.469h17.905v-35.469h20.024
					V256.615L227.854,256.615z"/>
			</g>
			<g>
				<path fill="#FFFFFF" d="M264.965,256.649l-3.809-0.156c-11.914-0.039-26.266-11.846-26.266-26.504v-38.14
					c0-14.658,14.352-26.47,26.266-26.504l3.809-0.156l3.818,0.156c10.713,0.034,26.865,10.601,26.865,26.504l-0.025,5.669h-20.6
					v-3.54c0-4.766-5.068-8.355-8.35-8.355h-0.107l-1.602-0.068l-1.705,0.068c-3.275,0-8.344,3.623-8.344,8.433v33.726
					c0,4.814,5.068,8.428,8.344,8.428l0.103,0.005l1.602,0.073l1.709-0.078c3.281,0,8.35-3.584,8.35-8.35v-3.535h20.6l0.025,5.654
					c0,15.918-16.152,26.475-26.865,26.514L264.965,256.649L264.965,256.649z"/>
			</g>
			<g>
				<path fill="#FFFFFF" d="M360.648,256.615h-20.029v-35.161h-17.906v35.161h-20.023v-91.382h20.023v35.469h17.906v-35.469h20.029
					V256.615L360.648,256.615z"/>
			</g>
		</g>
		<path fill="#F78E1E" d="M100.237,116.388c20.806-10.818,58.242-15.728,87.939-17.954c0.117-18.433,5.005-36.606,14.453-53.013
			c5.044-8.76,11.245-16.638,18.33-23.513C205.394,11.166,186.683,5.102,167.2,5.102c-16.514,0-32.852,4.399-47.231,12.727
			C74.881,43.93,59.432,101.842,85.53,146.933c2.124,3.662,4.473,7.153,7.031,10.449
			C95.892,132.694,100.237,116.388,100.237,116.388z"/>
		<path fill="#A54399" d="M387.455,74.765c-6.553-24.368-22.213-44.722-44.082-57.314c-14.342-8.259-30.611-12.624-47.051-12.624
			c-33.74,0-65.148,18.142-81.969,47.349c-8.091,14.058-12.353,29.6-12.622,45.381c17.832-0.974,30.435-0.977,30.435-0.977
			s58.199,0.007,101.5,9.71c8.76-2.266,17.861-3.447,27.143-3.457h0.127c10.23,0,20.123,1.431,29.512,4.101
			C391.303,96.264,390.32,85.409,387.455,74.765z"/>
		<path fill="#E31837" d="M363.914,116.415c0.299,1.123,11.422,43.525,11.422,94.785c0,12.598-0.674,24.648-1.689,35.684
			c6.338,6.416,11.918,13.662,16.537,21.641c5.094,8.799,8.863,18.11,11.299,27.705c9.654-4.6,18.551-10.859,26.334-18.657
			c17.822-17.861,27.621-41.597,27.588-66.836C455.35,159.696,414.578,117.995,363.914,116.415z"/>
		<path fill="#009AC7" d="M378.471,275.302c-2.08-3.594-4.391-7.031-6.895-10.273c-3.33,24.6-7.666,40.82-7.666,40.82
			c-20.859,10.845-58.389,15.752-88.076,17.969c-0.127,18.428-5.016,36.592-14.459,52.988c-5.043,8.76-11.244,16.641-18.334,23.516
			c15.576,10.742,34.281,16.807,53.76,16.807c16.514,0,32.852-4.404,47.23-12.729c21.852-12.642,37.457-33.032,43.961-57.417
			C394.496,322.602,391.117,297.148,378.471,275.302z"/>
		<path fill="#FFE800" d="M232.132,325.653c0,0-58.374-0.005-101.719-9.727c-8.779,2.275-17.91,3.467-27.217,3.477h-0.127
			c-10.225,0-20.127-1.431-29.512-4.106c-0.859,10.674,0.122,21.528,2.988,32.168c6.558,24.37,22.212,44.722,44.082,57.319
			c14.341,8.252,30.61,12.617,47.056,12.617c33.74,0,65.146-18.14,81.969-47.344c8.086-14.053,12.344-29.59,12.627-45.361
			C244.594,325.653,232.132,325.653,232.132,325.653z"/>
		<path fill="#54B948" d="M88.811,211.2c0-12.593,0.674-24.653,1.69-35.698c-6.396-6.455-12.026-13.755-16.68-21.792
			c-5.146-8.892-8.877-18.218-11.27-27.72c-9.668,4.597-18.574,10.869-26.362,18.672c-17.827,17.866-27.622,41.597-27.593,66.831
			c0.049,47.949,36.035,87.661,82.397,93.608c0.044,0.005,2.617,0.298,2.842,0.317c0.503,0.049,5.234,0.342,6.396,0.405
			C99.954,304.76,88.811,262.499,88.811,211.2z"/>
	</g>
</g>
</svg>
