<?xml version="1.0" encoding="utf-8"?>
<!-- Generator: Adobe Illustrator 19.2.1, SVG Export Plug-In . SVG Version: 6.00 Build 0)  -->
<svg version="1.1" id="Layer_1" xmlns="http://www.w3.org/2000/svg" xmlns:xlink="http://www.w3.org/1999/xlink" x="0px" y="0px"
	 viewBox="0 0 372.3 177.7" style="enable-background:new 0 0 372.3 177.7;" xml:space="preserve">
<style type="text/css">
	.st0{fill:#FFFFFF;}
</style>
<g id="Layer_2">
</g>
<g id="CZWM_x5F_PosCMYK_x5F_Logo">
</g>
<g id="CZWM_x5F_Neg_x5F_CMYK">
	<g>
		<g>
			<path class="st0" d="M106.6,68.3c-0.1-0.5-0.2-1.1-0.4-1.6c0-0.1,0-0.2,0-0.3c0-0.1-0.1-0.2-0.1-0.3c0-0.3,0-0.6,0-0.9
				c0,0,0.1,0,0-0.1c-0.2-0.7,0.2-1.2,0.4-1.8c0.2-0.8,0.4-1.7,0.6-2.5c0.1-0.4,0.4-0.8,0.6-1.2c0.3-0.4,0.6-0.9,0.9-1.3
				c0.2-0.3,0.5-0.5,0.8-0.8c0.2-0.2,0.5-0.2,0.8-0.3c0.4-0.2,0.6-0.5,0.8-0.9c0.2-0.6,0.6-1.1,1.3-1.4c0.4-0.1,0.6-0.5,0.9-0.8
				c0.1-0.1,0.2-0.1,0.2-0.2c0,0.1,0,0.2,0.1,0.2c0.1,0.1,0.1,0.2,0.2,0.2c0.1,0.1,0.3,0.1,0.4,0.2c0.1,0,0.3,0.1,0.4,0
				c0.3-0.1,0.7-0.3,1-0.3c0.4-0.1,1-0.1,1.3,0.1c0.4,0.2,0.7-0.1,1,0.1c0.3,0.2,0.6,0.1,0.9,0c0.1,0,0.2,0.1,0.2,0.1
				c0,0.2,0.1,0.2,0.2,0.1c0,0,0.1,0,0.1,0c0,0,0,0.1,0,0.1c-0.1,0.1-0.2,0.1-0.2,0.2c-0.1,0.1-0.1,0.2-0.1,0.3
				c0.2,0.4-0.1,0.6-0.4,0.8c-0.4,0.2-0.4,0.3,0,0.6c0.1,0.1,0.1,0.2,0.1,0.2c0.2,0.2,0.4,0.4,0.7,0.3c0.2,0,0.3,0.2,0.5,0.3
				c0.3,0.1,0.2,0.3,0.2,0.5c0.1,0.2,0.2,0.3,0.4,0.4c0.2,0.2,0.5,0.3,0.8,0.5c0.2,0.1,0.2,0.3,0.5,0.2c0.3-0.1,0.4-0.2,0.4-0.5
				c0-0.4,0.1-0.6,0.4-0.7c0.4-0.1,0.8-0.3,1,0.1c0.2,0.3,0.5,0.5,0.9,0.5c0,0,0.1,0.1,0.1,0.2c0,0.1,0.1,0.1,0.1,0.1
				c0.4,0.1,0.8,0.3,1.2,0.4c0.3,0.1,0.6,0.3,1,0.2c0.2-0.1,0.4-0.2,0.6-0.2c0.2,0,0.4,0.1,0.5,0.2c0.3,0.3,1.3,0.2,1.5-0.3
				c0.2-0.4,0.4-0.9,0.7-1.3c0.3-0.4,0.2-0.9,0.3-1.3c0,0,0.1-0.1,0.1-0.1c0-0.1,0.1-0.1,0.1-0.2c-0.1,0-0.2,0-0.2,0
				c-0.1,0-0.2,0.1-0.2,0c-0.2-0.2-0.4-0.1-0.5,0.1c-0.3,0.3-0.7,0.2-1-0.1c-0.1-0.1-0.3-0.2-0.5-0.3c0,0-0.1,0.1-0.2,0.1
				c-0.1,0.1-0.3,0.2-0.4,0.2c-0.1,0-0.2-0.2-0.3-0.2c-0.1-0.1-0.2-0.1-0.2-0.2c-0.2-0.1-0.3-0.3-0.5-0.4c0,0,0-0.1,0-0.1
				c0.1-0.2,0-0.3-0.2-0.3c0,0,0-0.1-0.1-0.1c0.5,0,0.1-0.5,0.3-0.6c0,0-0.1,0-0.1-0.1c-0.1,0-0.1-0.1-0.1-0.2
				c0.1-0.2,0.3-0.4,0.6-0.3c0.2,0.1,0.5,0.1,0.7,0.1c0.1,0,0.2-0.1,0.3-0.2c0,0,0,0,0-0.1c-0.3-0.2-0.7-0.2-1-0.1
				c-0.1,0.1-0.4,0.1-0.5,0c-0.3-0.3-0.7-0.1-1-0.1c0,0,0,0.1-0.1,0.1c0,0-0.1,0.1-0.1,0.1c-0.1,0-0.1,0-0.2-0.1
				c0,0-0.1-0.1-0.1-0.1c-0.1,0.1-0.2,0.2-0.1,0.3c0.1,0.3,0.1,0.5-0.1,0.7c0,0,0,0.1,0,0.1c0.1,0.1,0.2,0.1,0.2,0.2
				c0.1,0.1,0.1,0.2,0.1,0.3c-0.1,0-0.2-0.1-0.3-0.1c-0.2-0.1-0.4-0.2-0.6-0.3c-0.3-0.1-0.4-0.1-0.2-0.4c0,0,0,0,0,0
				c-0.5-0.5-0.4-1-0.1-1.5c0.1-0.1-0.1-0.4-0.2-0.5c-0.2-0.3-0.5-0.5-0.7-0.8c-0.1-0.2-0.1-0.4-0.1-0.6c0-0.1,0-0.2,0-0.2
				c-0.1,0-0.1,0.1-0.2,0.1c0,0-0.1,0-0.1,0c0-0.1,0-0.2,0.1-0.3c0,0,0.1-0.1,0.1-0.1c-0.1,0-0.1,0-0.2,0c-0.5,0.1-0.8,0.6-0.5,1
				c0.1,0.1,0.1,0.3,0.1,0.4c0,0.4,0.1,0.6,0.5,0.7c0,0,0,0.1,0,0.1c0,0.1,0,0.2,0.1,0.3c0.2,0.2,0.4,0.4,0.5,0.6c0,0.1,0,0.2,0,0.3
				c0-0.1-0.1-0.1-0.1-0.2c-0.1-0.1-0.2-0.2-0.3-0.2c-0.1,0-0.2,0.2-0.3,0.3c0,0,0,0.2,0,0.2c0,0.1,0,0.2,0,0.3
				c-0.2,0.2-0.4,0.3-0.6,0.5c0,0-0.1,0-0.1,0c0-0.1,0-0.1,0.1-0.1c0.2-0.2,0.4-0.5,0.3-0.8c-0.1-0.2-0.2-0.4-0.3-0.6
				c-0.3-0.4-0.7-0.8-0.8-1.3c0-0.2,0-0.3,0-0.5c0.1-0.3-0.1-0.4-0.2-0.5c-0.1,0-0.3,0.1-0.4,0.1c-0.3,0.1-0.6,0.3-0.9,0.3
				c-0.1,0-0.3-0.1-0.4-0.2c-0.3-0.2-0.7-0.1-0.8,0.3c-0.1,0.4-0.4,0.5-0.8,0.6c-0.6,0.1-0.8,0.5-1.2,0.8c0,0,0,0,0,0
				c0,0.4-0.3,0.6-0.5,0.7c-0.4,0.2-0.7,0.7-1.3,0.4c-0.1-0.1-0.3,0-0.5,0.1c-0.1,0-0.1,0-0.2,0.1c0-0.1,0-0.1,0-0.2
				c0-0.1,0.1-0.2,0.1-0.2c0-0.1-0.1-0.2-0.2-0.3c-0.1-0.1-0.2-0.1-0.3-0.1c0,0,0-0.1,0.1-0.2c0.1-0.2,0.2-0.5,0.3-0.8
				c0-0.1,0.1-0.2,0.2-0.3c0.3-0.3,0.5-0.6,0.8-1c0.2-0.2,0.3-0.5,0.4-0.8c0.1-0.2,0.5-0.2,0.7-0.1c0.4,0.2,0.8,0.4,1.2,0.5
				c0.1,0,0.2,0,0.3-0.1c0.3-0.3,0.5-0.5,0.8-0.8c0.1-0.1,0.1-0.4,0.1-0.6c0-0.1,0-0.1,0-0.2c0.2-0.2,0.1-0.4-0.1-0.6
				c0,0-0.1-0.1-0.1-0.2c0.1-0.1,0.2-0.2,0.3-0.2c0.1,0,0.2,0.1,0.3,0.1c0.3,0.1,0.4,0,0.5-0.2c0-0.1,0.1-0.1,0.1-0.2
				c0,0,0,0.1,0.1,0.1c0.1,0,0.2,0.1,0.3,0.1c0.5-0.2,0.9-0.4,1.3-0.6c0.4-0.2,0.8-0.2,1.1-0.4c0.1,0,0.2-0.2,0.2-0.3
				c0,0,0.1-0.1,0.1-0.1c0.1,0,0.2,0,0.3,0c0,0,0.1,0,0.1,0c0.1,0,0.2,0,0.3,0c0.1,0,0.3-0.1,0.4-0.2c0.1-0.2,0.2-0.5,0.3-0.7
				c0.2-0.3,0.3-0.6,0.7-0.6c0.3,0,0.2,0,0.2,0.2c0,0.3-0.3,0.3-0.4,0.4c-0.4,0.2-0.4,0.4-0.2,0.7c0.1,0.2,0.1,0.2,0.4,0.1
				c0.2-0.1,0.3,0,0.4,0.2c0,0,0.1,0.1,0.2,0.1c0.4-0.1,0.8-0.2,1.3-0.3c0,0,0.1,0,0.1,0.1c0.1,0.1,0.2,0.2,0.2,0.2
				c0.1,0,0.2-0.1,0.3-0.2c0,0,0.1-0.1,0.2,0c0.3,0.1,0.3-0.1,0.4-0.3c0.2-0.3,0.3-0.5,0.5-0.8c0.1-0.1,0.3-0.2,0.4,0.1
				c0.1,0.3,0.3,0.2,0.3,0.1c0.1-0.1,0.2-0.3,0.3-0.4c0,0,0,0,0-0.1c0,0-0.1-0.1-0.1-0.1c0-0.1,0.1-0.2,0.2-0.2c0.3,0,0.6,0,0.9,0
				c0.2,0,0.4,0,0.6-0.1c0.1,0,0.3,0,0.4-0.1c-0.1-0.1-0.2-0.2-0.3-0.3c-0.1,0-0.3,0-0.5,0c-0.3,0-0.6,0.1-0.9,0.1
				c-0.1,0-0.3,0-0.3-0.1c-0.1-0.1-0.3-0.3,0-0.4c0,0,0.1-0.1,0.1-0.1c0-0.5,0.5-0.6,0.8-0.8c0.3-0.1,0.5-0.2,0.8-0.4
				c0.1,0,0.1-0.1,0.1-0.2c0,0-0.1-0.1-0.1-0.1c-0.3-0.2-0.8,0.1-1,0.3c-0.1,0.2-0.4,0.3-0.6,0.3c-0.5,0.2-1,0.4-1.3,0.9
				c0,0.1,0,0.2,0,0.3c0.1,0.2,0.2,0.3-0.1,0.4c-0.6,0.2-1.1,0.7-1.5,1.2c-0.1,0.1-0.2,0.1-0.4,0.1c-0.1,0-0.3,0.1-0.4,0.1
				c-0.1,0-0.3,0.1-0.4,0.1c0-0.1,0-0.2,0.1-0.4c0.1-0.3,0.2-0.7,0.4-1c0-0.1,0.1-0.2,0.1-0.3c0-0.1,0-0.2,0-0.2
				c0,0-0.1,0.1-0.1,0.1c-0.3,0.1-0.7,0.2-1,0.3c-0.1,0-0.2-0.2-0.3-0.2c0.1-0.1,0.1-0.1,0.2-0.2c0-0.1,0.1-0.1,0.1-0.2
				c0,0,0,0,0-0.1c0.2-0.3,0.5-0.6,0.8-0.8c0.1-0.1,0.4-0.2,0.6-0.2c0.3-0.1,0.6-0.2,0.9-0.3c0.1,0,0.3,0,0.5-0.1c0,0,0.1,0,0.1-0.1
				c0,0-0.1,0-0.1,0c-0.1,0-0.1,0-0.2,0c0.1-0.1,0.1-0.1,0.2-0.2c0.4-0.2,0.8-0.4,1.3-0.6c0.5-0.3,1.1-0.5,1.6-0.8
				c0.4-0.3,0.9-0.1,1.3-0.3c0.2-0.1,0.4-0.1,0.5-0.2c0,0,0.1,0,0.1,0c0,0,0,0,0,0.1c0,0-0.1,0.1-0.1,0.1c0.1,0,0.1-0.1,0.2-0.1
				c0.1,0,0.3,0,0.4,0c0,0,0.1,0,0.1,0c0.1,0,0.2,0.1,0.3,0.1c-0.1,0-0.1,0.1-0.2,0.1c0,0,0,0-0.1,0.1c0,0,0.1,0,0.1,0.1
				c0.6,0.2,1.2,0.4,1.8,0.7c0.1,0,0.3,0.2,0.2,0.3c0,0.1-0.2,0.3-0.3,0.3c-0.4,0-0.7,0-1.1-0.1c-0.2,0-0.4-0.2-0.5-0.2
				c0,0,0,0-0.1,0c0,0,0,0.1,0,0.1c0,0,0,0,0,0.1c0.2,0.2,0.3,0.3,0.2,0.6c-0.1,0.2,0.3,0.5,0.6,0.5c0.1,0,0.1-0.1,0.2-0.1
				c0,0-0.1-0.1-0.1-0.1c0,0-0.1-0.1-0.1-0.1c0,0,0-0.1,0.1-0.1c0.1,0,0.1,0,0.2,0c0.2,0.1,0.3,0.1,0.5,0.2c0,0,0.1-0.1,0.1-0.2
				c0,0,0-0.1,0-0.2c0.1-0.1,0.8-0.3,0.9-0.2c0,0,0.1,0,0.2,0c0-0.1,0-0.2,0-0.3c0-0.2,0-0.3,0-0.5c0.1,0,0.3,0.1,0.4,0.1
				c0,0,0,0.1,0,0.1c-0.1,0.1-0.2,0.1-0.2,0.2c0.1,0.1,0.2,0.2,0.2,0.2c0.1,0,0.3,0,0.4-0.1c0.3-0.1,0.6-0.3,0.9-0.5
				c0.1,0,0.1-0.1,0.2-0.1c0.1,0,0.1-0.1,0.2-0.1c0,0,0.1,0.1,0.1,0.1c0,0,0.1,0.1,0.1,0.1c0.2-0.1,0.5-0.1,0.7-0.2
				c0.1,0,0.3-0.2,0.4,0.1c0.1,0,0.2-0.1,0.2-0.1c0,0,0-0.1,0-0.1c0-0.1-0.1-0.1-0.1-0.2c0.1,0,0.1-0.1,0.2,0c0.5,0.1,1,0.2,1.5,0.3
				c0.1,0,0.1,0,0.2,0c0,0-0.1-0.1-0.1-0.1c-0.3-0.1-0.6-0.4-0.8-0.6c0,0,0-0.1,0-0.1c0-0.1,0.1-0.1,0.1-0.2c0-0.1,0-0.2,0-0.3
				c0.2,0,0.4,0,0.6,0.1c0.2,0.2,0.4,0.5,0.6,0.7c0.2,0.2,0.4,0.4,0.5,0.6c0.1,0.2,0.2,0.5-0.2,0.5c0,0,0,0,0,0c0,0,0,0,0,0
				c0.2,0,0.4,0,0.5-0.1c0.2-0.2,0.3-0.4,0-0.6c-0.2-0.1-0.2-0.2,0-0.3c0,0,0,0,0.1-0.1c-0.1,0-0.1,0-0.2,0c-0.1,0-0.3,0-0.4-0.1
				c-0.2-0.2-0.4-0.3-0.6-0.6c0-0.1,0-0.2,0.1-0.3c0,0,0.1,0.1,0.1,0.1c0.2,0.1,0.4,0.1,0.6,0.2c0,0,0,0,0.1,0c0,0-0.1,0-0.1,0
				c-0.1,0-0.2,0-0.2,0c-0.1,0-0.1-0.1-0.1-0.1c0.1,0,0.1,0,0.2,0c0,0,0.1,0,0.1,0c0.1-0.2,0.1-0.2,0.4-0.1c0,0,0,0,0,0
				c0.1,0,0.2,0,0.3,0c0,0,0,0,0,0c-0.1,0-0.2-0.1-0.3-0.1c-0.1-0.1-0.3-0.1-0.4-0.2c0,0-0.1-0.1-0.1-0.1c0,0,0.1-0.1,0.1-0.1
				c0.1,0,0.2,0,0.2-0.1c0.1,0,0.2-0.1,0.2-0.1c-0.1,0-0.1-0.1-0.2-0.1c0-0.1-0.1-0.2-0.1-0.3c0.1-0.1,0.3-0.2,0.4-0.3
				c0.1,0,0.1,0,0.2-0.1c0-0.1-0.1-0.1-0.1-0.2c-0.1-0.1-0.1-0.1-0.2-0.2c0.1,0,0.2,0,0.3,0c0.2,0,0.4,0,0.6,0
				c0.4,0.1,0.8,0.2,1.1,0.3c0.1,0.1,0.2,0.3,0.3,0.4c0,0,0.1,0.1,0.1,0.1c0,0,0.1-0.1,0.1-0.1c0,0-0.1-0.1-0.1-0.1c0,0,0,0-0.1,0
				c0,0,0.1,0,0.1,0c0.3,0,0.6-0.1,0.9-0.1c0.1,0,0.1-0.1,0.2-0.1c0,0-0.1-0.1-0.1-0.1c0,0-0.1-0.1-0.1-0.1c0,0,0.1,0,0.1,0
				c0.3,0,0.6,0.1,0.8,0.1c0.2,0,0.4,0.1,0.6,0.2c0,0,0.1,0,0.1,0c0,0,0,0-0.1,0c-0.1,0-0.1,0-0.2-0.1c0,0,0-0.1,0-0.1
				c0-0.1-0.1-0.2-0.1-0.2c-0.1-0.1-0.3-0.1-0.4-0.1c-0.1,0-0.1-0.1-0.1-0.2c0.1,0,0.2-0.1,0.3-0.1c0.9,0.3,1.7,0.5,2.5,0.9
				c1.4,0.6,2.8,1.3,4.1,2.1c0.9,0.5,1.6,1.3,2.4,1.9c0.1,0.1,0.3,0.2,0.5,0.3c0,0,0,0,0,0c0,0,0,0,0-0.1c0,0-0.1-0.1-0.1-0.1
				c0.1,0,0.1,0,0.2,0.1c0.6,0.5,1.2,1,1.8,1.5c1,0.8,1.8,1.7,2.6,2.7c0.2,0.3,0.3,0.6,0.4,0.9c0.3,0.5,0.6,1,0.9,1.5
				c0.2,0.3,0.5,0.5,0.8,0.8c0.3,0.4,0.6,0.9,0.9,1.3c0,0,0,0.1,0,0.2c0,0.1,0,0.2,0,0.3c-0.1-0.1-0.2-0.2-0.2-0.2
				c-0.2-0.3-0.4-0.6-0.6-1c-0.1-0.1-0.3-0.2-0.4-0.3c-0.1,0-0.1-0.1-0.2-0.1c-0.1-0.1-0.2-0.3-0.3-0.4c-0.1-0.1-0.2-0.1-0.3-0.2
				c0,0.1,0,0.2,0,0.3c0,0.1,0,0.2,0.1,0.3c-0.1-0.1-0.2-0.2-0.3-0.3c-0.1-0.1-0.2-0.3-0.3-0.4c0,0-0.1,0-0.1-0.1c0,0,0,0.1,0,0.1
				c0.1,0.3,0.2,0.5,0.3,0.8c0,0.1-0.1,0.3,0,0.3c0.1,0.1,0.3,0.2,0.4,0.4c0.1,0.1,0.2,0.2,0.2,0.3c0,0,0.1,0.1,0.1,0.1
				c0-0.1,0-0.1,0-0.2c0-0.1,0-0.2,0-0.3c0.1,0,0.2,0,0.3,0c0.1,0,0.1,0.2,0.1,0.3c0.1,0.4,0.2,0.9,0.4,1.3c0.2,0.4,0.6,0.7,0.9,1
				c0.3,0.3,0.6,0.6,0.6,1.1c0,0,0,0.1,0,0.1c0.4-0.2,0.3,0.2,0.4,0.3c0.3,0.9,0.5,1.7,0.7,2.6c0.1,0.5,0.1,0.9,0.1,1.4
				c0,0.2-0.1,0.5-0.2,0.6c-0.3,0.1,0,0.2-0.1,0.3c-0.1,0.2-0.2,0.4-0.3,0.7c0,0.2,0,0.4,0,0.6c0,0.1,0,0.1,0,0.2
				c0,0-0.1-0.1-0.1-0.1c0-0.1-0.1-0.1-0.1-0.2c0-0.1-0.1-0.2-0.1-0.3c-0.1,0.1-0.4,0.2-0.4,0.3c-0.1,0.5-0.2,1-0.2,1.4
				c0,0.6,0.5,1,0.9,1.4c0.4,0.4,0.6,0.8,0.8,1.3c0.1,0.3,0.1,0.7,0.2,1c0.1,0.5-0.1,0.9-0.4,1.3c-0.1,0.2-0.1,0.5-0.2,0.7
				c-0.1,0.2-0.1,0.4-0.2,0.5c0,0,0,0.1-0.1,0.1c0,0-0.1-0.1-0.1-0.1c0-0.2,0-0.3,0-0.5c0-0.1-0.1-0.2-0.1-0.3
				c-0.1-0.1-0.4,0-0.3-0.2c-0.3,0.1-0.1-0.2-0.2-0.2c-0.1-0.1-0.2-0.2-0.3-0.4c0,0-0.1-0.1-0.2-0.1c-0.2,0.1-0.2,0-0.3-0.2
				c0-0.1-0.1-0.1-0.1-0.2c-0.1,0.1-0.1,0.2-0.1,0.2c0,0.5,0,1.1,0,1.6c0,0.2,0,0.4,0,0.5c0,0.1-0.1,0.3,0.2,0.2c0,0,0.1,0,0.1,0.1
				c0.1,0.2,0.2,0.5,0.2,0.7c0.1,0.2,0.2,0.3,0.4,0.4c0.3,0.2,0.7,0.5,0.7,1c0,0.4,0.1,0.8,0.2,1.2c0,0.1,0.1,0.2,0.1,0.3
				c0,0.1-0.1,0.2-0.1,0.2c0,0-0.1,0-0.2-0.1c-0.8-0.4-0.7-1.1-0.9-1.8c-0.1-0.4-0.3-0.9-0.6-1.2c-0.1-0.2-0.2-0.3-0.2-0.5
				c-0.1-0.7-0.1-1.4-0.2-2.2c0-0.3-0.2-0.5-0.3-0.7c-0.2-0.5-0.4-1.1-0.6-1.6c0,0-0.1-0.1-0.1-0.1c0,0,0,0.1,0,0.1
				c0,0.1-0.1,0.2-0.1,0.4c0,0.1-0.2,0.2-0.2,0.3c0,0.2-0.1,0.3-0.3,0.3c-0.2,0-0.2-0.2-0.3-0.4c-0.1-0.4-0.1-0.8-0.3-1.2
				c-0.1-0.2-0.3-0.3-0.3-0.6c0-0.1-0.3-0.1-0.4-0.2c-0.2-0.3-0.5-0.5-0.6-0.9c-0.1-0.3-0.4-0.5-0.7-0.5c0,0,0,0,0,0
				c0,0,0,0.1,0.1,0.1c0.2,0.2,0.2,0.4-0.1,0.5c0,0,0,0,0,0c-0.2,0.1-0.3,0.1-0.5,0.2c-0.2,0.1-0.4,0.2-0.5,0.4
				c-0.1,0-0.1,0.2-0.1,0.3c0.2,0.4,0,0.6-0.3,0.9c-0.1,0.1-0.3,0.3-0.4,0.5c-0.3,0.4-0.5,0.9-0.8,1.4c-0.1,0.1,0,0.2-0.1,0.3
				c-0.1,0.1-0.2,0.2-0.2,0.3c-0.1,0.1-0.1,0.2-0.2,0.2c-0.1,0.1-0.1,0.1-0.2,0.2c-0.2,0.1-0.3,0.4-0.2,0.7c0.1,0.4,0.2,0.8,0.2,1.2
				c-0.1,0.5-0.1,1,0,1.4c0,0,0,0.1-0.1,0.1c-0.1,0.2-0.2,0.4-0.4,0.5c-0.1,0.1-0.1,0.2-0.1,0.3c-0.1,0.1-0.1,0.2-0.2,0.4
				c-0.1,0.1-0.2,0.3-0.3,0.4c-0.1,0-0.3-0.1-0.3-0.2c-0.2-0.2-0.3-0.5-0.4-0.8c-0.2-0.4-0.4-0.8-0.6-1.2c-0.2-0.4-0.4-0.8-0.5-1.3
				c-0.1-0.2-0.3-0.4-0.3-0.6c-0.3-0.6-0.5-1.2-0.8-1.9c-0.1-0.4-0.2-0.9-0.3-1.4c-0.1-0.3-0.2-0.6-0.3-1c0,0,0,0-0.1,0
				c0,0.1-0.1,0.2-0.1,0.2c0.1,0.3-0.1,0.5-0.3,0.7c-0.2,0.2-0.4,0.1-0.6,0c-0.2-0.2-0.4-0.4-0.7-0.6c0,0-0.1-0.1-0.1-0.1
				c0,0,0.1,0,0.1,0c0.2-0.1,0.3-0.2,0.4-0.3c0,0,0.1-0.1,0.1-0.2c-0.1,0-0.1,0-0.2,0c-0.3,0.2-0.7,0-0.9-0.3c0-0.1-0.2-0.1-0.3-0.1
				c-0.1-0.1-0.2-0.2-0.3-0.3c-0.1-0.1-0.2-0.2-0.3-0.3c-0.1-0.1-0.1-0.2-0.2-0.3c-0.1-0.1-0.2-0.1-0.3-0.1c-0.3,0.1-0.7,0.1-1,0.2
				c-0.4,0.1-0.7,0.1-1.1,0.2c-0.3,0-0.6,0-0.8,0c-0.1,0-0.2,0-0.3,0c-0.5-0.1-1-0.1-1.5-0.2c-0.1,0-0.2-0.3-0.3-0.4
				c-0.1-0.4-0.3-0.5-0.7-0.3c-0.1,0.1-0.3,0.1-0.3,0.2c-0.3,0.3-0.6,0.1-0.8,0c-0.3-0.1-0.5-0.3-0.7-0.4c-0.1-0.1-0.2-0.2-0.4-0.2
				c-0.3,0-0.4-0.2-0.5-0.5c-0.2-0.3-0.4-0.6-0.6-0.9c0,0-0.1,0-0.2,0c-0.1,0-0.2,0-0.3-0.1c0,0-0.1-0.1-0.1-0.1
				c0,0.1,0,0.1-0.1,0.2c-0.1,0.1-0.2,0.1-0.3,0.1c0,0-0.1,0-0.1,0c0,0,0.1,0,0.1,0.1c0,0,0,0.1,0,0.1c-0.5,0.1-0.1,0.3,0,0.5
				c0.2,0.5,0.5,1,1,1.3c0.1,0.1,0.1,0.3,0.1,0.4c0,0,0,0.1,0,0.1c0.1,0.2,0.2,0.4,0.3,0.6c0,0,0.1,0.1,0.1,0.1c0,0,0-0.1,0-0.1
				c0-0.2,0-0.4,0.1-0.6c0,0,0.1-0.1,0.1-0.1c0.1,0.1,0.2,0.1,0.2,0.2c0,0.2,0,0.5-0.1,0.7c0,0.1,0,0.2,0,0.2
				c0.2,0.1,0.3,0.2,0.5,0.2c0.2,0,0.5-0.1,0.7-0.1c0.3,0,0.5-0.1,0.7-0.4c0.1-0.3,0.4-0.5,0.6-0.7c0.1-0.1,0.2-0.2,0.3-0.3
				c0,0.1,0,0.3,0.1,0.4c0.2,0.8,0.3,0.9,1.1,1.1c0.2,0,0.3,0.2,0.5,0.3c0.1,0.1,0.3,0.2,0.4,0.4c0,0,0.1,0.1,0.1,0.2
				c-0.2,0.4-0.4,0.8-0.6,1.2c0,0,0,0-0.1,0c-0.3,0-0.5,0.3-0.4,0.6c0.1,0.3,0,0.4-0.3,0.4c-0.1,0-0.2,0.2-0.4,0.4
				c-0.1,0.1-0.2,0.2-0.3,0.3c-0.3,0.1-0.5,0.1-0.5,0.4c0,0.1-0.2,0.2-0.3,0.2c-0.5,0.2-0.9,0.3-1.4,0.5c-0.1,0-0.1,0.1-0.1,0.2
				c0.1,0.4-0.3,0.4-0.6,0.6c-0.3,0.1-0.6,0.2-0.9,0.3c-0.2,0.1-0.4,0.2-0.6,0.3c-0.1,0-0.1,0.1-0.2,0.1c-0.6,0.1-1.1,0.3-1.6,0.4
				c-0.1,0-0.2,0.1-0.3,0.1c-0.3,0.1-0.5,0.3-0.8,0.3c-0.3,0.1-0.5-0.1-0.5-0.4c-0.1-0.3-0.1-0.6-0.2-0.9c0-0.3,0-0.6-0.1-0.9
				c-0.1-0.3-0.2-0.6-0.4-0.9c-0.2-0.4-0.4-0.8-0.7-1.2c-0.2-0.2-0.4-0.4-0.6-0.6c-0.2-0.2-0.3-0.4-0.4-0.7
				c-0.1-0.4-0.1-0.8-0.2-1.2c-0.1-0.2-0.3-0.4-0.5-0.6c-0.1-0.1-0.2-0.3-0.2-0.4c-0.1-0.2-0.2-0.5-0.3-0.7c-0.2-0.3-0.3-0.7-0.5-1
				c-0.1-0.1-0.2-0.2-0.3-0.4c0,0-0.1-0.1,0-0.2c0-0.2,0.1-0.3,0.2-0.5c0,0,0-0.1,0-0.1c0,0-0.1,0-0.1,0.1c-0.1,0.2-0.2,0.4-0.3,0.7
				c0,0.1-0.1,0.2-0.1,0.2c-0.1-0.1-0.2-0.1-0.2-0.2c-0.2-0.3-0.3-0.7-0.4-1c0-0.1-0.1-0.1-0.1-0.1c0,0.1-0.1,0.2-0.1,0.2
				c0.1,0.3,0.3,0.7,0.4,1c0.1,0.2,0.1,0.4,0.2,0.6c0.2,0.6,0.5,1.3,0.7,1.9c0,0,0,0.1,0,0.1c-0.1,0.4,0,0.7,0.3,0.9
				c0.5,0.3,0.4,0.9,0.5,1.3c0,0.3,0,0.5,0,0.8c0.1,0.2,0.2,0.5,0.4,0.6c0.4,0.3,0.4,0.7,0.6,1.2c0.1,0.3,0.2,0.6,0.3,0.8
				c0,0,0.1,0,0.1,0c0.1,0,0.1,0,0.2,0c0.1,0.1,0.3,0.1,0.5,0.3c0.3,0.3,0.6,0.6,0.9,0.8c0.1,0.1,0.3,0.2,0.4,0.4
				c0.1,0.1,0.3,0.3,0.3,0.4c-0.1,0.1-0.3,0.2-0.5,0.3c0,0-0.1,0-0.1,0c0.1,0,0.1,0.1,0.2,0.1c0.4-0.1,0.5,0.1,0.6,0.3
				c0.3,0.4,0.6,0.5,1.1,0.3c0.2-0.1,0.4-0.1,0.6-0.1c0.1,0,0.1,0,0.2,0c0.4-0.1,0.7-0.2,1.1-0.3c0.3-0.1,0.6-0.1,0.9-0.2
				c0.2,0,0.3-0.2,0.5-0.2c0.1,0,0.2,0,0.3,0c0,0.1,0,0.1,0,0.2c0,0.1,0,0.2,0,0.2c-0.1,0.4-0.1,0.9-0.3,1.3
				c-0.2,0.5-0.6,0.9-0.8,1.4c-0.4,1-1.1,1.8-1.9,2.5c-0.2,0.2-0.4,0.3-0.6,0.4c-0.9,0.5-1.6,1.2-2.2,1.9c-0.2,0.3-0.6,0.4-0.8,0.7
				c-0.1,0.1-0.2,0.3-0.3,0.5c-0.2,0.3-0.3,0.7-0.6,1c-0.2,0.4-0.1,0.6,0.2,0.8c0.1,0,0.1,0.2,0.1,0.2c0,0.2-0.1,0.4,0,0.6
				c0.1,0.3,0.3,0.7,0.5,1c0.2,0.2,0.3,0.3,0.2,0.6c0,0.2,0,0.4,0,0.5c0.1,0.4,0.2,0.8,0.2,1.1c0,0.1-0.1,0.3-0.1,0.4
				c-0.3,0.3-0.6,0.6-1.1,0.7c-0.3,0.1-0.7,0.3-1,0.5c-0.3,0.2-0.6,0.4-0.9,0.6c-0.1,0.1-0.1,0.3-0.1,0.3c0.2,0.3,0.4,0.7,0.5,1
				c0.1,0.1,0.1,0.3,0,0.5c0,0.1-0.2,0.2-0.3,0.2c-0.3,0.1-0.6,0.1-0.8,0.2c-0.2,0-0.3,0.1-0.1,0.3c0.2,0.2,0,0.8-0.2,0.9
				c-0.1,0.1-0.3,0.2-0.4,0.3c-0.5,0.6-1.1,1-1.9,1c-0.5,0-1-0.1-1.5-0.2c-0.3,0-0.5,0-0.8,0c-0.6,0.1-1.1-0.3-1.4-0.7
				c-0.5-0.8-1.2-1.4-1.9-2c-0.3-0.3-0.6-0.8-0.9-1.2c-0.3-0.4-0.4-0.9-0.7-1.3c-0.3-0.4-0.6-0.7-0.9-1.1c-0.2-0.3-0.5-0.6-0.7-0.9
				c-0.3-0.4-0.4-0.9-0.4-1.4c0-0.3,0-0.5,0.1-0.8c0-0.2,0.1-0.3,0.3-0.5c0.2-0.2,0.2-0.7,0-1c-0.1-0.2-0.2-0.4-0.3-0.6
				c0-0.1,0-0.2,0-0.4c0-0.1,0-0.2,0-0.3c-0.2-0.4-0.3-0.7-0.5-1c0,0,0-0.1-0.1-0.1l-0.2-0.7c-0.4-0.5-0.7-1-1.1-1.5
				c-0.2-0.4-0.4-0.8-0.6-1.2c-0.1-0.1,0.1-0.4,0.2-0.6c0,0,0-0.1,0-0.1c0-0.2-0.1-0.4,0-0.6c0.2-0.5,0.2-1,0-1.4
				c-0.1-0.2-0.3-0.5-0.5-0.6c-0.2-0.1-0.5,0-0.7,0c-0.4,0-0.6-0.2-0.6-0.5c0-0.1,0-0.2-0.1-0.3c-0.3-0.7-0.8-1-1.5-0.9
				c-0.4,0-0.8,0.2-1.3,0.3c-0.1,0-0.2,0-0.2-0.1c-0.5-0.4-1-0.7-1.7-0.5c-0.1,0-0.2,0-0.2-0.1c-0.3-0.6-0.7-1.2-0.9-1.9
				c-0.2-0.3-0.3-0.7-0.4-1C106.5,68.6,106.6,68.5,106.6,68.3C106.6,68.3,106.6,68.3,106.6,68.3z M138.7,56.6
				c0.3-0.1,0.5-0.1,0.8-0.2c0.1,0,0.4,0,0.2-0.2c0,0,0.1-0.1,0.1-0.1c0,0,0.1,0,0.1-0.1c0,0-0.1,0-0.1,0c-0.1,0-0.1-0.1-0.1-0.1
				c0-0.1,0-0.2,0-0.2c-0.1-0.3-0.1-0.5,0.2-0.7c0,0,0-0.1,0.1-0.1c-0.3-0.1-0.5-0.2-0.8-0.3c-0.1,0-0.2-0.1-0.1-0.1
				c0-0.1,0.1-0.2,0.2-0.2c0.2,0,0.3,0,0.5,0c0.1,0,0.2-0.1,0.2-0.1c0-0.1-0.1-0.1-0.1-0.2c-0.1-0.1-0.2-0.2-0.3-0.3
				c-0.1-0.3-0.3-0.2-0.5-0.1c-0.1,0-0.1,0.1-0.2,0.1c0-0.1-0.1-0.2,0-0.3c0.1-0.2,0-0.3-0.2-0.3c-0.1,0-0.1-0.1-0.2-0.2
				c0-0.1,0-0.2,0-0.2c-0.2-0.1-0.4-0.3-0.6-0.4c0,0-0.1-0.1-0.1-0.1c0.1,0,0.1,0,0.2,0c0.1,0,0.3,0,0.4,0c0.2,0,0.3,0.1,0.5,0.1
				c0.1,0,0.2,0,0.3-0.1c0.1-0.1,0.3-0.2,0.4-0.3c0.1-0.1,0.3-0.2,0.4-0.3c0.1-0.1,0.1-0.3,0-0.4c-0.1-0.2-0.3-0.4-0.5-0.6
				c-0.3-0.3-0.6-0.6-0.9-0.8c0,0-0.1,0-0.1,0c-0.1,0-0.2,0-0.3-0.1c-0.3-0.2-0.7-0.2-0.7,0c-0.1,0.2-0.2,0.3-0.4,0.3c0,0,0,0-0.1,0
				c-0.1,0-0.3,0-0.4,0c-0.1,0-0.1,0-0.2,0c0,0,0.1,0.1,0.1,0.1c0,0.1,0,0.1,0,0.2c-0.1,0-0.3-0.1-0.4-0.1c-0.1-0.1-0.2-0.2-0.4-0.2
				c-0.1,0-0.2,0-0.3,0c0.1,0,0.2,0.1,0.3,0.1c0,0,0.1,0,0.1,0.1c0,0,0.1,0,0.1,0.1c0,0-0.1,0-0.1,0.1c0,0-0.1,0-0.1,0.1
				c0.1,0,0.1,0.1,0.2,0.1c0.1,0,0.4-0.2,0.2,0.1c0,0,0,0,0.1,0.1c0.1,0.1,0.1,0.2,0.2,0.2c-0.1,0-0.3,0-0.4,0
				c-0.1,0-0.1-0.1-0.2-0.1c0,0.1-0.1,0.2-0.1,0.3c0.1,0.2,0.3,0.4,0.3,0.7c0,0.3,0.1,0.6,0.4,0.8c0.5,0.5,0.8,1,1.2,1.5
				c0.1,0.1,0.2,0.2,0.3,0.2c0,0,0,0,0.1,0c-0.2,0.1-0.3,0.3-0.5,0.3c-0.1,0-0.3-0.1-0.4-0.2c0,0-0.1,0-0.1,0c0,0.1-0.1,0.2-0.1,0.3
				c0.1,0,0.1,0,0.2,0c0.1,0,0.3,0,0.3,0.1c0.1,0.3,0.1,0.7,0.2,1c0,0.2,0.2,0.3,0.3,0.4c0.2,0.1,0.4,0.2,0.6,0.2
				C138.3,56.4,138.5,56.5,138.7,56.6z M129.6,50.6c-0.2,0-0.9,0.5-0.9,0.7c0,0.1-0.2,0.2-0.3,0.3c-0.1,0.1-0.2,0.2-0.3,0.3
				c-0.1,0.1-0.2,0.3-0.3,0.4c-0.3,0.2-0.4,0.5-0.3,0.9c0.1,0.1,0.2,0.3,0.4,0.3c0.5,0.2,1,0.2,1.4-0.1c0.6-0.4,1.2-0.2,1.7,0.1
				c0.3,0.1,0.5,0.3,0.8,0.3c0.3,0.1,0.5,0,0.8,0c0.3,0,0.5,0,0.8-0.1c0.4-0.2,0.5-0.6,0.1-0.9c-0.2-0.2-0.4-0.3-0.7-0.5
				c-0.3-0.2-0.6-0.4-0.8-0.6c-0.1-0.1-0.2-0.2-0.3-0.3c0.1,0,0.2,0,0.2-0.1c0.1-0.1,0.4-0.4,0.4-0.4c-0.2-0.4,0.3-0.2,0.3-0.4
				c0,0,0.1,0,0.1,0c0,0,0-0.1,0.1-0.1c0,0-0.1,0-0.1,0c-0.5,0.1-1,0.2-1.5,0.4c-0.1,0-0.3,0.2-0.3,0.3c0,0.2,0.1,0.4,0.4,0.3
				c0,0,0.1,0,0.2,0c-0.1,0-0.1,0.1-0.1,0.1c-0.3,0.1-0.6,0.2-0.9,0.3c-0.1,0-0.1,0-0.2,0c0,0,0-0.1,0-0.2c0-0.1,0-0.2-0.1-0.2
				c0-0.1-0.1-0.1-0.2-0.2c0.1,0,0.2-0.1,0.3-0.1c0.1,0,0.1-0.1,0.2-0.1c-0.1,0-0.2-0.1-0.3-0.1c-0.1,0-0.2,0-0.2,0
				c-0.1,0-0.1-0.1-0.1-0.1C129.8,50.6,129.8,50.6,129.6,50.6z M142,50.7c-0.1,0-0.2,0.1-0.2,0.1c0,0,0.1,0.1,0.1,0.1
				c0.1,0,0.1,0.1,0.2,0.1c-0.1,0-0.2,0.1-0.2,0.1c-0.1,0-0.2,0-0.3,0c0,0.2-0.1,0.2-0.3,0.3c-0.1,0-0.2,0.3-0.2,0.4
				c0,0.2,0.1,0.4,0.3,0.4c0.2,0.1,0.5,0.3,0.7,0c0.1-0.1,0.1-0.3,0.2-0.4c0.2-0.2,0.1-0.2-0.1-0.4c-0.1-0.1-0.1-0.3-0.1-0.3
				C142.5,50.6,142,50.9,142,50.7z M125.7,60.6c0,0,0.1-0.1,0.1-0.1c0.2-0.2,0.3-0.4,0.5-0.6c0,0,0.1,0,0.1,0
				c-0.1,0-0.1-0.1-0.2-0.1c-0.5-0.1-0.9,0.1-1.2,0.5c-0.2,0.3,0,0.2,0.2,0.3C125.4,60.7,125.5,60.6,125.7,60.6z M154.3,45.9
				C154.3,45.9,154.3,45.9,154.3,45.9c-0.1,0.1-0.1,0.1-0.1,0.2C154.3,46,154.3,45.9,154.3,45.9c0-0.1,0-0.3,0-0.5
				c0-0.2,0-0.3-0.1-0.4c-0.2-0.3-0.5-0.5-0.7-0.8c-0.1-0.1,0-0.2,0-0.3c0-0.1,0-0.1,0-0.2c0,0,0,0-0.1,0c0,0.2,0,0.3,0,0.5
				c0,0.1,0.2,0.2,0.2,0.3C153.8,44.9,154.1,45.4,154.3,45.9z M132.6,70.8c-0.1-0.2-0.3-0.5-0.4-0.7c0,0-0.1,0-0.2,0
				c0.1,0.3,0.1,0.5,0.2,0.8c0,0.1,0.2,0.1,0.3,0.2C132.5,71,132.5,70.9,132.6,70.8z M148.5,50c0,0,0,0.1,0,0.1c0.2,0,0.3,0,0.5-0.1
				c0,0,0-0.1,0.1-0.1c0,0-0.1,0-0.1,0c-0.3,0-0.6,0.1-0.9,0.1c-0.4,0-0.8,0.3-0.8,0.6c0,0.1,0.1,0.1,0.1,0.2c0,0,0.1,0,0.1,0
				c0-0.1-0.1-0.1-0.1-0.2c0-0.1,0-0.3,0.1-0.3C147.8,50.2,148.2,50.1,148.5,50z M136.4,59.9c0.1,0.1,0.1,0.1,0.2,0.2
				c0-0.1,0-0.2,0-0.2c0-0.1,0-0.2,0-0.3c-0.1,0.1-0.1,0.1-0.2,0.2c0,0-0.1,0-0.1,0c-0.1,0-0.2,0-0.2,0.1c-0.1,0.1-0.1,0.2-0.1,0.3
				c0.1,0,0.2,0,0.4,0.1C136.4,60,136.4,60,136.4,59.9C136.4,59.9,136.4,59.9,136.4,59.9z M130.2,58.7c0-0.1,0-0.1-0.1-0.1
				c0,0-0.1,0.1-0.1,0.1c-0.1,0.4-0.2,0.7-0.3,1.1c0,0.1,0,0.1,0,0.2c0.1,0,0.1-0.1,0.2-0.1C130.1,59.5,130.1,59.1,130.2,58.7z"/>
			<path class="st0" d="M136.6,37.6c-0.9-0.1-1.8-0.2-2.7-0.2c-0.1,0-0.2-0.1-0.3-0.2c0,0,0-0.1,0-0.1c0,0,0-0.1,0-0.1
				c0,0,0,0-0.1-0.1c0,0,0.1-0.1,0.1-0.1c0,0,0.1-0.1,0.1-0.1c-0.1,0-0.1-0.1-0.2,0c-0.3,0.1-0.5,0.2-0.8,0.3c0,0,0,0-0.1,0
				c0,0,0.1,0,0.1,0c0.1,0,0.1,0,0.2,0c-0.1,0-0.1,0.1-0.2,0.1c-0.5,0.1-1,0.2-1.5,0.3c-0.2,0-0.3,0.1-0.5,0.2c-1,0.3-2.1,0.7-3.1,1
				c-0.2,0.1-0.4,0.2-0.6,0.3c-0.1,0-0.2,0-0.3,0c0.1-0.1,0.1-0.1,0.2-0.2c0,0,0,0,0.1-0.1c0,0-0.1,0-0.1,0
				c-0.3,0.1-0.6,0.3-0.9,0.4c-0.2,0.1-0.4,0-0.5,0.1c-0.5,0.1-1.1,0.2-1.6,0.3c-1,0.1-1.9,0.6-2.8,1.1c-0.1,0-0.2,0-0.3,0.1
				c0.1-0.1,0.1-0.2,0.2-0.2c1.2-1,2.6-1.7,4-2.2c0.4-0.2,0.8-0.3,1.2-0.5c1.6-0.5,3.3-1,4.9-1.4c2.6-0.6,5.2-0.7,7.9-0.6
				c2.3,0.1,4.6,0.5,6.9,1.2c0.2,0.1,0.2,0.1,0.1,0.2c0,0,0,0,0.1,0.1c0.1,0,0.2,0,0.3,0.1c0.1,0,0.2,0.1,0.3,0.2c0,0,0,0,0,0
				c-0.1,0-0.3,0-0.4-0.1c-0.4-0.1-0.9-0.1-1.3-0.2c0,0-0.2,0.1-0.1,0.1c0,0.1,0.1,0.2,0.1,0.3c0,0,0.1,0.1,0.1,0.1c0,0-0.1,0-0.1,0
				c-0.8-0.1-1.6-0.3-2.4-0.4c-0.3,0-0.5-0.1-0.8-0.1c-0.1,0-0.4,0-0.3,0.3c0,0-0.1,0.1-0.1,0.1c-0.1-0.1-0.2-0.2-0.3-0.3
				c0,0,0-0.1-0.1-0.1c-0.4,0.1-0.7,0.2-1.1,0.3c-0.3,0-0.6,0.1-0.8,0c-0.4-0.2-0.8-0.2-1.2-0.2C137.3,37.5,137,37.6,136.6,37.6z"/>
			<path class="st0" d="M135.5,91c0,0,0-0.1-0.1-0.2c-0.2-0.3-0.2-0.5,0.1-0.7c0.3-0.3,0.4-0.7,0.2-1.2c-0.1-0.3-0.1-0.5,0-0.8
				c0.3-0.5,0.7-0.4,1.1-0.4c0,0,0-0.1,0.1-0.1c0.1-0.1,0.2-0.1,0.3-0.2c0,0,0,0,0.1,0c0.1-0.1,0.3-0.2,0.4-0.4
				c0.1-0.1,0.1-0.3,0.1-0.5c0,0,0.1,0,0.1,0c0.2,0,0.5-0.2,0.5-0.5c0-0.1,0.1-0.2,0.1-0.2c0.1,0,0.2,0.1,0.2,0.1
				c0.2,0.4,0.3,0.9,0.5,1.3c0,0.1-0.1,0.2-0.1,0.3c0,0-0.1-0.1-0.1-0.1c0,0-0.1-0.1-0.1-0.1c0,0-0.1,0.1-0.1,0.1
				c0.1,0.7-0.3,1.3-0.5,2c-0.3,0.7-0.5,1.3-0.8,1.9c-0.1,0.1-0.3,0.2-0.4,0.3c-0.1,0.1-0.3,0.1-0.5,0.1
				C136.2,91.9,135.4,91.5,135.5,91z"/>
			<path class="st0" d="M165.4,75.1c-0.1,0.4-0.1,0.9-0.2,1.3c0,0.1-0.2,0.2-0.3,0.3c0-0.1-0.1-0.1-0.1-0.2c-0.2-0.3-0.5-0.6-0.6-1
				c-0.2-0.3-0.2-0.7-0.3-1.1c-0.1-0.3-0.2-0.6-0.3-0.9c0,0,0-0.1-0.1-0.1c-0.1-0.1-0.2-0.3-0.4-0.4c-0.2-0.2-0.4-0.4-0.6-0.6
				c-0.1-0.1-0.1-0.2-0.2-0.4c0-0.1,0-0.2,0-0.2c0,0,0.1,0,0.2,0c0.1,0,0.2,0,0.2,0c0.3-0.2,0.4,0,0.6,0.2c0.1,0.1,0.2,0.2,0.3,0.3
				c0.1,0.1,0.2,0.2,0.3,0.3c0.1,0.1,0.1,0.3,0.3,0.2c0,0,0.1,0.1,0.2,0.2c0.1,0,0.2,0,0.2,0.1c0.1,0.1,0.2,0.2,0.3,0.3
				c0,0.1,0,0.3,0,0.5c0,0.1,0.1,0.1,0.1,0.2c0,0,0.1,0,0.1,0C165.1,74.5,165.2,74.8,165.4,75.1z"/>
			<path class="st0" d="M166.4,73.7c0-0.3-0.1-0.6-0.1-1c0-0.3,0-0.6,0.1-0.9c0,0,0.1-0.1,0.1-0.1c0.3,0,0.3-0.2,0.3-0.4
				c0.1-0.2,0.1-0.4,0.2-0.6c0.1-0.3,0.2-0.6,0.3-1c0.1-0.6,0.3-1.2,0.4-1.8c0-0.1,0.1-0.1,0.1-0.2c0,0.1,0.1,0.1,0.1,0.2
				c0,0.1,0.1,0.1,0.1,0.2c0,0.1,0.1,0.2,0.1,0.2c0,0.4-0.1,0.8-0.2,1.2c0,0.3,0.1,0.6,0.1,0.9c0,0.1,0,0.1,0,0.2
				c-0.2,0.9-0.3,1.8-0.5,2.8c0,0.2-0.2,0.4-0.2,0.6c0,0-0.1,0-0.1,0c0,0-0.1-0.1-0.1-0.1c-0.1,0-0.1,0-0.2,0.1
				c-0.1,0.2-0.1,0.2-0.3,0.1c0,0,0,0,0,0C166.4,74.1,166.4,74.1,166.4,73.7z"/>
			<path class="st0" d="M123.4,43.6c0.2,0.1,0.3,0.1,0.3,0.1c-0.1,0-0.2,0.1-0.2,0.1c-0.1,0-0.2,0.1-0.2,0.1c0.1,0,0.2,0,0.2,0.1
				c0,0,0.1,0.1,0.1,0.1c0,0-0.1,0.1-0.1,0.1c-0.2,0.1-0.4,0.3-0.6,0.4c0,0,0,0-0.1,0.1c0.3,0.2,0,0.3,0,0.5
				c-0.1,0.2-0.1,0.5-0.2,0.7c0,0,0,0.1,0,0.1c-0.1,0.1-0.1,0.2,0.1,0.2c0,0,0.1,0.2,0,0.2c-0.1,0.1-0.2,0.2-0.4,0.3
				c-0.1,0.1-0.4,0-0.2,0.3c-0.2,0-0.3,0.1-0.5,0.1c-0.3,0-0.5-0.1-0.8-0.1c-0.2,0-0.4,0.1-0.6,0.1c0,0-0.1,0-0.1,0
				c0,0,0-0.1,0.1-0.1c0.3-0.1,0.5-0.2,0.8-0.3c0.1,0,0.1-0.1,0.2-0.1c0,0-0.1,0-0.1,0c-0.1-0.1-0.2-0.2-0.2-0.3
				c0.1,0,0.2-0.1,0.3-0.1c0,0,0.1,0,0.1,0c0.2-0.4,0.7-0.4,0.9-0.6c0.1-0.1,0.2-0.3,0.3-0.4c0,0,0,0-0.1,0c-0.1,0-0.1-0.1-0.2-0.1
				c0-0.1,0.1-0.1,0.1-0.2c0.1-0.2,0.2-0.4,0.4-0.6C122.8,44,123.2,43.8,123.4,43.6z"/>
			<path class="st0" d="M155.7,72.4c0-0.3,0-0.7,0-1c0,0,0.1,0,0.1,0c0.2,0.2,0.4,0.5,0.6,0.7c0.1,0.1,0.1,0.2,0.2,0.3
				c0.3,0.4,0,1.1-0.5,1.2c-0.1,0-0.2-0.1-0.2-0.2C155.7,73.1,155.7,72.8,155.7,72.4C155.6,72.4,155.6,72.4,155.7,72.4z"/>
			<path class="st0" d="M120,46.2c-0.1-0.1-0.1-0.1-0.1-0.2c0-0.1,0-0.1,0.1-0.2c0.2-0.1,0.4-0.2,0.6-0.4c0.1-0.1,0.2-0.3,0.2-0.4
				c0,0,0-0.1,0-0.1c0.3-0.1,0.6-0.2,0.9-0.2c0.1,0,0.1,0.1,0.2,0.1c-0.1,0.1-0.1,0.2-0.2,0.3c-0.2,0.2-0.4,0.4-0.6,0.6
				C120.8,45.9,120.4,46.1,120,46.2z"/>
			<path class="st0" d="M165.6,76.4c0.4,0.2,0.5,0,0.6-0.3c0.1-0.2,0.3-0.2,0.5-0.3c0,0,0,0.1,0,0.1c-0.1,0.1-0.1,0.1-0.2,0.2
				c0,0,0,0.1,0,0.2c0,0,0.1-0.1,0.1-0.1c0.1,0,0.2,0,0.2,0c0,0.1,0,0.2-0.1,0.2c-0.2,0.2-0.3,0.3-0.5,0.4c-0.3,0.2-0.7,0.3-1.1,0.5
				c0,0-0.1,0-0.1,0c-0.1-0.1-0.1-0.2-0.1-0.3C165.1,76.6,165.3,76.5,165.6,76.4z"/>
			<path class="st0" d="M123.5,41c0.2-0.2,0.4-0.3,0.6-0.5c0.1-0.1,0.2-0.2,0.2-0.2c0.1,0,0.3-0.1,0.3-0.1c0.1,0.3,0.4,0.2,0.6,0.2
				c0,0,0.1,0,0.1,0c0,0,0,0.1,0,0.1c-0.1,0.3-0.4,0.4-0.7,0.5c-0.2,0-0.5,0.1-0.7,0.1C123.7,41.2,123.7,41.1,123.5,41z"/>
			<path class="st0" d="M138.6,40.5c0,0-0.1-0.1-0.2-0.1s-0.2-0.1-0.3-0.1c-0.1,0-0.1,0-0.2-0.1c0,0,0.1-0.1,0.1-0.1
				c0.1-0.2,0.2-0.3,0.2-0.5c0-0.2,0.6-0.7,0.9-0.7c0.2,0,0.3-0.1,0.5-0.2c0.1,0,0.2,0,0.3,0c0,0,0.1,0.1,0.1,0.1
				c-0.1,0.1-0.1,0.1-0.2,0.1c-0.4,0.1-0.8,0.4-1,0.8c-0.1,0.2-0.1,0.4,0.1,0.6c0.1,0.1,0.1,0.1,0.2,0.2
				C138.9,40.4,138.8,40.5,138.6,40.5z"/>
			<path class="st0" d="M167.4,61.9c0.1,0.3,0.2,0.7,0.3,1c0,0,0,0,0,0.1c0,0,0,0,0,0c0,0,0-0.1,0-0.1c0,0,0.1,0,0.1,0
				c0,0,0.1,0.1,0.1,0.1c0,0,0,0.1,0,0.1c0,0.1,0.1,0.2,0.1,0.3c-0.1-0.1-0.1-0.2-0.2-0.2c0,0-0.1,0-0.2,0.1c0,0,0,0.1-0.1,0.1
				c0,0-0.1-0.1-0.1-0.1c-0.1-0.3-0.2-0.6-0.3-0.9c-0.1-0.5-0.2-1-0.3-1.5c0,0,0-0.1,0.1-0.1c0.1,0,0.1,0,0.2,0.1
				C167.3,61.1,167.4,61.5,167.4,61.9C167.5,61.8,167.4,61.9,167.4,61.9z"/>
			<path class="st0" d="M168.1,72.8c0-0.1,0-0.2,0-0.3C168.1,72.6,168.1,72.7,168.1,72.8c-0.1,0.3-0.1,0.7-0.2,1
				c0,0-0.1,0.1-0.1,0.1c0,0,0-0.1,0-0.1c0.1-0.7,0.1-1.4,0.2-2.1c0-0.2,0.1-0.2,0.2-0.3c0.1-0.1,0.1-0.2,0.1-0.4c0,0,0-0.1,0.1-0.1
				c0,0,0,0.1,0,0.1c-0.1,0.6-0.2,1.3-0.3,1.9c0,0.1,0,0.1-0.1,0.1c0-0.1,0-0.1,0-0.2C168.1,72.9,168.1,72.9,168.1,72.8
				C168.1,72.8,168.1,72.8,168.1,72.8z"/>
			<path class="st0" d="M122.2,54.5c0.3,0,0.6,0,0.8,0.1c0,0,0,0.1,0,0.1c-0.1,0.2-0.2,0.3-0.2,0.5c0,0.1-0.1,0.1-0.2,0.2
				c0,0-0.1-0.1-0.2-0.1c-0.1-0.1-0.3-0.3-0.4-0.4c-0.1-0.1-0.1-0.2-0.2-0.2C122,54.5,122.1,54.4,122.2,54.5
				C122.2,54.4,122.2,54.5,122.2,54.5z"/>
			<path class="st0" d="M126,55.4c0,0.2,0,0.3-0.1,0.4c-0.1-0.1-0.2-0.2-0.3-0.2c-0.4,0,0-0.5-0.2-0.5c0.1-0.1,0.3-0.2,0.3-0.2
				c0.2,0,0.3,0.2,0.4,0.3c0,0,0,0.1,0,0.2C126.2,55.4,126.1,55.3,126,55.4C126,55.3,126,55.4,126,55.4z"/>
			<path class="st0" d="M134.5,38.4c0,0-0.1,0.1-0.1,0.1c-0.1,0-0.1,0-0.2,0c0,0,0-0.1,0-0.1c0,0,0-0.1,0-0.1c0,0-0.1,0-0.1,0
				c-0.2,0.1-0.4,0.2-0.6,0.3c0,0-0.1,0-0.2,0c0-0.1,0-0.1,0.1-0.2c0-0.1,0.1-0.2,0.1-0.3c0.1-0.2,0.3-0.2,0.5-0.2
				C134.5,37.8,134.3,38.2,134.5,38.4z"/>
			<path class="st0" d="M121.7,52.6c-0.2,0.4-0.3,0.7-0.5,0.9c-0.1,0.1-0.2,0.1-0.4,0.1c0-0.1,0-0.2,0.1-0.4c0-0.1,0.1-0.2,0.1-0.3
				c0-0.2,0.1-0.3,0.3-0.4C121.4,52.5,121.5,52.6,121.7,52.6z"/>
			<path class="st0" d="M165.3,61.7c0,0.3,0,0.5-0.1,0.7c0,0-0.2,0-0.3,0c0-0.3,0-0.6,0-0.9c0-0.1,0.1-0.1,0.2-0.2
				C165.2,61.5,165.2,61.6,165.3,61.7z"/>
			<path class="st0" d="M168.4,65.4c0-0.2,0-0.4,0-0.6c0,0,0,0,0-0.1c0,0,0.1,0,0.1,0.1c0,0.3,0.1,0.6,0.1,0.9c0,0.3,0,0.6,0,0.9
				c0,0.1,0,0.1-0.1,0.2c0-0.1-0.1-0.1-0.1-0.2c0-0.1,0-0.2,0-0.4c0-0.1,0-0.1,0-0.2c0,0,0,0.1-0.1,0.1c0,0-0.1,0-0.1,0
				c0,0,0-0.1,0-0.1C168.3,65.9,168.4,65.7,168.4,65.4z"/>
			<path class="st0" d="M165.8,57c0,0.1,0.1,0.1,0.1,0.1c0.1,0.5,0.3,0.9,0.4,1.4c0,0,0,0.1,0,0.1c0,0-0.1,0-0.1,0
				c-0.2-0.5-0.3-1-0.4-1.5C165.8,57.1,165.8,57.1,165.8,57z"/>
			<path class="st0" d="M163.5,50.4c0-0.1,0-0.1,0-0.1c0,0,0.1,0.1,0.1,0.1c0.2,0.4,0.4,0.8,0.6,1.2c0,0,0,0.1,0,0.1
				c0,0-0.1,0-0.1-0.1c0-0.1-0.1-0.3-0.1-0.3c-0.4-0.1-0.3-0.5-0.5-0.7C163.6,50.5,163.6,50.4,163.5,50.4z"/>
			<path class="st0" d="M130.3,57.5c-0.1-0.1-0.1-0.1-0.2-0.2c0.1-0.1,0.1-0.1,0.2-0.1c0.1,0,0.3-0.1,0.5-0.1c0,0,0.1,0,0.1,0
				c0,0.1,0,0.2,0,0.2C130.6,57.3,130.5,57.4,130.3,57.5z"/>
			<path class="st0" d="M126.9,57c-0.2-0.1-0.5-0.2-0.7-0.3c0,0-0.1-0.1-0.1-0.1c0.1,0,0.1,0,0.2,0c0.3,0.1,0.6,0.2,0.9,0.3
				c0,0,0,0,0,0C127.1,56.9,127,56.9,126.9,57z"/>
			<path class="st0" d="M133.8,70.8c0,0.1-0.1,0.2-0.1,0.2c-0.1-0.1-0.2-0.1-0.3-0.2c-0.1-0.2-0.1-0.5-0.2-0.8c0.1,0,0.2,0,0.2,0
				C133.5,70.3,133.6,70.6,133.8,70.8z"/>
		</g>
		<g>
			<path class="st0" d="M0.3,32.9h20l11.9,39.4l13.2-39.6h16.3l13.1,39.6l11.9-39.4h19.6l-22.8,68.6H66.9L53.2,62.3l-13.7,39.2H23.1
				L0.3,32.9z"/>
			<path class="st0" d="M137.3,36.2c8.9,0,17.1,3.2,23.1,9c5.8,5.7,9.1,13.4,9.1,21.8v0.2c0,17.4-14.2,31-32.3,31
				c-18.3,0-32.1-13.2-32.1-30.8v-0.2C104.9,49.8,119.1,36.2,137.3,36.2 M137.3,31.7c-21,0-36.8,15.9-36.8,35.4v0.2
				c0,19.6,15.6,35.2,36.6,35.2c21,0,36.8-15.9,36.8-35.4V67C173.9,47.4,158.3,31.7,137.3,31.7L137.3,31.7z"/>
			<path class="st0" d="M177,32.9h32.2c10.4,0,17.6,2.7,22.2,7.3c4,4,6,9.2,6,15.9v0.2c0,10.5-5.5,17.4-14,21l16.3,23.8H218
				l-13.7-20.6h-8.4v20.6H177L177,32.9L177,32.9z M208.5,65.7c6.3,0,10.1-3.1,10.1-8.1v-0.2c0-5.5-4-8.2-10.2-8.2h-12.5v16.5
				L208.5,65.7L208.5,65.7z"/>
			<path class="st0" d="M243.6,32.9h18.9v51.6h33v16.6h-51.9V32.9z"/>
			<path class="st0" d="M299,32.9h26.4c24.2,0,38.4,14,38.4,33.7v0.2c0,19.7-14.3,34.3-38.7,34.3h-26V32.9z M317.9,49.6v34.8h7.7
				c11.4,0,18.9-6.2,18.9-17.2v-0.2c0-10.9-7.5-17.3-18.9-17.3L317.9,49.6L317.9,49.6z"/>
		</g>
		<g>
			<polygon class="st0" points="164.3,161.1 164.3,150.3 197.1,150.3 197.1,135.4 164.3,135.4 164.3,125 200.5,125 200.5,109 
				145.7,109 145.7,151.2 154.3,177.2 201,177.2 201,161.1 			"/>
			<path class="st0" d="M150.3,177.5h-20L118.5,138l-13.2,39.6H89.1L75.9,138L64,177.5H44.5l22.8-68.6h16.5l13.6,39.2l13.7-39.2
				h16.5L150.3,177.5z"/>
			<path class="st0" d="M204.6,109H231c24.2,0,38.4,14,38.4,33.7v0.2c0,19.7-14.3,34.3-38.8,34.3h-26L204.6,109L204.6,109z
				 M223.5,125.7v34.8h7.7c11.4,0,18.9-6.2,18.9-17.2V143c0-10.9-7.5-17.3-18.9-17.3L223.5,125.7L223.5,125.7z"/>
			<path class="st0" d="M273.5,109h18.9v68.2h-18.9V109z"/>
			<path class="st0" d="M325,108.5h18.2l29,68.6H352l-4.9-12.3h-26.4l-4.9,12.3h-19.8L325,108.5z M341.6,150.2l-7.6-19.3l-7.7,19.3
				H341.6z"/>
		</g>
		<g>
			<path class="st0" d="M0,11.6L0,11.6C0,5.2,4.8,0,11.6,0c4.2,0,6.7,1.4,8.8,3.4L17.3,7c-1.7-1.6-3.5-2.5-5.7-2.5
				c-3.8,0-6.5,3.1-6.5,6.9v0.1c0,3.8,2.6,7,6.5,7c2.5,0,4.1-1,5.9-2.6l3.1,3.2c-2.3,2.5-4.8,4-9.1,4C4.9,23.1,0,18,0,11.6z"/>
			<path class="st0" d="M24.5,0.4h4.9v8.8h9V0.4h4.9v22.3h-4.9v-8.9h-9v8.9h-4.9V0.4z"/>
			<path class="st0" d="M56.3,0.2h4.5l9.6,22.5h-5.1l-2-5h-9.4l-2,5h-5L56.3,0.2z M61.5,13.3l-3-7.2l-3,7.2H61.5z"/>
			<path class="st0" d="M73.9,0.4h4.5l10.4,13.7V0.4h4.8v22.3h-4.2L78.7,8.5v14.2h-4.8V0.4z"/>
			<path class="st0" d="M99,0.4h4.5L114,14.1V0.4h4.8v22.3h-4.2L103.9,8.5v14.2H99V0.4z"/>
			<path class="st0" d="M124.2,0.4H141v4.4H129v4.5h10.5v4.4H129v4.7h12.1v4.4h-17C124.2,22.7,124.2,0.4,124.2,0.4z"/>
			<path class="st0" d="M145.5,0.4h4.9v17.8h11.1v4.5h-16V0.4z"/>
			<path class="st0" d="M174.1,18.9l12.3-14.3h-11.9V0.4h18.2v3.7l-12.3,14.3h12.3v4.3h-18.6L174.1,18.9L174.1,18.9z"/>
			<path class="st0" d="M197.3,0.4h16.8v4.4h-11.9v4.5h10.5v4.4h-10.5v4.7h12.1v4.4h-17L197.3,0.4L197.3,0.4z"/>
			<path class="st0" d="M218.7,0.4h10.2c2.8,0,5,0.8,6.5,2.3c1.2,1.2,1.9,3,1.9,5.1v0.1c0,3.6-1.9,5.9-4.8,6.9l5.4,8h-5.7l-4.8-7.1
				h-3.9v7.1h-4.9L218.7,0.4L218.7,0.4z M228.5,11.2c2.4,0,3.8-1.3,3.8-3.2V8c0-2.1-1.5-3.2-3.9-3.2h-4.9v6.4H228.5z"/>
			<path class="st0" d="M240.7,11.6L240.7,11.6c0-6.4,5-11.6,11.9-11.6c6.9,0,11.8,5.1,11.8,11.5v0.1c0,6.3-5,11.5-11.9,11.5
				C245.6,23.1,240.7,17.9,240.7,11.6z M259.3,11.6L259.3,11.6c0-3.9-2.8-7.1-6.8-7.1c-4,0-6.7,3.1-6.7,6.9v0.1c0,3.8,2.8,7,6.8,7
				C256.5,18.5,259.3,15.4,259.3,11.6z"/>
		</g>
	</g>
</g>
</svg>
