<?xml version="1.0" encoding="utf-8"?>
<!-- Generator: Adobe Illustrator 19.2.1, SVG Export Plug-In . SVG Version: 6.00 Build 0)  -->
<svg version="1.1" id="Layer_1" xmlns="http://www.w3.org/2000/svg" xmlns:xlink="http://www.w3.org/1999/xlink" x="0px" y="0px"
	 viewBox="0 0 430.9 96.7" style="enable-background:new 0 0 430.9 96.7;" xml:space="preserve">
<style type="text/css">
	.st0{fill:#FFFFFF;}
	.st1{display:none;fill:#FFFFFF;}
</style>
<g id="CONCEPT_2">
	<g>
		<path class="st0" d="M28.2,0.5v32.3c0,10.1-5.3,16.8-15.9,16.8C7,49.6,2.8,46.9,0,42.5l7.2-7.6c1.4,1.9,3.4,4.1,5,4.1
			c3.7,0,3.6-4.4,3.6-7.1V0.3L28.2,0.5L28.2,0.5z"/>
		<path class="st0" d="M90.3,0.5v26.9c0,6.2-0.3,12.3-5,16.9c-4,3.9-10.3,5.3-15.9,5.3s-11.9-1.4-15.9-5.3c-4.8-4.6-5-10.7-5-16.9
			V0.5h12.4v25.2c0,6.2,0.4,13,8.4,13s8.4-6.8,8.4-13V0.5L90.3,0.5L90.3,0.5z"/>
		<path class="st0" d="M110.9,0.5h12.5l22.8,29.3h0.1V0.5h12.5v47.9h-12.5l-22.8-29.3h-0.1v29.3h-12.5V0.5L110.9,0.5z"/>
		<path class="st0" d="M213.8,16.6c-2.5-3.4-6.7-5.3-10.9-5.3c-7.6,0-12.8,5.8-12.8,13.3c0,7.6,5.2,13,13,13c4.1,0,8.1-2,10.7-5.1
			v14.9c-4.1,1.3-7.1,2.2-11,2.2c-6.7,0-13-2.5-18-7.1c-5.3-4.8-7.7-11-7.7-18.1c0-6.5,2.5-12.8,7.1-17.5c4.7-4.8,11.5-7.8,18.2-7.8
			c4,0,7.7,0.9,11.4,2.4L213.8,16.6L213.8,16.6z"/>
		<path class="st0" d="M253.2,48.4h-12.5V11h-10.3V0.5h33V11h-10.3L253.2,48.4L253.2,48.4z"/>
		<path class="st0" d="M293.1,48.4h-12.5V0.5h12.5V48.4z"/>
		<path class="st1" d="M364.5,23.6c0,15.5-11.1,26.4-26.5,26.4c-15.4,0-26.5-10.9-26.5-26.4C311.5,9.1,324.2-1,338-1
			S364.5,9.1,364.5,23.6z M324.5,23.6c0,8.3,6.1,14.3,13.5,14.3c7.4,0,13.5-6,13.5-14.3c0-6.6-6.1-12.6-13.5-12.6
			C330.6,11,324.5,17,324.5,23.6z"/>
		<path class="st0" d="M383,0.5h12.5l22.8,29.3h0.1V0.5h12.5v47.9h-12.5l-22.8-29.3h-0.1v29.3H383V0.5z"/>
		<path class="st0" d="M131.6,65.7h6.1c9,0,16.4,4.7,16.4,14.5c0,10-7.3,14.8-16.5,14.8h-5.9L131.6,65.7L131.6,65.7z M135.3,91.6
			h1.3c7.5,0,13.9-2.8,13.9-11.3S144.1,69,136.6,69h-1.3V91.6z"/>
		<path class="st0" d="M169.1,95h-3.6V65.7h3.6V95z"/>
		<path class="st0" d="M209,80.2v1.2c0,8-5.7,14.2-13.9,14.2s-14.8-7.1-14.8-15.2c0-8.4,6.8-15.3,15.2-15.3c4.5,0,9,2.1,11.9,5.7
			l-2.6,2.4c-2.1-2.9-5.6-4.8-9.2-4.8c-6.6,0-11.7,5.3-11.7,11.9c0,6.1,5,12,11.4,12c4.5,0,9.4-3.9,9.6-8.7h-7.6v-3.3L209,80.2
			L209,80.2z"/>
		<path class="st0" d="M223.9,95h-3.6V65.7h3.6V95z"/>
		<path class="st0" d="M245,95h-3.6V69.1h-6.9v-3.3H252v3.3h-7V95L245,95z"/>
		<path class="st0" d="M263.6,87.6l-3.3,7.3h-3.9l14-30.5l14,30.5h-3.9l-3.3-7.3H263.6z M270.3,72.5l-5.2,11.8h10.4L270.3,72.5z"/>
		<path class="st0" d="M298.2,91.6h8.9v3.3h-12.5V65.6h3.6V91.6z"/>
	</g>
	<path class="st0" d="M339.4-0.7c-15.9,0-28.8,12.9-28.8,28.8s25,66.9,28.7,66.9c3.7,0,29-51,29-66.9
		C368.2,12.3,355.3-0.7,339.4-0.7z M339.4,47.6c-10.7,0-19.4-8.7-19.4-19.4c0-10.7,8.7-19.4,19.4-19.4c10.7,0,19.4,8.7,19.4,19.4
		S350.1,47.6,339.4,47.6z"/>
</g>
</svg>
