<?xml version="1.0" encoding="utf-8"?>
<!-- Generator: Adobe Illustrator 16.2.1, SVG Export Plug-In . SVG Version: 6.00 Build 0)  -->
<!DOCTYPE svg PUBLIC "-//W3C//DTD SVG 1.1//EN" "http://www.w3.org/Graphics/SVG/1.1/DTD/svg11.dtd">
<svg version="1.1" id="Layer_1" xmlns="http://www.w3.org/2000/svg" xmlns:xlink="http://www.w3.org/1999/xlink" x="0px" y="0px"
	 width="792px" height="612px" viewBox="0 0 792 612" enable-background="new 0 0 792 612" xml:space="preserve">
<g id="CONCEPT_2">
	<g>
		<path fill="#FFFFFF" d="M200.157,241.098v32.333c0,10.1-5.272,16.833-15.88,16.833c-5.336,0-9.465-2.668-12.323-7.051l7.178-7.559
			c1.397,1.906,3.367,4.065,5.019,4.065c3.684,0,3.557-4.383,3.557-7.051v-31.571H200.157z"/>
		<path fill="#FFFFFF" d="M262.278,241.098v26.934c0,6.162-0.254,12.26-5.018,16.897c-4.002,3.938-10.291,5.336-15.881,5.336
			c-5.59,0-11.878-1.397-15.88-5.336c-4.764-4.637-5.018-10.735-5.018-16.897v-26.934h12.45v25.219
			c0,6.225,0.445,13.022,8.448,13.022c8.004,0,8.449-6.797,8.449-13.022v-25.219H262.278z"/>
		<path fill="#FFFFFF" d="M282.854,241.098h12.45l22.805,29.284h0.127v-29.284h12.451v47.896h-12.451l-22.804-29.347h-0.127v29.347
			h-12.45V241.098z"/>
		<path fill="#FFFFFF" d="M385.755,257.169c-2.541-3.43-6.67-5.272-10.926-5.272c-7.623,0-12.768,5.844-12.768,13.276
			c0,7.559,5.208,13.022,12.958,13.022c4.065,0,8.131-1.969,10.735-5.082v14.928c-4.129,1.27-7.115,2.223-10.99,2.223
			c-6.67,0-13.022-2.541-17.977-7.051c-5.272-4.764-7.687-10.989-7.687-18.104c0-6.543,2.478-12.832,7.051-17.532
			c4.701-4.828,11.498-7.75,18.231-7.75c4.002,0,7.686,0.89,11.371,2.414V257.169z"/>
		<path fill="#FFFFFF" d="M425.197,288.994h-12.45v-37.351h-10.291v-10.545h33.032v10.545h-10.291V288.994z"/>
		<path fill="#FFFFFF" d="M465.148,288.994h-12.45v-47.896h12.45V288.994z"/>
		<path display="none" fill="none" d="M536.544,264.157c0,15.5-11.116,26.425-26.488,26.425c-15.373,0-26.489-10.926-26.489-26.425
			c0-14.483,12.705-24.646,26.489-24.646S536.544,249.674,536.544,264.157z M496.525,264.22c0,8.258,6.098,14.293,13.53,14.293
			c7.432,0,13.53-6.035,13.53-14.293c0-6.606-6.099-12.641-13.53-12.641C502.623,251.58,496.525,257.614,496.525,264.22z"/>
		<path fill="#FFFFFF" d="M555.023,241.098h12.45l22.805,29.284h0.127v-29.284h12.45v47.896h-12.45l-22.805-29.347h-0.127v29.347
			h-12.45V241.098z"/>
		<path fill="#FFFFFF" d="M303.643,306.304h6.056c8.967,0,16.42,4.736,16.42,14.479c0,9.977-7.298,14.79-16.537,14.79h-5.939
			V306.304z M307.292,332.234h1.281c7.453,0,13.896-2.795,13.896-11.296c0-8.54-6.443-11.296-13.896-11.296h-1.281V332.234z"/>
		<path fill="#FFFFFF" d="M341.062,335.573h-3.648v-29.269h3.648V335.573z"/>
		<path fill="#FFFFFF" d="M380.966,320.822v1.164c0,8.036-5.668,14.208-13.858,14.208s-14.79-7.065-14.79-15.178
			c0-8.424,6.755-15.333,15.178-15.333c4.542,0,9.044,2.057,11.917,5.667l-2.562,2.445c-2.096-2.872-5.628-4.774-9.2-4.774
			c-6.56,0-11.684,5.318-11.684,11.879c0,6.133,5.046,11.955,11.374,11.955c4.542,0,9.433-3.92,9.588-8.695h-7.57v-3.338H380.966z"
			/>
		<path fill="#FFFFFF" d="M395.87,335.573h-3.649v-29.269h3.649V335.573z"/>
		<path fill="#FFFFFF" d="M416.985,335.573h-3.648v-25.931h-6.948v-3.338h17.545v3.338h-6.948V335.573z"/>
		<path fill="#FFFFFF" d="M435.617,328.236l-3.338,7.337h-3.921l13.975-30.511l13.975,30.511h-3.921l-3.338-7.337H435.617z
			 M442.333,313.059l-5.202,11.84h10.404L442.333,313.059z"/>
		<path fill="#FFFFFF" d="M470.164,332.234h8.889v3.339h-12.538v-29.269h3.649V332.234z"/>
	</g>
	<path fill="#FFFFFF" d="M511.398,239.937c-15.929,0-28.84,12.915-28.84,28.846c0,15.928,24.999,66.883,28.719,66.883
		c3.726,0,28.971-50.955,28.971-66.883C540.248,252.852,527.33,239.937,511.398,239.937z M511.398,288.157
		c-10.699,0-19.37-8.673-19.37-19.374c0-10.703,8.671-19.378,19.37-19.378c10.705,0,19.376,8.676,19.376,19.378
		C530.774,279.484,522.104,288.157,511.398,288.157z"/>
</g>
</svg>
