<?xml version="1.0" encoding="utf-8"?>
<!-- Generator: Adobe Illustrator 19.2.1, SVG Export Plug-In . SVG Version: 6.00 Build 0)  -->
<svg version="1.1" id="Layer_1" xmlns="http://www.w3.org/2000/svg" xmlns:xlink="http://www.w3.org/1999/xlink" x="0px" y="0px"
	 viewBox="0 0 166.5 206.5" style="enable-background:new 0 0 166.5 206.5;" xml:space="preserve">
<style type="text/css">
	.st0{fill:#FFFFFF;}
</style>
<path class="st0" d="M0,0v163.7h166.3V0H0z M137,121.1L79.8,84.3V121L19.2,81.9l60.7-39.1v37L137,42.9V121.1z"/>
<g>
	<path class="st0" d="M0.2,179.1H13c4.2,0,7,1.1,8.9,3c1.6,1.6,2.4,3.7,2.4,6.3v0.1c0,4.2-2.2,6.9-5.6,8.4l6.5,9.5h-8.7l-5.5-8.2
		H7.7v8.2H0.2V179.1z M12.7,192.2c2.6,0,4-1.2,4-3.2v-0.1c0-2.1-1.6-3.2-4.1-3.2H7.7v6.5L12.7,192.2L12.7,192.2z"/>
	<path class="st0" d="M28.1,179.1H50v6.4H35.6v4.1h13.1v6H35.6v4.3h14.6v6.4H28.1V179.1z"/>
	<path class="st0" d="M52.8,179.1h8l4.7,15.7l5.2-15.8h6.5l5.2,15.8l4.8-15.7H95l-9.1,27.4h-6.6l-5.5-15.7l-5.4,15.7h-6.6
		L52.8,179.1z"/>
	<path class="st0" d="M98.2,179.1h7.6v27.2h-7.6V179.1z"/>
	<path class="st0" d="M110.7,179.1h7l11.2,14.4v-14.4h7.5v27.2h-6.6l-11.6-14.9v14.9h-7.5C110.7,206.3,110.7,179.1,110.7,179.1z"/>
	<path class="st0" d="M140.7,179.1h10.5c9.7,0,15.4,5.6,15.4,13.4v0.1c0,7.8-5.7,13.7-15.5,13.7h-10.3V179.1z M151.3,199.6
		c4.5,0,7.5-2.5,7.5-6.9v-0.1c0-4.4-3-6.9-7.5-6.9h-3.1v13.8H151.3z"/>
</g>
</svg>
