<?xml version="1.0" encoding="utf-8"?>
<!-- Generator: Adobe Illustrator 16.0.0, SVG Export Plug-In . SVG Version: 6.00 Build 0)  -->
<!DOCTYPE svg PUBLIC "-//W3C//DTD SVG 1.1//EN" "http://www.w3.org/Graphics/SVG/1.1/DTD/svg11.dtd">
<svg version="1.1" xmlns="http://www.w3.org/2000/svg" xmlns:xlink="http://www.w3.org/1999/xlink" x="0px" y="0px"
	 width="134.77px" height="105.604px" viewBox="0 0 134.77 105.604" enable-background="new 0 0 134.77 105.604"
	 xml:space="preserve">
<g id="BW" display="none">
	<g display="inline">
		<path fill="#626366" d="M137.229,109.88V48.34c0-3.684-2.989-6.677-6.679-6.677H1.099c-3.688,0-6.678,2.993-6.678,6.677v61.54
			H137.229z"/>
		<path fill="#3B3A3C" d="M-3.624,109.371c0,0,0.362-0.339-0.054-2.558c-0.416-2.218-0.624-5.456-0.624-30.018
			c0-24.564,0.313-28.485,0-29.507c-0.313-1.023-0.832-3.583-0.883-1.537c-0.052,2.047-0.157,63.619-0.157,63.619H-3.624z"/>
		<path fill="#DBDCDD" d="M-3.759,44.804c0,0-0.808,1.735-0.373,2.048c0.434,0.31,0.621-0.623,1.055-1.058
			c0.436-0.432,0.56-1.487,0.993-1.614c0.434-0.123,1.18-0.31,1.242-0.621c0.063-0.308-0.434-0.99-0.931-0.682
			C-2.269,43.187-3.388,44.058-3.759,44.804z"/>
		<path fill="#3B3A3C" d="M-2.308,48.77c0,0,0-2.054,0.96-2.744c0.96-0.683,1.782-0.82,2.193-0.274
			c0.411,0.551,0.823,1.921,0.55,2.467c-0.276,0.55-2.067,1.863-2.13,2.439c-0.064,0.579-0.887,1.674-0.887,1.674L-2.308,48.77z"/>
		<path fill="#3B3A3C" d="M133.343,48.77c0,0,0-2.054-0.958-2.744c-0.96-0.683-1.783-0.82-2.193-0.274
			c-0.412,0.551-0.824,1.921-0.55,2.467c0.275,0.55,2.065,1.863,2.129,2.439c0.062,0.579,0.888,1.674,0.888,1.674L133.343,48.77z"/>
		<path fill="#3B3A3C" d="M136.964,46.026c0.359,2.015,0.193,63.619,0.193,63.619h-2.098l-5.854,0.07c0,0-2.469,0.546-2.191-0.138
			c0.272-0.686,4.385-0.959,4.385-0.959s2.192-0.275,2.605-0.275c0.41,0,1.12-1.255,1.12-1.255c0.51-2.219,0.762-5.46,0.762-30.02
			c0-24.562-0.38-28.483,0-29.507c0,0-0.439-2.173-1.626-2.633c-1.189-0.456-1.463-0.547-1.189-1.005
			c0.274-0.455-0.64-0.82-0.182-1.185C133.345,42.372,136.653,44.289,136.964,46.026z"/>
		<path fill="#3B3A3C" d="M1.832,105.579c5.781,0.071,129.389,0,129.389,0s3.558,0.071,2.666-0.203
			c-0.889-0.276-2.666-0.548-2.666-0.548L-1.97,104.69c0,0-0.823,0.549-0.09,0.822C-1.33,105.787,1.832,105.579,1.832,105.579z"/>
		<path fill="#0B0204" d="M1.099,41.071c-4.011,0-7.271,3.261-7.271,7.27v62.132h144V48.34c0-4.009-3.265-7.27-7.276-7.27H1.099z
			 M-4.985,48.34c0-3.351,2.73-6.081,6.084-6.081h129.452c3.355,0,6.081,2.73,6.081,6.081c0,0,0,59.776,0,60.945
			c-1.174,0-140.441,0-141.617,0C-4.985,108.116-4.985,48.34-4.985,48.34z"/>
		<path fill="#DBDCDD" d="M-1.898,105.271c-0.329,0-0.598,0.266-0.598,0.597c0,0.329,0.269,0.597,0.598,0.597h134.907
			c0.332,0,0.602-0.268,0.602-0.597c0-0.331-0.27-0.597-0.602-0.597H-1.898z"/>
		<path fill="#6A6563" stroke="#000000" stroke-width="0.7745" d="M118.819,92.884V31.346c0-3.687-2.993-6.679-6.682-6.679H19.513
			c-3.69,0-6.679,2.992-6.679,6.679v61.538H118.819z"/>
		<path fill="#FFFFFF" d="M85.483,28.787c-0.334,0-0.602,0.268-0.602,0.598c0,0.329,0.268,0.599,0.602,0.599h25.16
			c1.088,0,2.071,0.65,2.5,1.656c0.128,0.305,0.481,0.449,0.781,0.317c0.306-0.127,0.448-0.48,0.316-0.782
			c-0.61-1.451-2.028-2.387-3.598-2.387H85.483z"/>
		<path fill="#CDC9C8" d="M118.647,28.538c0,0,0.395,2.09,0.044,2.18c-0.352,0.083-1.012,0.296-1.887-1.285
			c-0.882-1.581-2.244-3.201-4.837-3.201c-2.59,0-25.041,0-25.041,0s-0.747-0.429-0.613-0.897c0.132-0.47-0.09-0.896,0.83-0.854
			c0.926,0.042,26.186,0,26.186,0S117.636,25.418,118.647,28.538z"/>
		<path fill="#CDC9C8" d="M112.699,30.951c0,0,0.644,0.724,0.086,0.769c-0.556,0.042-2.647-0.769-3.887-0.769
			c-1.238,0-20.794,0-20.794,0s-2.347,0.087-2.517-0.682c-0.174-0.771,0.382-0.682,0.808-0.682c0.43,0,23.744-0.301,25.28,0.338
			C111.676,29.925,112.229,30.185,112.699,30.951z"/>
		<path fill="#3B3A3C" d="M-1.283,49.952c0,0-0.136-1.241-0.205,1.063c-0.069,2.305,0,51.569,0,51.569s-0.069,1.419,0.205,1.064
			c0.274-0.354,0.549-1.064,0.549-1.064V50.659C-0.734,50.659-1.009,49.772-1.283,49.952z"/>
		<path fill="#3B3A3C" d="M1.453,103.274c0.816,0,2.042,0,2.042,0h80.843c0,0,45.323,0.273,45.323-0.413
			c0-0.684-1.245-0.48-1.245-0.48H2.475c0,0-0.274-55.98-0.339-57.912c-0.069-1.928-0.274-0.416-0.682,0.549
			c-0.409,0.965-0.341,3.487-0.341,26.645c0,23.161,0.201,26.026,0.069,28.183c-0.069,1.111-0.136,2.604-0.136,2.604
			S0.91,103.274,1.453,103.274z"/>
		<path fill="#3B3A3C" d="M132.608,48.928c0,0,0.139-1.258,0.206,1.076c0.068,2.332,0,52.225,0,52.225s0.068,1.437-0.206,1.077
			c-0.275-0.36-0.548-1.077-0.548-1.077V50.78c0,0-0.361-1.828-0.815-2.194c-0.458-0.366-0.822-1.463-0.09-1.186
			C131.883,47.673,132.608,48.928,132.608,48.928z"/>
		<path fill="#4F5252" d="M111.082,28.68H85.705c0,0-0.22-0.127-0.264-0.384s0.395-0.557,0.702-0.557c0.304,0,24.853,0,24.853,0
			s1.667,0.125,2.189,0.856c0.527,0.724,0.09,0.893-0.173,0.807C112.751,29.319,112.355,28.68,111.082,28.68z"/>
		<path fill="#4F5252" d="M110.993,33.212c0,0,0.177-0.815-0.745-0.86c-0.922-0.046-24.121,0-24.121,0s-1.623-1.044-2.235-1.044
			c-0.613,0-0.747,0.091-0.661,0.543c0.088,0.455-0.216,1.09,0.088,1.318c0.312,0.226,2.415,0.724,2.415,0.724h25.126
			L110.993,33.212z"/>
		<path fill="#FFFFFF" d="M111.222,28.969c1.573,0,2.985,0.938,3.602,2.386c0.13,0.305-0.015,0.655-0.316,0.787
			c-0.308,0.127-0.654-0.013-0.786-0.319c-0.426-1.006-1.407-1.659-2.499-1.659H86.06c-0.328,0-0.598-0.268-0.598-0.598
			c0-0.328,0.27-0.597,0.598-0.597H111.222z"/>
		<path fill="#CDC9C8" d="M13.192,28.354c0,0-0.396,2.091-0.045,2.178c0.352,0.084,1.011,0.299,1.888-1.281
			c0.88-1.581,2.241-3.204,4.835-3.204c2.59,0,25.041,0,25.041,0s0.748-0.425,0.615-0.896c-0.134-0.469,0.088-0.896-0.833-0.853
			c-0.925,0.042-26.186,0-26.186,0S14.202,25.238,13.192,28.354z"/>
		<path fill="#CDC9C8" d="M19.139,30.768c0,0-0.64,0.726-0.085,0.768c0.555,0.043,2.648-0.768,3.887-0.768
			c1.238,0,20.792,0,20.792,0s2.349,0.087,2.52-0.683c0.171-0.768-0.383-0.684-0.812-0.684c-0.426,0-23.739-0.299-25.277,0.341
			C20.164,29.742,19.608,30.001,19.139,30.768z"/>
		<path fill="#332F2F" d="M21.156,27.937c0,0-2.611-0.04-3.134,0.457c-0.522,0.495-2.161,3.05-1.901,3.623
			c0.26,0.576,0.93,0.765,1.19,0.115c0.264-0.649,2.353-3.28,2.911-3.318C20.783,28.774,21.641,28.315,21.156,27.937z"/>
		<path fill="#4F5252" d="M20.755,28.498h25.38c0,0,0.218-0.13,0.263-0.386c0.042-0.256-0.395-0.555-0.7-0.555
			c-0.309,0-24.856,0-24.856,0s-1.666,0.129-2.192,0.853c-0.527,0.725-0.087,0.897,0.176,0.812
			C19.089,29.135,19.483,28.498,20.755,28.498z"/>
		<path fill="#4F5252" d="M20.849,33.033c0,0-0.177-0.819,0.744-0.863c0.921-0.047,24.119,0,24.119,0s1.622-1.046,2.236-1.046
			c0.614,0,0.745,0.091,0.659,0.545c-0.087,0.454,0.218,1.089-0.087,1.316c-0.309,0.226-2.415,0.727-2.415,0.727H20.979
			L20.849,33.033z"/>
		<path fill="#4F5252" d="M47.96,26.926c0,0-1.152-0.127-1.152,0.384s0.171,0.598,0.47,0.684c0.299,0.083,0.811,0.256,0.811-0.214
			S48.346,26.926,47.96,26.926z"/>
		<path fill="#FFFFFF" d="M20.618,28.787c-1.574,0-2.986,0.936-3.602,2.387c-0.129,0.302,0.015,0.655,0.315,0.782
			c0.307,0.132,0.657-0.013,0.786-0.317c0.428-1.005,1.409-1.656,2.501-1.656h25.161c0.328,0,0.597-0.27,0.597-0.599
			c0-0.331-0.269-0.598-0.597-0.598H20.618z"/>
		<path fill="#0B0204" d="M19.513,24.073c-4.011,0-7.271,3.261-7.271,7.272v62.134h107.173V31.346c0-4.012-3.264-7.272-7.276-7.272
			H19.513z M13.429,31.346c0-3.354,2.728-6.082,6.083-6.082h92.625c3.354,0,6.084,2.728,6.084,6.082c0,0,0,59.776,0,60.944
			c-1.169,0-103.623,0-104.792,0C13.429,91.122,13.429,31.346,13.429,31.346z"/>
		<path fill="#626366" d="M61.809,74.825V13.286c0-3.686-2.992-6.678-6.679-6.678h0.146c-3.688,0-6.676,2.992-6.676,6.678v61.539
			H61.809z"/>
		<path fill="#3B3A3C" d="M51.212,11.643c0,0-0.136-0.479-0.204,0.409c-0.068,0.892,0,19.943,0,19.943s-0.068,0.549,0.204,0.413
			c0.276-0.137,0.551-0.413,0.551-0.413V11.916C51.763,11.916,51.488,11.572,51.212,11.643z"/>
		<path fill="#3B3A3C" d="M56.694,33.299c0,0-0.478-0.137,0.071-1.029c0.548-0.893,0.823-2.192,0.823-12.062s-0.412-11.447,0-11.859
			c0.41-0.409,1.095-1.438,1.164-0.615c0.069,0.824,0.207,25.564,0.207,25.564H56.694z"/>
		<path fill="#DBDCDD" d="M50.595,9.038c0,0-1.301,1.574-1.301,2.193c0,0.618,0.203,1.987,0.549,1.574
			c0.341-0.408,0.411-2.465,0.683-2.875c0.276-0.413,0.892-1.37,1.439-1.37c0.549,0,1.508,0.067,1.646-0.413
			c0.137-0.479,0.276-1.234-0.343-1.031C52.651,7.325,51.145,8.488,50.595,9.038z"/>
		<path fill="#DBDCDD" d="M57.04,7.186c0,0-0.755-0.07-0.755,0.344c0,0.411,0.068,1.232,0.409,1.3
			c0.346,0.069,0.756,0.138,0.825-0.342C57.587,8.008,57.381,7.116,57.04,7.186z"/>
		<path fill="#0B0204" d="M55.276,6.012H55.13v0.018c-3.942,0.078-7.128,3.296-7.128,7.257V75.42h14.402V13.286
			c0-3.961-3.186-7.179-7.128-7.257V6.012z M49.192,13.286c0-3.328,2.692-6.027,6.011-6.067c3.319,0.041,6.01,2.739,6.01,6.067
			c0,0,0,59.779,0,60.945c-1.034,0-10.985,0-12.021,0C49.192,73.065,49.192,13.286,49.192,13.286z"/>
		<path fill="#626366" d="M83.229,74.825V13.286c0-3.686-2.987-6.678-6.679-6.678h0.147c-3.687,0-6.678,2.992-6.678,6.678v61.539
			H83.229z"/>
		<path fill="#3B3A3C" d="M78.421,11.298c0,0,0.135-0.479,0.204,0.411c0.068,0.892,0,19.943,0,19.943s0.068,0.551-0.204,0.413
			c-0.273-0.138-0.546-0.413-0.546-0.413V11.572C77.875,11.572,78.147,11.23,78.421,11.298z"/>
		<path fill="#3B3A3C" d="M80.069,33.162c0,0-0.712-0.124,0.1-0.924c0.813-0.804,1.222-1.972,1.222-10.85
			c0-8.876-0.61-10.29,0-10.661c0.607-0.371,1.624-1.295,1.728-0.556c0.1,0.742,0.308,22.992,0.308,22.992H80.069z"/>
		<path fill="#DBDCDD" d="M72.872,8.146c0,0,1.75-1.074,2.208-1.139c0.456-0.064,1.495-0.027,1.233,0.314
			c-0.264,0.339-1.779,0.61-2.052,0.89c-0.271,0.281-0.907,0.911-0.84,1.388c0.064,0.474,0.23,1.298-0.107,1.464
			c-0.34,0.169-0.88,0.365-0.804-0.19C72.587,10.318,72.528,8.679,72.872,8.146z"/>
		<path fill="#DBDCDD" d="M81.024,8.83c0,0,0.754-0.067,0.754,0.344c0,0.413-0.067,1.234-0.41,1.302
			c-0.344,0.069-0.754,0.136-0.821-0.341C80.477,9.656,80.683,8.762,81.024,8.83z"/>
		<path fill="#0B0204" d="M76.697,6.012H76.55v0.018c-3.938,0.078-7.124,3.296-7.124,7.257V75.42h14.4V13.286
			c0-3.961-3.186-7.179-7.129-7.257V6.012z M70.611,13.286c0-3.328,2.695-6.027,6.013-6.067c3.319,0.041,6.012,2.739,6.012,6.067
			c0,0,0,59.779,0,60.945c-1.033,0-10.987,0-12.024,0C70.611,73.065,70.611,13.286,70.611,13.286z"/>
		<path fill="#6A6563" d="M72.429,66.683V5.143c0-3.688-2.987-6.678-6.676-6.678h0.146c-3.689,0-6.677,2.99-6.677,6.678v61.54
			H72.429z"/>
		<path fill="#CDC9C8" d="M59.457,30.57c0,0-0.269,0.664,0.054,0.664c0.323,0,0.865-0.996,1.026-1.062
			c0.161-0.066,0.27-0.998,0.27-1.593c0-0.6,0.108-23.919,0.053-24.516c-0.053-0.599,0.216-1.928,0.595-2.724
			c0.378-0.8,0.378-1.795,0.755-1.795s0.978,0.378,1.248,0.378c0.269,0,1.035,0.054,1.143-0.413c0.108-0.46-0.88-1.229-1.312-1.096
			c-0.433,0.133-3.454,2.394-3.669,3.191c-0.216,0.795-0.593,1.528-0.593,1.994S59.457,30.57,59.457,30.57z"/>
		<path fill="#B6A9A6" d="M64.606,2.466c0,0,0.398-0.332,0.398,0.199c0,0.534-0.198,29.166-0.198,29.166l-0.334,0.199L64.34,3.132
			L64.606,2.466z"/>
		<path fill="#CDC9C8" d="M67.76,0.473c0,0,0.162-0.663,0.448-0.333c0.287,0.333,0.411,0.998,0.411,0.998v26.441v2.06
			c0,0-0.084,0.865-0.329,0.931c-0.246,0.067-0.694-0.199-0.694-0.797c0-0.599,0-28.567,0-28.567L67.76,0.473z"/>
		<path fill="#4F5252" d="M63.343,3.464c0,0-0.264-0.465-0.465-0.199c-0.199,0.265,0,27.04,0,27.04s-0.466,1.925,0,1.861
			c0.465-0.069,0.797-0.269,0.797-0.733C63.675,30.967,63.343,3.464,63.343,3.464z"/>
		<path fill="#4F5252" d="M71.913,4.194c0,0-0.265-1.128-0.794-0.929c-0.536,0.199-0.336,2.391-0.402,4.714
			c-0.065,2.326,0,21.527,0,21.527s-0.397,2.524-0.798,2.923c-0.397,0.396-0.997,0.796-0.397,0.796c0.598,0,2.525,0.2,2.525,0.2
			L71.913,4.393"/>
		<path fill="#DFE0E1" d="M69.443,0.605c0,0,0.616,0.55,0.752,1.237c0.138,0.684,0.069,1.918-0.136,1.371
			c-0.206-0.549-0.48-1.989-0.822-2.193C68.896,0.813,69.031-0.011,69.443,0.605z"/>
		<path fill="#DFE0E1" d="M62.658-0.417c0,0-0.207,0.75-0.207,1.367c0,0.616,0,1.781-0.205,2.125
			c-0.204,0.341-0.752-0.069-0.752-0.755c0-0.685-0.138-0.889-0.482-0.958C60.67,1.293,61.835-0.694,62.658-0.417z"/>
		<path fill="#0B0204" d="M65.898-2.13h-0.146v0.015c-3.942,0.079-7.127,3.297-7.127,7.258v62.132h14.401V5.143
			c0-3.961-3.188-7.179-7.128-7.258V-2.13z M59.813,5.143c0-3.325,2.693-6.025,6.014-6.067c3.317,0.042,6.008,2.742,6.008,6.067
			c0,0,0,59.776,0,60.944c-1.032,0-10.986,0-12.022,0C59.813,64.919,59.813,5.143,59.813,5.143z"/>
		<path fill="#DBDCDD" d="M51.525,10.335v21.394c0,0.333,0.267,0.6,0.599,0.6c0.328,0,0.598-0.266,0.598-0.6V10.335
			c0-0.331-0.27-0.597-0.598-0.597C51.792,9.738,51.525,10.004,51.525,10.335z"/>
		<path fill="#DBDCDD" d="M54.561,8.91v22.819c0,0.333,0.268,0.6,0.597,0.6c0.332,0,0.599-0.266,0.599-0.6V8.91
			c0-0.33-0.267-0.599-0.599-0.599C54.829,8.311,54.561,8.58,54.561,8.91z"/>
		<path fill="#4F5252" d="M66.634,1.635c0,0-0.267-0.465-0.467-0.199c-0.199,0.265,0,27.041,0,27.041s-0.465,1.925,0,1.859
			c0.467-0.067,0.798-0.266,0.798-0.731S66.634,1.635,66.634,1.635z"/>
		<path fill="#DBDCDD" d="M75.428,8.74v23.062c0,0.334,0.267,0.599,0.596,0.599c0.326,0,0.597-0.265,0.597-0.599V8.74
			c0-0.328-0.271-0.595-0.597-0.595C75.694,8.145,75.428,8.413,75.428,8.74z"/>
		<path fill="#FFFFFF" stroke="#000000" stroke-width="0.7745" d="M129.321,101.973V40.434c0-3.688-2.991-6.678-6.675-6.678H9.244
			c-3.689,0-6.678,2.991-6.678,6.678v61.539H129.321z"/>
		<path fill="#DBDCDD" d="M78.463,9.75v22.052c0,0.334,0.265,0.599,0.597,0.599c0.333,0,0.598-0.265,0.598-0.599V9.75
			c0-0.333-0.265-0.6-0.598-0.6C78.728,9.15,78.463,9.417,78.463,9.75z"/>
		<path fill="#FFFFFF" d="M63.564,0.777v30.863c0,0.331,0.267,0.598,0.598,0.598c0.33,0,0.598-0.268,0.598-0.598V0.777
			c0-0.33-0.268-0.597-0.598-0.597C63.831,0.181,63.564,0.447,63.564,0.777z"/>
		<path fill="#FFFFFF" d="M66.602,0.777v30.863c0,0.331,0.267,0.598,0.597,0.598c0.331,0,0.598-0.268,0.598-0.598V0.777
			c0-0.33-0.267-0.597-0.598-0.597C66.868,0.181,66.602,0.447,66.602,0.777z"/>
		<rect x="2.739" y="41.524" fill="#DFE0E1" width="126.683" height="0.889"/>
		<path fill="#DFE0E1" d="M35.561,92.363c-0.256,0.547-0.621,0.817-1.103,0.817c-0.477,0-0.748-0.255-0.868-0.41
			c-0.221-0.282-0.302-0.388-0.302-1.958c0-1.568,0.081-1.676,0.305-1.961c0.117-0.15,0.388-0.408,0.865-0.408
			c0.57,0,0.955,0.421,1.08,0.83l0.099,0.311h2.124l-0.102-0.523c-0.305-1.612-1.591-2.695-3.201-2.695
			c-1.439,0-2.419,0.85-2.855,1.644c-0.316,0.584-0.399,0.936-0.399,2.804c0,1.873,0.083,2.224,0.399,2.804
			c0.437,0.797,1.417,1.643,2.855,1.643c1.632,0,2.86-1.003,3.201-2.615l0.114-0.538H35.68L35.561,92.363z"/>
		<path fill="#DFE0E1" d="M42.579,86.432h-0.444h-1.637v8.765h5.919v-2.016c0,0-3.146,0-3.839,0
			C42.579,92.406,42.579,86.432,42.579,86.432z"/>
		<path fill="#DFE0E1" d="M53.012,86.432h-1.307l-3.186,8.765h2.208c0,0,0.464-1.349,0.608-1.762c0.447,0,1.91,0,2.354,0
			c0.143,0.413,0.61,1.762,0.61,1.762h2.211l-3.19-8.765H53.012z M53.049,91.485c-0.421,0-0.653,0-1.071,0
			c0.149-0.453,0.288-0.872,0.536-1.618C52.762,90.613,52.899,91.032,53.049,91.485z"/>
		<path fill="#DFE0E1" d="M62.578,89.819l-0.869-0.121c-0.473-0.072-0.744-0.279-0.744-0.567c0-0.594,0.549-0.688,0.873-0.688
			c0.564,0,1.153,0.189,1.711,0.545l0.365,0.229l1.154-1.713l-0.374-0.248c-0.894-0.591-1.835-0.892-2.799-0.892
			c-1.802,0-3.007,1.101-3.007,2.742c0,1.427,0.945,2.441,2.471,2.653c0.003,0,0.452,0.062,0.452,0.062l0.596,0.084
			c0.572,0.071,0.64,0.388,0.64,0.62c0,0.482-0.577,0.653-1.118,0.653c-0.696,0-1.408-0.253-1.959-0.692l-0.332-0.262l-1.355,1.546
			l0.332,0.295c0.901,0.79,2.011,1.191,3.303,1.191c1.979,0,3.208-1.047,3.208-2.731C65.125,91.068,64.126,90.004,62.578,89.819z"/>
		<path fill="#DFE0E1" d="M71.803,89.819l-0.864-0.121c-0.476-0.072-0.745-0.279-0.745-0.567c0-0.594,0.544-0.688,0.874-0.688
			c0.56,0,1.149,0.189,1.707,0.545l0.364,0.229l1.155-1.713l-0.376-0.248c-0.894-0.591-1.835-0.892-2.797-0.892
			c-1.8,0-3.008,1.101-3.008,2.742c0,1.427,0.946,2.441,2.47,2.653l0.448,0.062l0.598,0.084c0.574,0.071,0.642,0.388,0.642,0.62
			c0,0.482-0.574,0.653-1.115,0.653c-0.696,0-1.41-0.253-1.958-0.692l-0.334-0.262l-1.354,1.546l0.331,0.295
			c0.901,0.79,2.012,1.191,3.303,1.191c1.979,0,3.208-1.047,3.208-2.731C74.351,91.068,73.353,90.004,71.803,89.819z"/>
		<polygon fill="#DFE0E1" points="77.602,86.432 77.602,95.196 79.683,95.196 79.683,86.432 79.239,86.432 		"/>
		<path fill="#DFE0E1" d="M87.425,92.363c-0.262,0.547-0.621,0.817-1.105,0.817c-0.478,0-0.746-0.255-0.868-0.41
			c-0.222-0.282-0.302-0.388-0.302-1.958c0-1.568,0.08-1.676,0.304-1.961c0.12-0.15,0.389-0.408,0.866-0.408
			c0.572,0,0.952,0.421,1.08,0.83l0.098,0.311h2.123l-0.098-0.523c-0.306-1.612-1.59-2.695-3.203-2.695
			c-1.441,0-2.419,0.85-2.855,1.644c-0.319,0.584-0.397,0.936-0.397,2.804c0,1.873,0.078,2.224,0.397,2.804
			c0.437,0.797,1.414,1.643,2.855,1.643c1.638,0,2.859-1.003,3.203-2.615l0.114-0.538h-2.092L87.425,92.363z"/>
		<path fill="#DFE0E1" d="M95.789,89.819c-0.002,0-0.87-0.121-0.87-0.121c-0.472-0.072-0.743-0.279-0.743-0.567
			c0-0.594,0.55-0.688,0.874-0.688c0.56,0,1.151,0.189,1.711,0.545l0.36,0.229l1.157-1.713l-0.372-0.248
			c-0.896-0.591-1.839-0.892-2.803-0.892c-1.8,0-3.008,1.101-3.008,2.742c0,1.427,0.946,2.441,2.474,2.653l0.444,0.062l0.6,0.084
			c0.574,0.071,0.642,0.388,0.642,0.62c0,0.482-0.573,0.653-1.117,0.653c-0.696,0-1.41-0.253-1.962-0.692l-0.328-0.262l-1.355,1.546
			l0.332,0.295c0.901,0.79,2.012,1.191,3.305,1.191c1.978,0,3.208-1.047,3.208-2.731C98.337,91.068,97.335,90.004,95.789,89.819z"/>
		<path fill="#DFE0E1" d="M25.226,56.466c-1.569,0-3.187-0.571-4.429-1.56l-0.491-0.391l-2.548,2.908l0.493,0.433
			c1.892,1.667,4.231,2.511,6.954,2.511c4.102,0,6.647-2.152,6.647-5.618c0-3-2.061-5.18-5.253-5.565l-1.894-0.259
			c-1.185-0.179-1.863-0.74-1.863-1.535c0-1.659,1.678-1.786,2.195-1.786c1.274,0,2.609,0.42,3.865,1.219l0.539,0.338l2.165-3.211
			l-0.55-0.367c-1.891-1.249-3.875-1.883-5.898-1.883c-3.779,0-6.218,2.214-6.218,5.644c0,2.923,1.952,5.007,5.097,5.442
			c0.002,0,0.984,0.14,0.984,0.14l1.276,0.174c1.1,0.141,1.654,0.694,1.654,1.648C27.949,56.014,26.542,56.466,25.226,56.466z"/>
		<polygon fill="#DFE0E1" points="41.485,41.842 40.828,41.842 37.582,41.842 37.582,60.224 41.485,60.224 		"/>
		<path fill="#DFE0E1" d="M60.298,56.466c0,0-7.201,0-8.314,0c0-1.198,0-14.624,0-14.624h-0.662H48.08v18.381h12.218V56.466z"/>
		<path fill="#DFE0E1" d="M75.222,41.842h-3.227c0,0-2.548,8.545-3.413,11.435c-0.862-2.89-3.417-11.435-3.417-11.435h-4.129
			l6.065,18.381h2.963l6.064-18.381H75.222z"/>
		<path fill="#DFE0E1" d="M92.914,56.466c0,0-7.196,0-8.314,0c0-0.847,0-2.855,0-3.696c1.084,0,7.093,0,7.093,0v-3.614
			c0,0-6.009,0-7.093,0c0-0.832,0-2.719,0-3.551c1.118,0,8.314,0,8.314,0v-3.762H92.26H80.696v18.381h12.218V56.466z"/>
		<path fill="#DFE0E1" d="M108.433,52.311c1.899-0.947,3.059-2.811,3.059-5.035c0-1.592-0.707-3.104-1.936-4.146
			c-1.006-0.878-2.247-1.288-3.902-1.288h-6.657h-0.661v18.381h3.904c0,0,0-6.2,0-7.286c0.712,0,1.748,0,2.238,0
			c0.319,0.669,3.521,7.286,3.521,7.286h4.563C112.562,60.224,108.98,53.364,108.433,52.311z M102.239,45.466
			c0.922,0,3.392,0,3.392,0c0.808,0,1.172,0.148,1.496,0.393c0.39,0.28,0.602,0.784,0.602,1.417c0,0.989-0.588,2.049-2.243,2.049
			c0,0-2.338,0-3.246,0C102.239,48.466,102.239,46.318,102.239,45.466z"/>
		<path fill="#DFE0E1" d="M26.934,76.995c0-2.996-2.062-5.179-5.254-5.565l-1.894-0.264c-1.185-0.182-1.864-0.738-1.864-1.527
			c0-1.658,1.678-1.786,2.193-1.786c1.274,0,2.612,0.42,3.865,1.214l0.541,0.344l2.166-3.215l-0.553-0.362
			c-1.888-1.25-3.873-1.884-5.898-1.884c-3.777,0-6.218,2.214-6.218,5.643c0,2.923,1.954,5.01,5.098,5.441
			c0.003,0,0.98,0.135,0.98,0.135l1.279,0.177c1.098,0.141,1.654,0.694,1.654,1.65c0,1.264-1.404,1.716-2.722,1.716
			c-1.572,0-3.189-0.569-4.431-1.558l-0.489-0.396l-2.549,2.91l0.493,0.436c1.892,1.664,4.235,2.512,6.952,2.512
			C24.383,82.615,26.934,80.462,26.934,76.995z"/>
		<path fill="#DFE0E1" d="M38.832,82.615c3.385,0,5.93-2.084,6.636-5.437l0.166-0.794h-3.963l-0.175,0.383
			c-0.613,1.309-1.487,1.943-2.664,1.943c-1.164,0-1.828-0.624-2.121-0.994c-0.509-0.656-0.721-0.931-0.721-4.436
			c0-3.506,0.212-3.777,0.724-4.438c0.29-0.373,0.955-0.99,2.118-0.99c1.39,0,2.321,1.01,2.629,2.004l0.144,0.464h4.012
			l-0.148-0.778c-0.633-3.351-3.301-5.593-6.637-5.593c-2.989,0-5.017,1.762-5.92,3.409c-0.61,1.111-0.823,1.718-0.823,5.923
			c0,4.203,0.212,4.806,0.823,5.923C33.815,80.852,35.843,82.615,38.832,82.615z"/>
		<path fill="#DFE0E1" d="M63.451,69.519c0-1.59-0.702-3.098-1.93-4.141c-1.008-0.877-2.25-1.287-3.901-1.287h-6.663h-0.657v18.382
			h3.903c0,0,0-6.2,0-7.289c0.711,0,1.75,0,2.237,0c0.323,0.669,3.521,7.289,3.521,7.289h4.566c0,0-3.582-6.864-4.129-7.913
			C62.298,73.611,63.451,71.742,63.451,69.519z M54.205,67.707c0.92,0,3.392,0,3.392,0c0.808,0,1.171,0.154,1.499,0.397
			c0.389,0.284,0.599,0.784,0.599,1.414c0,0.991-0.588,2.052-2.243,2.052c0,0-2.337,0-3.246,0
			C54.205,70.71,54.205,68.562,54.205,67.707z"/>
		<path fill="#DFE0E1" d="M81.452,67.853v-3.762h-0.663H69.231v18.382h12.221v-3.762c0,0-7.204,0-8.319,0c0-0.841,0-2.852,0-3.695
			c1.083,0,7.096,0,7.096,0v-3.614c0,0-6.013,0-7.096,0c0-0.83,0-2.723,0-3.549C74.248,67.853,81.452,67.853,81.452,67.853z"/>
		<path fill="#DFE0E1" d="M86.871,64.091v18.382h12.216v-3.762c0,0-7.199,0-8.314,0c0-0.841,0-2.852,0-3.695
			c1.084,0,7.094,0,7.094,0v-3.614c0,0-6.01,0-7.094,0c0-0.83,0-2.723,0-3.549c1.115,0,8.314,0,8.314,0v-3.762h-0.656H86.871z"/>
		<path fill="#DFE0E1" d="M117.962,64.091h-3.247c0,0,0,7.665,0,10.603c-1.68-2.638-6.744-10.603-6.744-10.603h-3.46v18.382h3.901
			c0,0,0-7.67,0-10.604c1.676,2.639,6.742,10.604,6.742,10.604h3.464V64.091H117.962z"/>
		<path fill="#DFE0E1" d="M37.226,92.551c-0.312,1.467-1.418,2.269-2.768,2.269c-1.239,0-2.091-0.733-2.467-1.414
			c-0.255-0.469-0.342-0.702-0.342-2.593c0-1.888,0.087-2.123,0.342-2.585c0.376-0.689,1.228-1.419,2.467-1.419
			c1.493,0,2.522,1.051,2.768,2.336h-1.263c-0.188-0.611-0.751-1.142-1.505-1.142c-0.565,0-0.976,0.265-1.216,0.577
			c-0.309,0.396-0.397,0.618-0.397,2.232c0,1.615,0.088,1.836,0.397,2.234c0.241,0.313,0.651,0.579,1.216,0.579
			c0.665,0,1.173-0.368,1.505-1.075H37.226z"/>
		<path fill="#DFE0E1" d="M40.941,86.874h1.194v6.752h3.838v1.124h-5.032V86.874z"/>
		<path fill="#DFE0E1" d="M54.006,92.993h-2.985L50.41,94.75h-1.26l2.865-7.876h0.996l2.864,7.876h-1.261L54.006,92.993z
			 M53.662,91.932l-1.137-3.444h-0.024l-1.137,3.444H53.662z"/>
		<path fill="#DFE0E1" d="M59.694,92.838c0.596,0.475,1.394,0.788,2.233,0.788c0.974,0,1.561-0.445,1.561-1.099
			c0-0.553-0.321-0.973-1.03-1.062c-0.353-0.043-0.631-0.088-1.041-0.146c-1.359-0.187-2.088-1.07-2.088-2.213
			c0-1.347,0.941-2.299,2.565-2.299c0.975,0,1.836,0.343,2.557,0.819l-0.664,0.983c-0.575-0.366-1.25-0.608-1.949-0.608
			c-0.729,0-1.315,0.375-1.315,1.128c0,0.441,0.321,0.883,1.12,1.007c0.206,0.034,0.508,0.077,0.884,0.119
			c1.471,0.18,2.155,1.195,2.155,2.271c0,1.45-1.071,2.292-2.764,2.292c-1.163,0-2.181-0.353-3.01-1.087L59.694,92.838z"/>
		<path fill="#DFE0E1" d="M68.92,92.838c0.598,0.475,1.392,0.788,2.235,0.788c0.972,0,1.556-0.445,1.556-1.099
			c0-0.553-0.318-0.973-1.028-1.062c-0.354-0.043-0.626-0.088-1.04-0.146c-1.359-0.187-2.091-1.07-2.091-2.213
			c0-1.347,0.941-2.299,2.569-2.299c0.972,0,1.837,0.343,2.556,0.819l-0.662,0.983c-0.576-0.366-1.254-0.608-1.947-0.608
			c-0.734,0-1.32,0.375-1.32,1.128c0,0.441,0.322,0.883,1.118,1.007c0.212,0.034,0.512,0.077,0.884,0.119
			c1.474,0.18,2.159,1.195,2.159,2.271c0,1.45-1.071,2.292-2.766,2.292c-1.163,0-2.181-0.353-3.011-1.087L68.92,92.838z"/>
		<path fill="#DFE0E1" d="M78.047,86.874h1.192v7.876h-1.192V86.874z"/>
		<path fill="#DFE0E1" d="M89.087,92.551c-0.312,1.467-1.416,2.269-2.768,2.269c-1.237,0-2.09-0.733-2.468-1.414
			c-0.252-0.469-0.34-0.702-0.34-2.593c0-1.888,0.088-2.123,0.34-2.585c0.378-0.689,1.23-1.419,2.468-1.419
			c1.494,0,2.521,1.051,2.768,2.336h-1.262c-0.187-0.611-0.754-1.142-1.506-1.142c-0.562,0-0.974,0.265-1.216,0.577
			c-0.31,0.396-0.399,0.618-0.399,2.232c0,1.615,0.09,1.836,0.399,2.234c0.242,0.313,0.654,0.579,1.216,0.579
			c0.666,0,1.174-0.368,1.506-1.075H89.087z"/>
		<path fill="#DFE0E1" d="M92.902,92.838c0.598,0.475,1.396,0.788,2.235,0.788c0.974,0,1.562-0.445,1.562-1.099
			c0-0.553-0.324-0.973-1.03-1.062c-0.357-0.043-0.628-0.088-1.041-0.146c-1.362-0.187-2.088-1.07-2.088-2.213
			c0-1.347,0.939-2.299,2.563-2.299c0.974,0,1.838,0.343,2.556,0.819l-0.662,0.983c-0.574-0.366-1.25-0.608-1.947-0.608
			c-0.73,0-1.316,0.375-1.316,1.128c0,0.441,0.322,0.883,1.118,1.007c0.208,0.034,0.506,0.077,0.884,0.119
			c1.47,0.18,2.159,1.195,2.159,2.271c0,1.45-1.073,2.292-2.766,2.292c-1.161,0-2.183-0.353-3.013-1.087L92.902,92.838z"/>
		<path fill="#DFE0E1" d="M20.386,55.421c1.294,1.031,3.02,1.701,4.839,1.701c2.109,0,3.38-0.959,3.38-2.373
			c0-1.197-0.694-2.111-2.229-2.302c-0.769-0.096-1.367-0.19-2.252-0.31c-2.947-0.405-4.528-2.322-4.528-4.793
			c0-2.926,2.036-4.985,5.56-4.985c2.107,0,3.979,0.745,5.535,1.774l-1.436,2.13c-1.248-0.79-2.71-1.319-4.218-1.319
			c-1.583,0-2.852,0.816-2.852,2.447c0,0.959,0.691,1.919,2.418,2.18c0.458,0.076,1.101,0.169,1.917,0.268
			c3.187,0.382,4.673,2.588,4.673,4.911c0,3.138-2.324,4.959-5.989,4.959c-2.519,0-4.721-0.763-6.519-2.347L20.386,55.421z"/>
		<path fill="#DFE0E1" d="M38.238,42.504h2.59v17.062h-2.59V42.504z"/>
		<path fill="#DFE0E1" d="M48.735,42.504h2.587v14.618h8.314v2.444H48.735V42.504z"/>
		<path fill="#DFE0E1" d="M61.943,42.504h2.731l3.881,12.987h0.054l3.879-12.987h2.733l-5.635,17.062h-2.013L61.943,42.504z"/>
		<path fill="#DFE0E1" d="M81.353,42.504H92.26v2.44H83.94v4.872h7.094v2.295H83.94v5.011h8.319v2.444H81.353V42.504z"/>
		<path fill="#DFE0E1" d="M15.468,77.667c1.294,1.031,3.017,1.7,4.839,1.7c2.11,0,3.379-0.956,3.379-2.372
			c0-1.198-0.695-2.109-2.227-2.302c-0.769-0.094-1.369-0.19-2.253-0.309c-2.949-0.411-4.53-2.325-4.53-4.793
			c0-2.923,2.036-4.987,5.561-4.987c2.106,0,3.978,0.746,5.536,1.774l-1.439,2.136c-1.244-0.794-2.707-1.322-4.218-1.322
			c-1.58,0-2.852,0.814-2.852,2.446c0,0.96,0.694,1.917,2.422,2.179c0.454,0.074,1.103,0.171,1.915,0.265
			c3.188,0.384,4.675,2.587,4.675,4.913c0,3.143-2.327,4.965-5.992,4.965c-2.515,0-4.721-0.773-6.518-2.354L15.468,77.667z"/>
		<path fill="#DFE0E1" d="M44.825,77.041c-0.674,3.189-3.07,4.919-5.993,4.919c-2.687,0-4.529-1.588-5.343-3.071
			c-0.554-1.006-0.743-1.513-0.743-5.607c0-4.099,0.189-4.604,0.743-5.607c0.814-1.486,2.657-3.069,5.343-3.069
			c3.235,0,5.464,2.276,5.993,5.061H42.09c-0.407-1.32-1.629-2.473-3.258-2.473c-1.221,0-2.109,0.58-2.636,1.246
			c-0.672,0.862-0.862,1.346-0.862,4.843c0,3.498,0.19,3.977,0.862,4.842c0.526,0.67,1.415,1.244,2.636,1.244
			c1.438,0,2.542-0.79,3.258-2.326H44.825z"/>
		<path fill="#DFE0E1" d="M50.958,64.747h6.663c1.438,0,2.563,0.336,3.473,1.128c0.96,0.814,1.703,2.109,1.703,3.644
			c0,2.207-1.249,4.001-3.306,4.723l3.952,7.571h-3.066l-3.522-7.285h-3.308v7.285h-2.587V64.747z M53.545,72.229h3.905
			c1.942,0,2.901-1.273,2.901-2.711c0-0.888-0.336-1.558-0.862-1.941c-0.479-0.359-1.009-0.53-1.894-0.53h-4.051V72.229z"/>
		<path fill="#DFE0E1" d="M69.888,64.747h10.901v2.445h-8.312v4.867h7.095v2.3h-7.095v5.008h8.312v2.445H69.888V64.747z"/>
		<path fill="#DFE0E1" d="M87.529,64.747h10.901v2.445h-8.314v4.867h7.091v2.3h-7.091v5.008h8.314v2.445H87.529V64.747z"/>
		<path fill="#DFE0E1" d="M105.163,64.747h2.447l7.716,12.126h0.047V64.747h2.589v17.065h-2.447l-7.716-12.126h-0.049v12.126h-2.587
			V64.747z"/>
		<rect x="2.739" y="58.39" fill="#DFE0E1" width="126.683" height="0.892"/>
		<rect x="2.739" y="63.771" fill="#DFE0E1" width="126.683" height="0.89"/>
		<rect x="2.739" y="80.641" fill="#DFE0E1" width="126.683" height="0.889"/>
		<rect x="2.739" y="85.93" fill="#DFE0E1" width="126.683" height="0.89"/>
		<rect x="2.739" y="93.793" fill="#DFE0E1" width="126.683" height="0.889"/>
		<path fill="#DFE0E1" d="M98.996,42.504h6.657c1.439,0,2.565,0.335,3.477,1.126c0.956,0.814,1.7,2.109,1.7,3.646
			c0,2.202-1.246,3.995-3.308,4.716l3.955,7.574h-3.065l-3.523-7.285h-3.309v7.285h-2.584V42.504z M101.58,49.981h3.905
			c1.943,0,2.899-1.269,2.899-2.706c0-0.891-0.334-1.562-0.862-1.943c-0.479-0.359-1.002-0.528-1.892-0.528h-4.051V49.981z"/>
		<g>
			<rect x="2.739" y="41.472" fill="#0B0204" width="126.683" height="0.315"/>
			<rect x="2.739" y="58.341" fill="#0B0204" width="126.683" height="0.315"/>
			<rect x="2.739" y="85.875" fill="#0B0204" width="126.683" height="0.318"/>
			<rect x="2.739" y="93.738" fill="#0B0204" width="126.683" height="0.315"/>
			<rect x="2.739" y="63.718" fill="#0B0204" width="126.683" height="0.315"/>
			<rect x="2.739" y="80.586" fill="#0B0204" width="126.683" height="0.317"/>
		</g>
		<path fill="#0B0204" d="M107.475,51.358c1.899-0.95,3.057-2.815,3.057-5.04c0-1.59-0.707-3.101-1.931-4.145
			c-1.01-0.873-2.248-1.282-3.901-1.282h-6.664h-0.658v18.375h3.907c0,0,0-6.193,0-7.28c0.712,0,1.747,0,2.233,0
			c0.324,0.664,3.525,7.28,3.525,7.28h4.562C111.605,59.267,108.024,52.407,107.475,51.358z M101.284,44.505c0.92,0,3.393,0,3.393,0
			c0.806,0,1.172,0.153,1.496,0.396c0.39,0.282,0.6,0.783,0.6,1.417c0,0.99-0.586,2.048-2.243,2.048c0,0-2.336,0-3.245,0
			C101.284,47.511,101.284,45.364,101.284,44.505z"/>
		<path fill="#7A7A7A" d="M98.035,41.285h-0.263v17.588h3.115c0,0,0-6.795,0-7.286c0.424,0,2.604,0,2.878,0
			c0.138,0.284,3.522,7.286,3.522,7.286h3.67c0,0-3.812-7.298-4.037-7.726c1.978-0.818,3.217-2.621,3.217-4.829
			c0-1.472-0.653-2.873-1.793-3.843c-0.933-0.812-2.092-1.189-3.646-1.19H98.035z M104.699,41.811c1.42,0,2.468,0.337,3.301,1.061
			c1.026,0.873,1.612,2.129,1.612,3.446c0,2.083-1.2,3.795-3.13,4.472l-0.29,0.1c0,0,3.533,6.766,3.896,7.456
			c-0.604,0-2.218,0-2.47,0c-0.14-0.283-3.522-7.284-3.522-7.284h-3.731c0,0,0,6.797,0,7.284c-0.378,0-1.689,0-2.067,0
			c0-0.5,0-16.031,0-16.534C98.786,41.811,104.699,41.811,104.699,41.811z"/>
		<path fill="#6A6563" d="M100.626,43.585h-0.262v5.703h4.165c2.189,0,3.163-1.49,3.163-2.97c0-0.935-0.344-1.699-0.968-2.155
			c-0.55-0.41-1.146-0.578-2.048-0.578H100.626z M104.677,44.112c0.786,0,1.274,0.133,1.732,0.477
			c0.489,0.353,0.758,0.969,0.758,1.729c0,1.127-0.69,2.444-2.638,2.444c0,0-3.184,0-3.642,0c0-0.45,0-4.2,0-4.65
			C101.35,44.112,104.677,44.112,104.677,44.112z"/>
		<path fill="#0B0204" d="M91.962,55.509c0,0-7.204,0-8.316,0c0-0.846,0-2.854,0-3.695c1.08,0,7.093,0,7.093,0v-3.615
			c0,0-6.013,0-7.093,0c0-0.829,0-2.72,0-3.55c1.112,0,8.316,0,8.316,0v-3.758h-0.66H79.741v18.375h12.221V55.509z"/>
		<path fill="#7A7A7A" d="M91.302,41.285H80.135v17.588h11.43v-2.971c0,0-7.824,0-8.314,0c0-0.446,0-4.033,0-4.479
			c0.488,0,7.095,0,7.095,0v-2.829c0,0-6.606,0-7.095,0c0-0.444,0-3.897,0-4.339c0.49,0,8.314,0,8.314,0v-2.971H91.302z
			 M91.038,41.811c0,0.37,0,1.548,0,1.915c-0.493,0-8.313,0-8.313,0v5.397c0,0,6.604,0,7.094,0c0,0.359,0,1.414,0,1.774
			c-0.489,0-7.094,0-7.094,0v5.532c0,0,7.82,0,8.313,0c0,0.368,0,1.551,0,1.916c-0.487,0-9.892,0-10.377,0c0-0.5,0-16.031,0-16.534
			C81.146,41.811,90.551,41.811,91.038,41.811z"/>
		<path fill="#0B0204" d="M74.262,40.891h-3.217c0,0-2.556,8.54-3.419,11.43c-0.863-2.89-3.416-11.43-3.416-11.43h-4.131
			l6.063,18.375h2.967l6.064-18.375H74.262z"/>
		<path fill="#7A7A7A" d="M74.262,41.285h-2.925c0,0-3.308,11.066-3.713,12.417c-0.402-1.351-3.709-12.417-3.709-12.417h-3.291
			l5.807,17.588h2.391l5.807-17.588H74.262z M73.9,41.811c-0.218,0.657-5.345,16.19-5.459,16.534c-0.279,0-1.353,0-1.632,0
			c-0.115-0.344-5.241-15.877-5.458-16.534c0.502,0,1.883,0,2.173,0c0.109,0.363,4.077,13.646,4.077,13.646l0.302-0.845
			c0,0,3.714-12.437,3.825-12.8C72.015,41.811,73.4,41.811,73.9,41.811z"/>
		<path fill="#0B0204" d="M59.34,55.509c0,0-7.201,0-8.315,0c0-1.198,0-14.618,0-14.618h-0.657h-3.246v18.375H59.34V55.509z"/>
		<path fill="#7A7A7A" d="M50.368,41.285h-2.851v17.588h11.428v-2.971c0,0-7.82,0-8.316,0c0-0.505,0-14.618,0-14.618H50.368z
			 M50.104,41.811c0,0.507,0,14.618,0,14.618s7.823,0,8.316,0c0,0.368,0,1.551,0,1.916c-0.489,0-9.89,0-10.378,0
			c0-0.5,0-16.031,0-16.534C48.419,41.811,49.729,41.811,50.104,41.811z"/>
		<polygon fill="#0B0204" points="40.528,40.891 39.87,40.891 36.627,40.891 36.627,59.267 40.528,59.267 		"/>
		<path fill="#7A7A7A" d="M39.87,41.285h-2.852v17.588h3.115V41.285H39.87z M39.606,41.811c0,0.503,0,16.034,0,16.534
			c-0.375,0-1.684,0-2.06,0c0-0.5,0-16.031,0-16.534C37.922,41.811,39.231,41.811,39.606,41.811z"/>
		<path fill="#0B0204" d="M24.272,55.509c-1.575,0-3.189-0.567-4.432-1.557L19.35,53.56L16.8,56.466l0.494,0.431
			c1.894,1.669,4.233,2.513,6.953,2.513c4.102,0,6.647-2.148,6.647-5.616c0-2.998-2.061-5.186-5.252-5.569L23.75,47.97
			c-1.188-0.186-1.864-0.744-1.864-1.533c0-1.659,1.678-1.788,2.193-1.788c1.274,0,2.608,0.422,3.866,1.216l0.538,0.343l2.166-3.211
			l-0.55-0.369c-1.891-1.246-3.875-1.882-5.898-1.882c-3.781,0-6.219,2.215-6.219,5.643c0,2.924,1.954,5.01,5.096,5.44
			c0.003,0,0.984,0.142,0.984,0.142l1.275,0.173c1.099,0.136,1.656,0.69,1.656,1.65C26.994,55.059,25.584,55.509,24.272,55.509z"/>
		<path fill="#7A7A7A" d="M18.377,46.389c0,2.712,1.822,4.65,4.757,5.053l0.97,0.134l1.287,0.175
			c1.286,0.162,1.995,0.887,1.995,2.043c0,1.3-1.192,2.108-3.113,2.108c-1.661,0-3.364-0.599-4.677-1.644l-0.196-0.156l-2.04,2.327
			l0.197,0.172c1.817,1.6,4.07,2.414,6.691,2.414c3.858,0,6.254-2,6.254-5.221c0-2.115-1.285-4.737-4.905-5.174l-1.907-0.267
			c-1.377-0.208-2.197-0.925-2.197-1.917c0-1.608,1.337-2.181,2.588-2.181c1.346,0,2.755,0.441,4.078,1.276l0.213,0.138l1.731-2.564
			l-0.223-0.145c-1.819-1.206-3.732-1.816-5.678-1.816C20.663,41.144,18.377,43.202,18.377,46.389z M28.205,44.977
			c-1.338-0.797-2.755-1.25-4.125-1.25c-1.893,0-3.115,1.065-3.115,2.71c0,0.986,0.694,2.144,2.645,2.44l1.923,0.266
			c3.273,0.393,4.443,2.66,4.443,4.652c0,2.939-2.144,4.694-5.729,4.694c-2.394,0-4.447-0.727-6.13-2.127
			c0.271-0.31,1.169-1.335,1.373-1.568c1.39,1.034,3.063,1.636,4.782,1.636c2.209,0,3.64-1.034,3.64-2.635
			c0-1.435-0.895-2.368-2.456-2.563l-1.278-0.174l-0.975-0.135c-2.693-0.375-4.301-2.067-4.301-4.534
			c0-2.911,2.03-4.721,5.299-4.721c1.757,0,3.486,0.567,5.147,1.613"/>
		<path fill="#0B0204" d="M25.976,76.039c0-2.997-2.061-5.181-5.247-5.565c-0.006,0-1.897-0.26-1.897-0.26
			c-1.185-0.182-1.865-0.741-1.865-1.53c0-1.659,1.68-1.789,2.193-1.789c1.276,0,2.612,0.418,3.866,1.215l0.541,0.34l2.166-3.21
			l-0.555-0.362c-1.888-1.251-3.871-1.887-5.896-1.887c-3.779,0-6.217,2.216-6.217,5.648c0,2.922,1.952,5.007,5.095,5.442
			c0.003,0,0.981,0.134,0.981,0.134l1.279,0.174c1.1,0.143,1.653,0.696,1.653,1.65c0,1.262-1.403,1.718-2.721,1.718
			c-1.572,0-3.189-0.573-4.429-1.562l-0.491-0.39l-2.549,2.906l0.494,0.435c1.894,1.666,4.233,2.513,6.953,2.513
			C23.427,81.659,25.976,79.507,25.976,76.039z"/>
		<path fill="#7A7A7A" d="M13.458,68.639c0,2.709,1.822,4.644,4.757,5.045l0.916,0.131L20.468,74
			c1.29,0.161,1.999,0.883,1.999,2.039c0,1.3-1.193,2.11-3.116,2.11c-1.665,0-3.369-0.602-4.675-1.646l-0.197-0.158L12.44,78.68
			l0.195,0.171c1.821,1.601,4.072,2.415,6.693,2.415c3.858,0,6.253-2.003,6.253-5.227c0-2.114-1.284-4.737-4.904-5.172l-1.908-0.263
			c-1.376-0.212-2.196-0.927-2.196-1.921c0-1.61,1.334-2.183,2.586-2.183c1.349,0,2.76,0.44,4.078,1.279l0.214,0.137l1.732-2.566
			l-0.222-0.146c-1.825-1.207-3.736-1.818-5.681-1.818C15.742,63.387,13.458,65.448,13.458,68.639z M22.994,76.039
			c0-1.432-0.897-2.366-2.458-2.562l-1.332-0.183l-0.917-0.131c-2.696-0.372-4.305-2.062-4.305-4.525
			c0-2.916,2.031-4.725,5.299-4.725c1.756,0,3.483,0.564,5.148,1.611c-0.235,0.35-0.966,1.429-1.146,1.7
			c-1.337-0.796-2.754-1.25-4.124-1.25c-1.893,0-3.113,1.06-3.113,2.708c0,0.984,0.694,2.144,2.644,2.441l1.925,0.265
			c3.273,0.392,4.441,2.66,4.441,4.649c0,2.945-2.141,4.702-5.728,4.702c-2.39,0-4.445-0.729-6.131-2.13
			c0.271-0.312,1.171-1.338,1.375-1.574c1.384,1.036,3.061,1.637,4.779,1.637C21.563,78.674,22.994,77.641,22.994,76.039z"/>
		<path fill="#0B0204" d="M37.875,81.659c3.388,0,5.93-2.086,6.635-5.437l0.168-0.794h-3.96l-0.177,0.383
			c-0.614,1.307-1.487,1.945-2.666,1.945c-1.164,0-1.826-0.628-2.117-1c-0.51-0.655-0.724-0.925-0.724-4.431
			c0-3.505,0.214-3.779,0.725-4.436c0.29-0.369,0.952-0.996,2.116-0.996c1.391,0,2.324,1.007,2.631,2.008l0.146,0.459h4.008
			l-0.146-0.775c-0.635-3.347-3.303-5.596-6.639-5.596c-2.986,0-5.018,1.765-5.918,3.411c-0.613,1.12-0.824,1.717-0.824,5.925
			c0,4.205,0.211,4.803,0.823,5.927C32.857,79.9,34.889,81.659,37.875,81.659z"/>
		<path fill="#0B0204" d="M62.497,68.561c0-1.585-0.703-3.096-1.933-4.141c-1.007-0.875-2.247-1.286-3.898-1.286H50h-0.656v18.383
			h3.903c0,0,0-6.201,0-7.288c0.714,0,1.749,0,2.236,0c0.325,0.667,3.524,7.288,3.524,7.288h4.564c0,0-3.581-6.865-4.131-7.913
			C61.342,72.653,62.497,70.786,62.497,68.561z M53.248,66.749c0.923,0,3.391,0,3.391,0c0.811,0,1.173,0.15,1.502,0.399
			c0.39,0.28,0.599,0.78,0.599,1.412c0,0.994-0.59,2.051-2.246,2.051c0,0-2.336,0-3.246,0
			C53.248,69.755,53.248,67.608,53.248,66.749z"/>
		<path fill="#0B0204" d="M80.493,66.895v-3.761h-0.658H68.277v18.383h12.216v-3.76c0,0-7.199,0-8.314,0c0-0.844,0-2.856,0-3.694
			c1.082,0,7.093,0,7.093,0v-3.618c0,0-6.011,0-7.093,0c0-0.828,0-2.72,0-3.55C73.294,66.895,80.493,66.895,80.493,66.895z"/>
		<path fill="#0B0204" d="M85.913,63.134v18.383h12.218v-3.76c0,0-7.2,0-8.312,0c0-0.844,0-2.856,0-3.694c1.076,0,7.095,0,7.095,0
			v-3.618c0,0-6.019,0-7.095,0c0-0.828,0-2.72,0-3.55c1.112,0,8.312,0,8.312,0v-3.761h-0.656H85.913z"/>
		<path fill="#0B0204" d="M117.006,63.134h-3.247c0,0,0,7.67,0,10.604c-1.68-2.641-6.742-10.604-6.742-10.604h-3.467v18.383h3.902
			c0,0,0-7.668,0-10.606c1.684,2.64,6.745,10.606,6.745,10.606h3.463V63.134H117.006z"/>
		<path fill="#7A7A7A" d="M32.301,66.591c-0.576,1.055-0.774,1.624-0.774,5.735c0,4.118,0.185,4.653,0.774,5.736
			c0.852,1.545,2.763,3.203,5.574,3.203c3.19,0,5.585-1.964,6.251-5.125l0.065-0.317h-3.224l-0.071,0.15
			c-0.676,1.441-1.693,2.176-3.022,2.176c-1.332,0-2.092-0.717-2.427-1.147c-0.613-0.783-0.808-1.196-0.808-4.676
			c0-3.477,0.195-3.894,0.808-4.679c0.332-0.43,1.095-1.146,2.427-1.146c1.591,0,2.656,1.147,3.009,2.283l0.057,0.185h3.243
			l-0.058-0.312c-0.598-3.151-3.111-5.27-6.251-5.27C35.064,63.387,33.153,65.043,32.301,66.591z M32.763,77.81
			c-0.502-0.923-0.711-1.306-0.711-5.483c0-4.183,0.208-4.563,0.711-5.482c0.78-1.414,2.531-2.93,5.112-2.93
			c3.18,0,5.062,2.226,5.624,4.527c-0.513,0-1.954,0-2.201,0c-0.465-1.253-1.652-2.466-3.423-2.466
			c-1.556,0-2.448,0.842-2.842,1.346c-0.742,0.957-0.917,1.533-0.917,5.005c0,3.471,0.175,4.046,0.917,5.001
			c0.395,0.504,1.29,1.347,2.842,1.347l0,0c1.476,0,2.643-0.812,3.404-2.322c0.226,0,1.685,0,2.211,0
			c-0.708,2.697-2.807,4.39-5.616,4.39C35.294,80.741,33.543,79.227,32.763,77.81z"/>
		<path fill="#7A7A7A" d="M50,63.531h-0.26V81.12h3.111c0,0,0-6.799,0-7.289c0.425,0,2.608,0,2.877,0
			c0.141,0.288,3.527,7.289,3.527,7.289h3.662c0,0-3.808-7.297-4.032-7.73c1.978-0.814,3.217-2.619,3.217-4.829
			c0-1.47-0.654-2.869-1.793-3.843c-0.935-0.811-2.095-1.187-3.644-1.187H50z M56.666,64.054c1.417,0,2.465,0.34,3.3,1.062
			c1.025,0.875,1.613,2.128,1.613,3.444c0,2.115-1.173,3.791-3.132,4.475l-0.287,0.101c0,0,3.533,6.768,3.895,7.46
			c-0.599,0-2.217,0-2.468,0c-0.138-0.283-3.525-7.288-3.525-7.288h-3.734c0,0,0,6.802,0,7.288c-0.376,0-1.687,0-2.062,0
			c0-0.5,0-16.038,0-16.542C50.75,64.054,56.666,64.054,56.666,64.054z"/>
		<path fill="#7A7A7A" d="M52.591,65.829h-0.264v5.702h4.167c2.188,0,3.164-1.491,3.164-2.971c0-0.929-0.343-1.696-0.969-2.153
			c-0.552-0.412-1.146-0.578-2.05-0.578H52.591z M56.639,66.354c0.79,0,1.278,0.134,1.739,0.478c0.488,0.357,0.757,0.97,0.757,1.729
			c0,1.132-0.694,2.446-2.641,2.446c0,0-3.184,0-3.642,0c0-0.448,0-4.203,0-4.653C53.312,66.354,56.639,66.354,56.639,66.354z"/>
		<path fill="#7A7A7A" d="M79.835,63.531H68.672V81.12h11.429v-2.971c0,0-7.824,0-8.317,0c0-0.445,0-4.037,0-4.482
			c0.489,0,7.094,0,7.094,0v-2.826c0,0-6.604,0-7.094,0c0-0.443,0-3.896,0-4.34c0.493,0,8.317,0,8.317,0v-2.97H79.835z
			 M79.573,64.054c0,0.369,0,1.554,0,1.922c-0.492,0-8.312,0-8.312,0v5.39c0,0,6.603,0,7.093,0c0,0.361,0,1.414,0,1.774
			c-0.49,0-7.093,0-7.093,0v5.534c0,0,7.82,0,8.312,0c0,0.369,0,1.556,0,1.922c-0.488,0-9.888,0-10.376,0c0-0.5,0-16.038,0-16.542
			C69.686,64.054,79.085,64.054,79.573,64.054z"/>
		<path fill="#7A7A7A" d="M97.475,63.531H86.306V81.12h11.431v-2.971c0,0-7.821,0-8.313,0c0-0.445,0-4.037,0-4.482
			c0.487,0,7.092,0,7.092,0v-2.826c0,0-6.604,0-7.092,0c0-0.443,0-3.896,0-4.34c0.492,0,8.313,0,8.313,0v-2.97H97.475z
			 M97.211,64.054c0,0.369,0,1.554,0,1.922c-0.494,0-8.312,0-8.312,0v5.39c0,0,6.603,0,7.091,0c0,0.361,0,1.414,0,1.774
			c-0.488,0-7.091,0-7.091,0v5.534c0,0,7.818,0,8.312,0c0,0.369,0,1.556,0,1.922c-0.488,0-9.89,0-10.378,0c0-0.5,0-16.038,0-16.542
			C87.321,64.054,96.723,64.054,97.211,64.054z"/>
		<path fill="#7A7A7A" d="M117.006,63.531h-2.854c0,0,0,10.118,0,11.557c-0.776-1.223-7.353-11.557-7.353-11.557h-2.855V81.12h3.113
			c0,0,0-10.13,0-11.563c0.775,1.216,7.36,11.563,7.36,11.563h2.85V63.531H117.006z M116.746,64.054c0,0.504,0,16.042,0,16.542
			c-0.396,0-1.815,0-2.041,0c-0.15-0.239-8.122-12.769-8.122-12.769l-0.048,0.904c0,0,0,11.361,0,11.864c-0.378,0-1.687,0-2.062,0
			c0-0.5,0-16.038,0-16.542c0.391,0,1.811,0,2.036,0c0.151,0.239,8.126,12.768,8.126,12.768l0.046-0.903c0,0,0-11.36,0-11.864
			C115.055,64.054,116.364,64.054,116.746,64.054z"/>
		<path fill="#0B0204" d="M34.604,91.406c-0.257,0.547-0.619,0.817-1.104,0.817c-0.476,0-0.749-0.255-0.868-0.408
			c-0.22-0.284-0.303-0.39-0.303-1.961c0-1.569,0.083-1.673,0.307-1.96c0.115-0.152,0.387-0.406,0.863-0.406
			c0.572,0,0.956,0.42,1.083,0.831l0.096,0.312h2.124l-0.099-0.523c-0.305-1.615-1.593-2.698-3.204-2.698
			c-1.439,0-2.417,0.851-2.854,1.646c-0.317,0.578-0.396,0.926-0.396,2.799c0,1.874,0.079,2.225,0.396,2.805
			c0.437,0.798,1.415,1.647,2.854,1.647c1.635,0,2.863-1.004,3.201-2.621l0.114-0.537h-2.091L34.604,91.406z"/>
		<path fill="#0B0204" d="M41.624,85.477h-0.446h-1.636v8.763h5.922v-2.016c0,0-3.147,0-3.84,0
			C41.624,91.449,41.624,85.477,41.624,85.477z"/>
		<path fill="#0B0204" d="M52.056,85.477H50.75l-3.19,8.763h2.211c0,0,0.465-1.349,0.609-1.764c0.446,0,1.909,0,2.354,0
			c0.143,0.415,0.607,1.764,0.607,1.764h2.211l-3.188-8.763H52.056z M52.092,90.531c-0.419,0-0.651,0-1.071,0
			c0.152-0.455,0.288-0.873,0.535-1.619C51.805,89.658,51.944,90.076,52.092,90.531z"/>
		<path fill="#7A7A7A" d="M30.92,87.204c-0.268,0.49-0.36,0.751-0.36,2.65c0,1.906,0.087,2.154,0.36,2.655
			c0.394,0.72,1.279,1.484,2.581,1.484c1.476,0,2.584-0.907,2.896-2.371l0.033-0.158h-1.504l-0.036,0.074
			c-0.312,0.663-0.778,0.999-1.388,0.999c-0.608,0-0.958-0.329-1.113-0.524c-0.279-0.367-0.369-0.557-0.369-2.159
			c0-1.599,0.09-1.788,0.369-2.149c0.155-0.195,0.502-0.526,1.113-0.526c0.729,0,1.221,0.529,1.379,1.052l0.032,0.091h1.515
			l-0.03-0.155c-0.276-1.463-1.441-2.449-2.896-2.449C32.199,85.717,31.314,86.486,30.92,87.204z M31.149,92.383
			c-0.23-0.422-0.326-0.599-0.326-2.528c0-1.928,0.095-2.102,0.326-2.524c0.359-0.651,1.164-1.347,2.352-1.347
			c1.457,0,2.32,1.016,2.583,2.075c-0.252,0-0.914,0-1.011,0c-0.22-0.581-0.755-1.142-1.572-1.142c-0.721,0-1.137,0.392-1.32,0.625
			c-0.347,0.439-0.426,0.708-0.426,2.312c0,1.605,0.079,1.871,0.426,2.319c0.186,0.234,0.603,0.628,1.32,0.628
			c0.679,0,1.21-0.388,1.566-1.076c0.091,0,0.754,0,1.011,0c-0.331,1.231-1.291,2.007-2.577,2.007
			C32.313,93.732,31.508,93.036,31.149,92.383z"/>
		<path fill="#7A7A7A" d="M41.177,85.788h-1.323v8.137h5.296v-1.387c0,0-3.594,0-3.84,0c0-0.253,0-6.75,0-6.75H41.177z
			 M41.046,86.052c0,0.253,0,6.75,0,6.75s3.595,0,3.84,0c0,0.177,0,0.684,0,0.859c-0.243,0-4.527,0-4.771,0c0-0.246,0-7.359,0-7.609
			C40.299,86.052,40.866,86.052,41.046,86.052z"/>
		<path fill="#7A7A7A" d="M52.056,85.788h-1.089l-2.958,8.137h1.541c0,0,0.553-1.598,0.609-1.757c0.169,0,2.63,0,2.799,0
			c0.055,0.159,0.61,1.757,0.61,1.757h1.541l-2.959-8.137H52.056z M51.964,86.052c0.059,0.168,2.646,7.276,2.77,7.609
			c-0.249,0-0.846,0-0.98,0c-0.055-0.158-0.61-1.756-0.61-1.756H49.97c0,0-0.554,1.598-0.61,1.756c-0.135,0-0.73,0-0.98,0
			c0.122-0.333,2.711-7.441,2.771-7.609C51.286,86.052,51.826,86.052,51.964,86.052z"/>
		<path fill="#7A7A7A" d="M51.422,87.496l-1.197,3.61h2.666l-1.323-3.989L51.422,87.496z M51.556,87.921
			c0.173,0.521,0.879,2.642,0.969,2.921c-0.28,0-1.651,0-1.937,0C50.681,90.562,51.383,88.442,51.556,87.921z"/>
		<path fill="#0B0204" d="M61.624,88.864l-0.871-0.12c-0.473-0.071-0.743-0.282-0.743-0.569c0-0.596,0.546-0.687,0.873-0.687
			c0.561,0,1.153,0.188,1.709,0.541l0.365,0.232l1.153-1.714l-0.371-0.246c-0.896-0.594-1.839-0.893-2.802-0.893
			c-1.8,0-3.01,1.099-3.01,2.743c0,1.425,0.946,2.442,2.475,2.656l0.449,0.061l0.596,0.079c0.575,0.076,0.64,0.391,0.64,0.622
			c0,0.483-0.578,0.653-1.117,0.653c-0.694,0-1.406-0.249-1.957-0.692l-0.332-0.26l-1.355,1.548l0.331,0.295
			c0.902,0.785,2.012,1.192,3.301,1.192c1.978,0,3.21-1.047,3.21-2.736C64.169,90.117,63.171,89.052,61.624,88.864z"/>
		<path fill="#7A7A7A" d="M58.239,88.152c0,1.258,0.846,2.157,2.206,2.343l1.044,0.144c0.597,0.074,0.911,0.396,0.911,0.932
			c0,0.596-0.546,0.968-1.429,0.968c-0.76,0-1.545-0.276-2.152-0.76l-0.097-0.076l-0.958,1.089l0.099,0.084
			c0.844,0.743,1.885,1.119,3.097,1.119c1.786,0,2.896-0.925,2.896-2.424c0-0.981-0.594-2.194-2.271-2.395l-0.876-0.124
			c-0.635-0.095-1.01-0.422-1.01-0.877c0-0.733,0.612-0.996,1.185-0.996c0.621,0,1.271,0.202,1.877,0.587l0.109,0.066l0.806-1.2
			l-0.108-0.072c-0.852-0.559-1.735-0.843-2.629-0.843C59.3,85.717,58.239,86.674,58.239,88.152z M62.665,91.57
			c0-0.667-0.416-1.103-1.143-1.189l-1.044-0.143c-1.235-0.173-1.975-0.952-1.975-2.086c0-1.32,0.958-2.169,2.436-2.169
			c0.8,0,1.593,0.258,2.363,0.735c-0.114,0.173-0.429,0.64-0.517,0.77c-0.617-0.365-1.269-0.571-1.901-0.571
			c-0.878,0-1.447,0.492-1.447,1.258c0,0.459,0.322,0.998,1.228,1.136l0.891,0.122c1.503,0.182,2.041,1.223,2.041,2.138
			c0,1.354-0.985,2.162-2.636,2.162c-1.097,0-2.033-0.346-2.808-0.983c0.142-0.159,0.519-0.591,0.615-0.702
			c0.643,0.477,1.415,0.755,2.205,0.755C62,92.802,62.665,92.316,62.665,91.57z"/>
		<path fill="#0B0204" d="M70.847,88.864c-0.002,0-0.867-0.12-0.867-0.12c-0.473-0.071-0.744-0.282-0.744-0.569
			c0-0.596,0.55-0.687,0.872-0.687c0.563,0,1.155,0.188,1.713,0.541l0.36,0.232l1.16-1.714l-0.376-0.246
			c-0.896-0.594-1.836-0.893-2.8-0.893c-1.798,0-3.012,1.099-3.012,2.743c0,1.425,0.95,2.442,2.476,2.656l0.446,0.061l0.598,0.079
			c0.574,0.076,0.644,0.391,0.644,0.622c0,0.483-0.579,0.653-1.117,0.653c-0.698,0-1.408-0.249-1.96-0.692l-0.33-0.26l-1.358,1.548
			l0.334,0.295c0.9,0.785,2.01,1.192,3.302,1.192c1.978,0,3.209-1.047,3.209-2.736C73.396,90.117,72.395,89.052,70.847,88.864z"/>
		<polygon fill="#0B0204" points="76.646,85.477 76.646,94.239 78.728,94.239 78.728,85.477 78.285,85.477 		"/>
		<path fill="#0B0204" d="M86.466,91.406c-0.257,0.547-0.616,0.817-1.103,0.817c-0.476,0-0.749-0.255-0.867-0.408
			c-0.221-0.284-0.304-0.39-0.304-1.961c0-1.569,0.083-1.673,0.304-1.96c0.118-0.152,0.392-0.406,0.867-0.406
			c0.57,0,0.954,0.42,1.082,0.831l0.096,0.312h2.124l-0.101-0.523c-0.304-1.615-1.589-2.698-3.201-2.698
			c-1.438,0-2.419,0.851-2.854,1.646c-0.317,0.578-0.399,0.926-0.399,2.799c0,1.874,0.082,2.225,0.399,2.805
			c0.435,0.798,1.416,1.647,2.854,1.647c1.636,0,2.859-1.004,3.201-2.621l0.11-0.537h-2.09L86.466,91.406z"/>
		<path fill="#7A7A7A" d="M67.466,88.152c0,1.258,0.844,2.157,2.203,2.343l1.042,0.144c0.6,0.074,0.916,0.396,0.916,0.932
			c0,0.596-0.548,0.968-1.428,0.968c-0.762,0-1.548-0.276-2.155-0.76l-0.097-0.076l-0.953,1.089l0.099,0.084
			c0.839,0.743,1.881,1.119,3.095,1.119c1.785,0,2.897-0.925,2.897-2.424c0-0.981-0.597-2.194-2.274-2.395l-0.879-0.124
			c-0.632-0.095-1.01-0.422-1.01-0.877c0-0.733,0.615-0.996,1.186-0.996c0.621,0,1.271,0.202,1.879,0.587l0.106,0.066l0.81-1.2
			l-0.111-0.072c-0.849-0.559-1.73-0.843-2.626-0.843C68.525,85.717,67.466,86.674,67.466,88.152z M71.889,91.57
			c0-0.667-0.418-1.103-1.146-1.189l-1.038-0.143c-1.237-0.173-1.976-0.952-1.976-2.086c0-1.341,0.934-2.169,2.436-2.169
			c0.8,0,1.592,0.258,2.361,0.735c-0.113,0.171-0.43,0.638-0.52,0.77c-0.612-0.365-1.268-0.571-1.899-0.571
			c-0.88,0-1.444,0.492-1.444,1.258c0,0.459,0.32,0.998,1.227,1.136l0.888,0.122c1.507,0.182,2.043,1.223,2.043,2.138
			c0,1.354-0.985,2.162-2.633,2.162c-1.1,0-2.036-0.346-2.808-0.983c0.141-0.159,0.516-0.591,0.613-0.702
			c0.645,0.477,1.416,0.755,2.206,0.755C71.227,92.802,71.889,92.316,71.889,91.57z"/>
		<path fill="#7A7A7A" d="M78.285,85.788h-1.329v8.137h1.461v-8.137H78.285z M78.153,86.052c0,0.25,0,7.363,0,7.609
			c-0.184,0-0.75,0-0.932,0c0-0.246,0-7.359,0-7.609C77.403,86.052,77.97,86.052,78.153,86.052z"/>
		<path fill="#DBDCDD" d="M130.35,42.174c0,0-1.225,0.205-1.244,0.543c-0.022,0.338,0.548,0.101,0.938,0.171
			c0.386,0.07,1.002-0.247,1.218-0.064s0.572,0.503,0.764,0.425c0.188-0.079,0.395-0.583,0.053-0.73
			C131.737,42.371,130.881,42.103,130.35,42.174z"/>
		<path fill="#7A7A7A" d="M82.782,87.204c-0.266,0.492-0.358,0.757-0.358,2.65c0,1.897,0.093,2.163,0.358,2.655
			c0.394,0.72,1.281,1.484,2.581,1.484c1.476,0,2.588-0.907,2.896-2.371l0.032-0.158h-1.506l-0.034,0.074
			c-0.313,0.663-0.779,0.999-1.388,0.999c-0.605,0-0.959-0.33-1.115-0.525c-0.278-0.363-0.368-0.554-0.368-2.158
			c0-1.601,0.09-1.788,0.37-2.149c0.154-0.195,0.506-0.526,1.113-0.526c0.73,0,1.22,0.529,1.38,1.052l0.03,0.091h1.518l-0.032-0.155
			c-0.279-1.463-1.441-2.449-2.896-2.449C84.063,85.717,83.176,86.486,82.782,87.204z M83.01,92.383
			c-0.228-0.425-0.323-0.6-0.323-2.528c0-1.923,0.096-2.1,0.323-2.524c0.362-0.651,1.168-1.347,2.354-1.347
			c1.456,0,2.319,1.016,2.584,2.075c-0.254,0-0.914,0-1.012,0c-0.219-0.581-0.754-1.142-1.572-1.142
			c-0.72,0-1.138,0.392-1.319,0.625c-0.344,0.439-0.426,0.708-0.426,2.312c0,1.605,0.082,1.874,0.422,2.319
			c0.189,0.234,0.607,0.628,1.323,0.628c0.678,0,1.208-0.388,1.564-1.076c0.09,0,0.755,0,1.016,0
			c-0.332,1.231-1.292,2.007-2.58,2.007C84.178,93.732,83.372,93.035,83.01,92.383z"/>
		<path fill="#0B0204" d="M94.833,88.864l-0.867-0.12c-0.476-0.071-0.744-0.282-0.744-0.569c0-0.596,0.546-0.687,0.87-0.687
			c0.563,0,1.153,0.188,1.713,0.541l0.362,0.232l1.153-1.714l-0.373-0.246c-0.896-0.594-1.834-0.893-2.8-0.893
			c-1.8,0-3.009,1.099-3.009,2.743c0,1.425,0.949,2.442,2.477,2.656l0.444,0.061l0.596,0.079c0.576,0.076,0.642,0.391,0.642,0.622
			c0,0.483-0.575,0.653-1.117,0.653c-0.694,0-1.408-0.249-1.954-0.692l-0.333-0.26l-1.354,1.548l0.328,0.295
			c0.902,0.785,2.014,1.192,3.306,1.192c1.981,0,3.209-1.047,3.209-2.736C97.381,90.117,96.381,89.052,94.833,88.864z"/>
		<path fill="#7A7A7A" d="M91.45,88.152c0,1.258,0.848,2.157,2.207,2.343l1.042,0.144c0.594,0.074,0.91,0.396,0.91,0.932
			c0,0.596-0.55,0.968-1.43,0.968c-0.764,0-1.542-0.276-2.149-0.76l-0.097-0.076l-0.959,1.089l0.098,0.084
			c0.846,0.743,1.886,1.119,3.1,1.119c1.787,0,2.896-0.925,2.896-2.424c0-0.981-0.593-2.194-2.272-2.395l-0.879-0.124
			c-0.635-0.095-1.01-0.422-1.01-0.877c0-0.733,0.613-0.996,1.186-0.996c0.622,0,1.273,0.2,1.879,0.587l0.106,0.066l0.81-1.2
			l-0.111-0.072c-0.847-0.559-1.734-0.843-2.628-0.843C92.51,85.717,91.45,86.674,91.45,88.152z M95.871,91.57
			c0-0.667-0.416-1.103-1.14-1.189l-1.04-0.143c-1.237-0.173-1.978-0.952-1.978-2.086c0-1.341,0.934-2.169,2.434-2.169
			c0.802,0,1.596,0.258,2.365,0.735c-0.117,0.171-0.43,0.64-0.52,0.77c-0.614-0.365-1.268-0.571-1.901-0.571
			c-0.88,0-1.446,0.492-1.446,1.258c0,0.459,0.32,0.998,1.23,1.136l0.888,0.122c1.504,0.182,2.043,1.223,2.043,2.138
			c0,1.354-0.985,2.162-2.635,2.162c-1.1,0-2.034-0.346-2.812-0.983c0.144-0.159,0.52-0.591,0.618-0.702
			c0.634,0.47,1.423,0.755,2.201,0.755C95.207,92.802,95.871,92.316,95.871,91.57z"/>
		<path fill="#0B0204" d="M9.244,33.162c-4.009,0-7.273,3.263-7.273,7.271v62.137h127.947V40.434c0-4.009-3.263-7.271-7.271-7.271
			H9.244z M3.161,40.434c0-3.354,2.729-6.083,6.083-6.083h113.403c3.354,0,6.077,2.729,6.077,6.083c0,0,0,59.779,0,60.947
			c-1.17,0-124.39,0-125.562,0C3.161,100.213,3.161,40.434,3.161,40.434z"/>
		<path fill="#DBDCDD" d="M0.148,46.466c-1.63,0.935-2.645,2.678-2.645,4.555v52.048c0,0.328,0.269,0.596,0.598,0.596
			c0.33,0,0.599-0.268,0.599-0.596V51.021c0-1.451,0.781-2.796,2.042-3.516c0.285-0.163,0.384-0.529,0.223-0.814
			C0.801,46.402,0.434,46.305,0.148,46.466z"/>
		<path fill="#DBDCDD" d="M130.478,46.692c-0.162,0.285-0.062,0.651,0.224,0.814c1.258,0.72,2.043,2.064,2.043,3.516v52.048
			c0,0.328,0.265,0.596,0.597,0.596s0.596-0.268,0.596-0.596V51.021c0-1.877-1.012-3.62-2.644-4.555
			C131.009,46.305,130.644,46.405,130.478,46.692z"/>
		<path fill="#9E9E9D" d="M37.568,41.675c0,0-0.61-0.939-0.61,0.226c0,1.166,0.146,15.864,0.146,16.139
			c0,0.273,0.431,0.819,0.464,0.169c0.035-0.647,0.199-16.069,0.199-16.069S37.866,41.621,37.568,41.675z"/>
		<path fill="#9E9E9D" d="M48.04,41.4c0,0-0.528-0.459-0.528,0.705c0,1.167,0.119,15.386,0.119,15.66
			c0,0.275,0.378,0.821,0.409,0.172c0.028-0.652,0.174-16.072,0.174-16.072S48.301,41.346,48.04,41.4z"/>
		<path fill="#9E9E9D" d="M61.497,41.572c0,0-0.571-0.414-0.176,0.737c0.395,1.155,5.26,15.318,5.354,15.589
			c0.092,0.271,0.615,0.697,0.421,0.045c-0.193-0.654-5.286-15.964-5.286-15.964S61.713,41.438,61.497,41.572z"/>
		<path fill="#9E9E9D" d="M71.938,41.744c0,0-0.334-0.469-0.575,0.327c-0.242,0.794-3.136,10.549-3.195,10.736
			c-0.055,0.188,0.182,0.667,0.342,0.233c0.162-0.44,3.493-10.929,3.493-10.929S72.19,41.781,71.938,41.744z"/>
		<path fill="#9E9E9D" d="M22.153,41.727c0,0-2.809,0.344-3.494,3.291c-0.685,2.947,1.167,4.453,1.167,4.453s0.616,0.274,0.067-0.75
			c-0.549-1.029-1.234-1.166-0.822-3.498c0.411-2.331,3.151-2.947,3.151-2.947S22.565,41.659,22.153,41.727z"/>
		<path fill="#9E9E9D" d="M28.642,54.064c0.147-1.297-1.005-2.262-1.348-2.331c-0.343-0.067-0.343,0.277-0.343,0.277
			c0.547,0.272,1.098,0.958,0.96,1.984c-0.139,1.028-0.687,1.441-1.236,1.852c0,0-0.41,0.067-0.41,0.169
			c0,0.105,0.136,0.208,0.273,0.208C26.676,56.224,28.472,55.573,28.642,54.064z"/>
		<path fill="#9E9E9D" d="M81.024,41.675c0,0-0.443-0.152-0.443,1.015c0,1.162,0.035,15.075,0.035,15.351
			c0,0.273,0.379,0.819,0.408,0.169c0.03-0.647,0.18-16.069,0.18-16.069S81.291,41.621,81.024,41.675z"/>
		<path fill="#9E9E9D" d="M98.664,41.491c0,0-0.409,0.331-0.409,1.494c0,1.165,0,14.599,0,14.871c0,0.274,0.38,0.821,0.409,0.172
			c0.028-0.652,0.175-16.07,0.175-16.07S98.925,41.438,98.664,41.491z"/>
		<path fill="#9E9E9D" d="M50.542,63.972c0,0-0.461,0.328-0.461,1.495c0,1.163,0,14.597,0,14.869c0,0.274,0.428,0.82,0.461,0.17
			c0.034-0.648,0.2-16.069,0.2-16.069S50.84,63.918,50.542,63.972z"/>
		<path fill="#9E9E9D" d="M69.733,63.878c0,0-0.474-0.242-0.474,0.922c0,1.166,0.01,15.172,0.01,15.446
			c0,0.271,0.432,0.819,0.464,0.17c0.032-0.647,0.198-16.07,0.198-16.07S70.031,63.827,69.733,63.878z"/>
		<path fill="#9E9E9D" d="M87.184,63.972c0,0-0.469-0.29-0.469,0.876c0,1.165,0.009,15.216,0.009,15.488
			c0,0.274,0.428,0.82,0.46,0.17c0.035-0.648,0.201-16.069,0.201-16.069S87.483,63.918,87.184,63.972z"/>
		<path fill="#9E9E9D" d="M104.915,63.878c0,0-0.565-0.148-0.565,1.014c0,1.166,0.104,15.08,0.104,15.354
			c0,0.271,0.43,0.819,0.462,0.17c0.034-0.647,0.196-16.07,0.196-16.07S105.211,63.827,104.915,63.878z"/>
		<path fill="#9E9E9D" d="M115.223,64.478c0,0-0.594-0.694-0.594,0.144c0,0.836,0.006,12.002,0.006,12.2
			c0,0.197,0.556-0.006,0.588-0.47c0.032-0.472,0.198-11.541,0.198-11.541S115.521,64.438,115.223,64.478z"/>
		<path fill="#9E9E9D" d="M114.469,81.021c0,0,0.236-0.494-0.319-1.398c-0.557-0.899-6.973-11.285-7.104-11.498
			c-0.13-0.21-0.756-0.406-0.475,0.113c0.286,0.521,7.505,12.53,7.505,12.53S114.237,81.221,114.469,81.021z"/>
		<path fill="#9E9E9D" d="M58.42,56.241c0,0-0.157-0.388-0.713-0.388c-0.558,0.003-6.974,0.03-7.107,0.03
			c-0.132,0.002-0.391,0.365-0.079,0.392c0.311,0.028,7.68,0.137,7.68,0.137S58.446,56.495,58.42,56.241z"/>
		<path fill="#9E9E9D" d="M17.402,64.119c0,0-2.809,0.341-3.494,3.288c-0.687,2.945,1.164,4.456,1.164,4.456
			s0.616,0.271,0.068-0.755c-0.547-1.029-1.232-1.167-0.823-3.496c0.413-2.33,3.154-2.947,3.154-2.947S17.815,64.048,17.402,64.119z
			"/>
		<path fill="#9E9E9D" d="M23.616,76.544c0.148-1.295-1.005-2.285-1.346-2.353c-0.344-0.068-0.344,0.273-0.344,0.273
			c0.547,0.274,1.098,0.959,0.958,1.986c-0.136,1.029-0.684,1.442-1.231,1.851c0,0-0.413,0.071-0.413,0.171
			c0,0.104,0.138,0.207,0.274,0.207C21.653,78.68,23.444,78.052,23.616,76.544z"/>
		<path fill="#9E9E9D" d="M59.986,68.96c0.146-1.295-1.006-2.285-1.349-2.354c-0.341-0.066-0.341,0.275-0.341,0.275
			c0.548,0.272,1.095,0.959,0.957,1.987c-0.135,1.028-0.685,1.438-1.232,1.849c0,0-0.411,0.069-0.411,0.173s0.135,0.207,0.273,0.207
			C58.021,71.097,59.813,70.467,59.986,68.96z"/>
		<path fill="#9E9E9D" d="M108.143,46.756c0.147-1.297-1.006-2.287-1.348-2.354c-0.346-0.07-0.346,0.272-0.346,0.272
			c0.552,0.275,1.1,0.961,0.961,1.99c-0.138,1.028-0.684,1.439-1.231,1.849c0,0-0.414,0.069-0.414,0.174
			c0,0.102,0.139,0.203,0.274,0.203C106.179,48.89,107.971,48.26,108.143,46.756z"/>
		<path fill="#9E9E9D" d="M91.594,56.241c0,0-0.161-0.388-0.718-0.388c-0.556,0.003-6.976,0.03-7.104,0.03
			c-0.132,0.002-0.39,0.365-0.079,0.392c0.308,0.028,7.68,0.137,7.68,0.137S91.62,56.495,91.594,56.241z"/>
		<path fill="#9E9E9D" d="M90.232,48.846c0,0-0.132-0.393-0.594-0.392c-0.464,0.003-5.799,0.025-5.906,0.024
			c-0.108,0.001-0.322,0.368-0.066,0.395c0.26,0.027,6.385,0.144,6.385,0.144S90.255,49.098,90.232,48.846z"/>
		<path fill="#9E9E9D" d="M35.131,64.069c0,0-2.902,1.065-3.336,4.617c0,0-0.32,5.024-0.093,6.302c0,0,0.138,2.515,0.869,3.43
			c0.731,0.913,1.691,1.735,1.964,1.735c0.275,0,0.183-0.182-0.136-0.502c-0.32-0.32-2.377-0.687-2.331-6.902
			c0.046-6.21,1.052-6.76,1.415-7.034c0.367-0.271,1.601-1.235,1.601-1.235S35.586,63.933,35.131,64.069z"/>
		<path fill="#9E9E9D" d="M79.803,78.587c0,0-0.154-0.395-0.714-0.391c-0.558,0.004-6.977,0.029-7.106,0.029
			c-0.134,0.002-0.392,0.367-0.078,0.393c0.311,0.027,7.679,0.136,7.679,0.136S79.829,78.838,79.803,78.587z"/>
		<path fill="#9E9E9D" d="M78.443,71.186c0,0-0.13-0.388-0.594-0.388c-0.462,0.002-5.797,0.024-5.905,0.024
			c-0.111,0.002-0.325,0.367-0.069,0.394c0.26,0.026,6.385,0.142,6.385,0.142S78.467,71.437,78.443,71.186z"/>
		<path fill="#9E9E9D" d="M97.486,78.722c0,0-0.159-0.39-0.714-0.388c-0.558,0.003-6.976,0.028-7.107,0.028
			c-0.131,0.001-0.393,0.364-0.08,0.392c0.312,0.028,7.682,0.139,7.682,0.139S97.513,78.975,97.486,78.722z"/>
		<path fill="#9E9E9D" d="M96.125,71.324c0,0-0.13-0.387-0.592-0.387c-0.466,0.001-5.799,0.022-5.906,0.022
			c-0.108,0.004-0.324,0.365-0.066,0.393c0.26,0.027,6.383,0.145,6.383,0.145S96.147,71.576,96.125,71.324z"/>
		<path fill="#9E9E9D" d="M40.659,67.327c0,0,0.547,0.719,0.547,1.369c0,0,0.035,0.274,0.343,0.138
			c0.308-0.138-0.272-1.133-0.409-1.335C41.001,67.291,40.932,67.119,40.659,67.327z"/>
		<path fill="#9E9E9D" d="M40.295,77.379c0,0,0.703-0.568,0.857-1.199c0,0,0.098-0.256,0.366-0.053
			c0.267,0.206-0.535,1.032-0.718,1.2C40.618,77.495,40.512,77.644,40.295,77.379z"/>
		<path fill="#9E9E9D" d="M32.994,86.916c0,0-1.114,0.384-1.261,1.604c0,0-0.096,1.721-0.018,2.158c0,0,0.075,0.955,0.326,1.269
			c0.251,0.314,0.643,0.602,0.736,0.602c0.094,0,0.074-0.178-0.036-0.287c-0.107-0.109-0.814-0.235-0.797-2.368
			c0.016-2.131,0.302-2.212,0.486-2.415c0.105-0.116,0.656-0.346,0.656-0.346S33.15,86.869,32.994,86.916z"/>
		<path fill="#9E9E9D" d="M34.693,87.749c0,0,0.187,0.245,0.187,0.471c0,0,0.012,0.093,0.118,0.048
			c0.104-0.048-0.028-0.467-0.142-0.46C34.772,87.811,34.787,87.679,34.693,87.749z"/>
		<path fill="#9E9E9D" d="M34.578,91.912c0,0,0.243-0.196,0.294-0.413c0,0,0.035-0.089,0.126-0.02
			c0.09,0.072-0.104,0.373-0.166,0.434C34.772,91.972,34.652,92.003,34.578,91.912z"/>
		<path fill="#9E9E9D" d="M40.202,86.004c0,0-0.17,0.15-0.17,0.686c0,0.533,0,6.697,0,6.824c0,0.124,0.159,0.374,0.17,0.078
			c0.012-0.301,0.074-7.375,0.074-7.375S40.312,85.98,40.202,86.004z"/>
		<path fill="#9E9E9D" d="M45.046,92.804c0,0-0.078-0.19-0.351-0.188c-0.271,0-3.4,0.014-3.464,0.014
			c-0.066,0.001-0.192,0.175-0.039,0.188c0.153,0.014,3.744,0.066,3.744,0.066S45.058,92.923,45.046,92.804z"/>
		<path fill="#9E9E9D" d="M48.106,93.951c0,0-0.172-0.082,0.042-0.654c0.219-0.572,2.71-7.187,2.762-7.322
			c0.051-0.137,0.326-0.351,0.222-0.028c-0.11,0.327-2.905,7.938-2.905,7.938S48.217,94.014,48.106,93.951z"/>
		<path fill="#9E9E9D" d="M53.753,93.661c0,0-0.361-0.772-0.485-1.173c-0.124-0.396-1.665-4.978-1.696-5.071
			c-0.029-0.094,0.065-0.358,0.146-0.142c0.081,0.218,1.79,5.46,1.79,5.46S53.866,93.629,53.753,93.661z"/>
		<path fill="#9E9E9D" d="M52.889,91.014c0,0-0.05-0.15-0.229-0.149c-0.18,0-2.241,0.011-2.282,0.011
			c-0.042,0-0.126,0.139-0.027,0.149c0.099,0.011,2.468,0.056,2.468,0.056S52.896,91.109,52.889,91.014z"/>
		<path fill="#9E9E9D" d="M60.43,86.684c0,0-0.9,0.109-1.119,1.053c-0.219,0.947,0.374,1.427,0.374,1.427s0.196,0.089,0.02-0.24
			s-0.307-0.321-0.176-1.07c0.131-0.747,0.921-0.994,0.921-0.994S60.561,86.663,60.43,86.684z"/>
		<path fill="#9E9E9D" d="M62.832,91.696c0.066-0.576-0.445-1.016-0.598-1.046c-0.153-0.029-0.153,0.121-0.153,0.121
			c0.244,0.123,0.488,0.428,0.426,0.883c-0.06,0.458-0.305,0.644-0.547,0.823c0,0-0.183,0.032-0.183,0.077s0.059,0.092,0.121,0.092
			S62.755,92.366,62.832,91.696z"/>
		<path fill="#9E9E9D" d="M69.613,86.684c0,0-0.899,0.109-1.12,1.053c-0.218,0.947,0.374,1.427,0.374,1.427s0.196,0.089,0.022-0.24
			c-0.176-0.329-0.308-0.321-0.18-1.07c0.134-0.747,0.925-0.994,0.925-0.994S69.745,86.663,69.613,86.684z"/>
		<path fill="#9E9E9D" d="M72.015,91.696c0.064-0.576-0.446-1.016-0.598-1.046c-0.15-0.029-0.15,0.121-0.15,0.121
			c0.242,0.123,0.482,0.428,0.424,0.883c-0.062,0.458-0.304,0.644-0.548,0.823c0,0-0.182,0.032-0.182,0.077s0.06,0.092,0.118,0.092
			C71.143,92.646,71.938,92.366,72.015,91.696z"/>
		<path fill="#9E9E9D" d="M76.962,94.037c0,0,0.22-0.16,0.22-0.732s0-7.174,0-7.308c0-0.136-0.204-0.404-0.22-0.084
			c-0.019,0.32-0.097,7.896-0.097,7.896S76.819,94.064,76.962,94.037z"/>
		<path fill="#9E9E9D" d="M84.79,87.046c0,0-1.112,0.387-1.26,1.608c0,0-0.097,1.72-0.019,2.158c0,0,0.076,0.953,0.326,1.267
			c0.248,0.314,0.642,0.599,0.734,0.599c0.094,0,0.077-0.174-0.034-0.282c-0.108-0.11-0.816-0.237-0.8-2.37
			c0.018-2.131,0.302-2.211,0.487-2.413c0.104-0.116,0.656-0.349,0.656-0.349S84.947,86.999,84.79,87.046z"/>
		<path fill="#9E9E9D" d="M86.485,87.882c0,0,0.192,0.245,0.192,0.47c0,0,0.012,0.094,0.115,0.049
			c0.108-0.049-0.027-0.466-0.14-0.462C86.567,87.944,86.583,87.811,86.485,87.882z"/>
		<path fill="#9E9E9D" d="M86.373,92.043c0,0,0.242-0.196,0.294-0.412c0,0,0.036-0.089,0.126-0.019
			c0.093,0.071-0.1,0.375-0.162,0.433C86.565,92.102,86.447,92.133,86.373,92.043z"/>
		<path fill="#9E9E9D" d="M93.739,86.684c0,0-0.901,0.109-1.121,1.053c-0.22,0.947,0.374,1.427,0.374,1.427s0.195,0.089,0.021-0.24
			c-0.176-0.329-0.31-0.321-0.18-1.07c0.132-0.747,0.926-0.994,0.926-0.994S93.87,86.663,93.739,86.684z"/>
		<path fill="#9E9E9D" d="M96.141,91.696c0.066-0.576-0.451-1.016-0.602-1.046c-0.151-0.029-0.151,0.121-0.151,0.121
			c0.243,0.123,0.489,0.428,0.428,0.883c-0.061,0.458-0.307,0.644-0.55,0.823c0,0-0.181,0.032-0.181,0.077s0.059,0.092,0.12,0.092
			C95.266,92.646,96.063,92.366,96.141,91.696z"/>
		<path fill="#DFE0E1" d="M37.026,41.693c0,0-0.149-0.369-0.008-0.408c0.144-0.036,0.488-0.069,0.625-0.036
			c0.137,0.035,0.103,0.274,0.172,0.479c0.067,0.207,0.067,0.344-0.102,0.274C37.54,41.934,37.026,41.693,37.026,41.693z"/>
		<path fill="#DFE0E1" d="M47.478,41.693c0,0-0.15-0.369-0.007-0.408c0.145-0.036,0.486-0.069,0.624-0.036
			c0.137,0.035,0.101,0.274,0.17,0.479c0.07,0.207,0.07,0.344-0.101,0.274C47.993,41.934,47.478,41.693,47.478,41.693z"/>
		<path fill="#DFE0E1" d="M60.877,41.727c0,0-0.151-0.369-0.007-0.408c0.143-0.036,0.487-0.07,0.625-0.036
			c0.135,0.034,0.102,0.274,0.171,0.477c0.069,0.208,0.069,0.344-0.105,0.277C61.39,41.968,60.877,41.727,60.877,41.727z"/>
		<path fill="#DFE0E1" d="M71.363,41.727c0,0-0.15-0.369-0.007-0.408c0.141-0.036,0.484-0.07,0.62-0.036
			c0.14,0.034,0.104,0.274,0.172,0.477c0.068,0.208,0.068,0.344-0.102,0.277C71.875,41.968,71.363,41.727,71.363,41.727z"/>
		<path fill="#DFE0E1" d="M80.407,42.037c0,0-0.15-0.373-0.005-0.41c0.145-0.037,0.484-0.07,0.622-0.037
			c0.138,0.034,0.103,0.275,0.174,0.481c0.066,0.205,0.066,0.341-0.107,0.272C80.921,42.276,80.407,42.037,80.407,42.037z"/>
		<path fill="#DFE0E1" d="M21.743,41.772c0,0,0.902-0.115,1.218-0.057c0.314,0.055,0.511,0.253,0.178,0.296
			c-0.333,0.046-1.126,0.323-1.425,0.428c-0.296,0.106-0.82,0.432-1.002,0.399C20.533,42.807,20.578,42.302,21.743,41.772z"/>
		<path fill="#DFE0E1" d="M27.123,56.089c0,0-0.76,0.275-1.044,0.287c-0.284,0.011-0.494-0.121-0.211-0.226
			c0.28-0.102,0.914-0.496,1.153-0.644c0.236-0.147,0.625-0.536,0.79-0.54C27.972,54.961,28.03,55.409,27.123,56.089z"/>
		<path fill="#DFE0E1" d="M68.302,52.308c0,0-0.112,0.266-0.143,0.402c-0.031,0.138-0.193,0.61-0.004,0.667
			c0.19,0.058,0.314-0.354,0.382-0.563c0.072-0.216,0.179-0.459,0.16-0.617C68.678,52.04,68.514,52.085,68.302,52.308z"/>
		<path fill="#DFE0E1" d="M106.772,48.822c0,0-0.762,0.275-1.046,0.284c-0.285,0.01-0.491-0.118-0.214-0.222
			c0.282-0.103,0.918-0.499,1.156-0.647c0.239-0.146,0.628-0.533,0.789-0.538C107.62,47.693,107.679,48.139,106.772,48.822z"/>
		<path fill="#DFE0E1" d="M98.137,42.037c0,0-0.15-0.373-0.008-0.41c0.142-0.037,0.485-0.07,0.624-0.037
			c0.138,0.034,0.102,0.275,0.172,0.481c0.069,0.205,0.069,0.341-0.104,0.272C98.648,42.276,98.137,42.037,98.137,42.037z"/>
		<path fill="#DFE0E1" d="M16.534,64.252c0,0,0.904-0.111,1.218-0.056s0.512,0.253,0.178,0.296
			c-0.332,0.043-1.126,0.321-1.424,0.427c-0.297,0.104-0.822,0.435-1,0.4C15.324,65.288,15.371,64.781,16.534,64.252z"/>
		<path fill="#DFE0E1" d="M21.914,78.571c0,0-0.76,0.272-1.044,0.284s-0.494-0.12-0.213-0.223c0.282-0.106,0.916-0.499,1.152-0.645
			c0.24-0.148,0.63-0.534,0.792-0.54C22.763,77.44,22.821,77.886,21.914,78.571z"/>
		<path fill="#DFE0E1" d="M35.176,64.162c0,0,0.902-0.114,1.217-0.057c0.314,0.057,0.512,0.25,0.178,0.296s-1.126,0.322-1.426,0.426
			c-0.297,0.104-0.82,0.434-1,0.399C33.965,65.193,34.011,64.689,35.176,64.162z"/>
		<path fill="#DFE0E1" d="M40.663,77.723c0,0-0.568,0.225-0.781,0.234c-0.212,0.008-0.368-0.101-0.158-0.187
			c0.209-0.085,0.684-0.411,0.86-0.531c0.177-0.121,0.469-0.439,0.588-0.443C41.294,76.791,41.339,77.159,40.663,77.723z"/>
		<path fill="#DFE0E1" d="M58.341,71.152c0,0-0.76,0.271-1.044,0.284c-0.284,0.013-0.493-0.12-0.212-0.221
			c0.281-0.104,0.916-0.5,1.152-0.647c0.239-0.148,0.629-0.53,0.791-0.537C59.19,70.022,59.248,70.472,58.341,71.152z"/>
		<path fill="#DFE0E1" d="M69.213,64.558c0,0-0.149-0.544-0.006-0.598c0.145-0.054,0.488-0.104,0.622-0.054
			c0.138,0.05,0.103,0.401,0.172,0.703c0.07,0.3,0.07,0.5-0.104,0.4C69.728,64.909,69.213,64.558,69.213,64.558z"/>
		<path fill="#DFE0E1" d="M86.715,64.389c0,0-0.151-0.369-0.008-0.406c0.145-0.037,0.484-0.073,0.622-0.037
			c0.14,0.035,0.104,0.276,0.174,0.479c0.068,0.204,0.068,0.344-0.104,0.275C87.228,64.628,86.715,64.389,86.715,64.389z"/>
		<path fill="#DFE0E1" d="M104.305,64.209c0,0-0.149-0.373-0.006-0.409c0.143-0.039,0.484-0.072,0.624-0.039
			c0.136,0.035,0.101,0.275,0.17,0.48c0.07,0.208,0.07,0.344-0.104,0.274C104.817,64.449,104.305,64.209,104.305,64.209z"/>
		<path fill="#DFE0E1" d="M114.539,64.209c0,0-0.15-0.373-0.006-0.409c0.144-0.039,0.485-0.072,0.621-0.039
			c0.139,0.035,0.104,0.275,0.172,0.48c0.068,0.208,0.068,0.344-0.102,0.274C115.053,64.449,114.539,64.209,114.539,64.209z"/>
		<path fill="#DFE0E1" d="M114.747,75.187c0,0-0.097,0.392-0.108,0.585c-0.012,0.192-0.132,0.875,0.148,0.906
			c0.279,0.034,0.355-0.563,0.407-0.859c0.048-0.313,0.139-0.672,0.078-0.881C115.213,74.727,114.99,74.829,114.747,75.187z"/>
		<path fill="#DFE0E1" d="M50.048,64.175c0,0-0.044,0.367-0.031,0.543c0.011,0.178-0.017,0.813,0.237,0.813
			c0.253,0.002,0.254-0.547,0.261-0.824c0.01-0.287,0.05-0.625-0.029-0.812C50.407,63.711,50.222,63.827,50.048,64.175z"/>
		<path fill="#DFE0E1" d="M17.442,25.836c0,0,1.379-0.185,1.859-0.1c0.482,0.088,0.781,0.391,0.271,0.462
			c-0.51,0.071-1.722,0.507-2.177,0.668c-0.455,0.165-1.256,0.675-1.53,0.627C15.589,27.444,15.663,26.66,17.442,25.836z"/>
		<path fill="#DFE0E1" d="M86.167,25.964c0,0-0.972-0.646-0.755-0.684c0.216-0.037,1.729,0.037,1.933,0.067
			c0.206,0.036,0.158,0.275,0.257,0.479c0.104,0.209,0.104,0.346-0.152,0.276C87.191,26.035,86.167,25.964,86.167,25.964z"/>
		<path fill="#3B3A3C" d="M-0.179,109.331c5.781,0.085,129.39,0,129.39,0s3.556,0.085,2.666-0.253
			c-0.888-0.34-2.666-0.679-2.666-0.679L3.878,108.242l-7.858-0.009c0,0-0.823,0.678-0.091,1.014
			C-3.341,109.584-0.179,109.331-0.179,109.331z"/>
		<path fill="#DFE0E1" d="M32.817,87.011c0,0,0.43-0.145,0.579-0.118c0.149,0.027,0.245,0.117,0.086,0.137
			c-0.158,0.019-0.537,0.138-0.679,0.186c-0.142,0.044-0.391,0.188-0.476,0.174C32.241,87.372,32.265,87.243,32.817,87.011z"/>
		<path fill="#DFE0E1" d="M60.179,86.757c0,0,0.425-0.146,0.577-0.118c0.149,0.028,0.245,0.117,0.087,0.135
			c-0.159,0.019-0.536,0.139-0.678,0.186c-0.142,0.045-0.39,0.189-0.477,0.174C59.602,87.117,59.625,86.988,60.179,86.757z"/>
		<path fill="#DFE0E1" d="M69.394,86.757c0,0,0.428-0.146,0.58-0.118c0.151,0.028,0.245,0.117,0.086,0.135
			c-0.16,0.019-0.536,0.139-0.677,0.186c-0.142,0.045-0.392,0.189-0.478,0.174C68.821,87.117,68.842,86.988,69.394,86.757z"/>
		<path fill="#DFE0E1" d="M84.662,87.148c0,0,0.428-0.145,0.579-0.118c0.152,0.026,0.244,0.115,0.086,0.135
			c-0.159,0.02-0.535,0.14-0.676,0.184c-0.144,0.045-0.392,0.192-0.476,0.177C84.086,87.511,84.108,87.379,84.662,87.148z"/>
		<path fill="#DFE0E1" d="M93.436,86.739c0,0,0.428-0.147,0.578-0.12c0.15,0.03,0.244,0.118,0.086,0.137
			c-0.158,0.018-0.536,0.14-0.678,0.184c-0.141,0.046-0.39,0.19-0.478,0.173C92.86,87.098,92.884,86.969,93.436,86.739z"/>
		<path fill="#DFE0E1" d="M50.964,85.986c0,0-0.051-0.186-0.002-0.203c0.046-0.019,0.165-0.035,0.211-0.019
			c0.048,0.018,0.034,0.137,0.058,0.239c0.023,0.103,0.023,0.169-0.035,0.138C51.137,86.106,50.964,85.986,50.964,85.986z"/>
		<path fill="#DFE0E1" d="M77.004,85.941c0,0-0.049-0.186,0-0.206c0.048-0.017,0.166-0.033,0.212-0.017s0.034,0.135,0.06,0.238
			c0.024,0.104,0.024,0.173-0.034,0.137C77.182,86.062,77.004,85.941,77.004,85.941z"/>
		<path fill="#DFE0E1" d="M40.008,86.199c0,0-0.052-0.185-0.003-0.202c0.048-0.021,0.165-0.038,0.212-0.021
			c0.047,0.021,0.035,0.14,0.059,0.241c0.022,0.104,0.022,0.17-0.035,0.136C40.181,86.32,40.008,86.199,40.008,86.199z"/>
		<path fill="#DFE0E1" d="M52.491,90.679c0,0,0.037,0.13,0.068,0.186c0.028,0.056,0.109,0.267,0.191,0.229
			c0.086-0.039,0.007-0.216-0.028-0.309c-0.038-0.097-0.073-0.213-0.125-0.263C52.546,90.474,52.499,90.542,52.491,90.679z"/>
		<path fill="#DFE0E1" d="M34.72,92.115c0,0-0.226,0.146-0.314,0.164c-0.09,0.021-0.167-0.013-0.083-0.065
			c0.081-0.054,0.257-0.232,0.323-0.296c0.066-0.07,0.165-0.228,0.215-0.239C34.914,91.666,34.962,91.82,34.72,92.115z"/>
		<path fill="#DFE0E1" d="M86.773,91.888c0,0-0.242,0.193-0.468,0.197c0,0-0.094,0.014-0.042,0.121
			c0.05,0.105,0.464-0.04,0.456-0.152C86.713,91.969,86.846,91.98,86.773,91.888z"/>
		<path fill="#DFE0E1" d="M71.654,91.811c0,0-0.056,0.305-0.22,0.46c0,0-0.06,0.072,0.048,0.117c0.104,0.047,0.32-0.337,0.24-0.414
			C71.661,91.913,71.769,91.831,71.654,91.811z"/>
		<path fill="#DFE0E1" d="M62.47,91.719c0,0-0.055,0.307-0.219,0.461c0,0-0.06,0.07,0.045,0.118
			c0.108,0.045,0.323-0.338,0.242-0.419C62.478,91.82,62.585,91.739,62.47,91.719z"/>
		<path fill="#DFE0E1" d="M95.823,91.856c0,0-0.054,0.307-0.22,0.459c0,0-0.061,0.072,0.044,0.119
			c0.111,0.046,0.326-0.337,0.242-0.417C95.831,91.96,95.939,91.879,95.823,91.856z"/>
		<path fill="#DBDCDD" d="M130.779,103.398c0,0,0.817,0.208,1.062,0.365c0.252,0.157,0.352,0.394,0.052,0.318
			c-0.302-0.074-1.082-0.104-1.373-0.115c-0.29-0.012-0.856,0.094-1,0.006C129.379,103.882,129.596,103.46,130.779,103.398z"/>
	</g>
</g>
<g id="Colour">
	<path fill="#FFFFFF" stroke="#FFFFFF" d="M127.51,40.632H7.255c-3.726,0-6.755,3.029-6.755,6.753v57.719h133.77V47.385
		C134.27,43.661,131.236,40.632,127.51,40.632z M131.62,102.462H3.142V47.385c0-2.267,1.845-4.11,4.113-4.11H127.51
		c2.268,0,4.11,1.844,4.11,4.11V102.462z"/>
	<path fill="#FFFFFF" stroke="#FFFFFF" d="M14.821,33.285c-3.724,0-6.757,3.031-6.757,6.755v57.723h118.857V40.04
		c0-3.724-3.03-6.755-6.754-6.755H14.821z"/>
	<path fill="#FFFFFF" stroke="#FFFFFF" d="M110.405,24.842H24.361c-3.726,0-6.755,3.029-6.755,6.756v5.907h99.558v-5.907
		C117.164,27.871,114.133,24.842,110.405,24.842z M114.519,34.862H20.248v-3.264c0-2.267,1.845-4.112,4.113-4.112h86.044
		c2.268,0,4.113,1.845,4.113,4.112V34.862z"/>
	<path fill="#FFFFFF" stroke="#FFFFFF" d="M77.482,8.08V8.063h-0.137V8.08c-3.658,0.072-6.618,3.062-6.618,6.741v35.423h13.377
		V14.821C84.104,11.142,81.146,8.152,77.482,8.08z M81.461,47.603h-8.094V14.821c0-2.232,1.824-4.071,4.066-4.098
		c2.203,0.027,4.027,1.866,4.027,4.098V47.603z"/>
	<path fill="#FFFFFF" stroke="#FFFFFF" d="M50.837,14.821v35.423h13.377V14.821c0-3.68-2.96-6.669-6.618-6.741V8.063h-0.137V8.08
		C53.796,8.152,50.837,11.142,50.837,14.821z M53.481,14.821c0-2.232,1.823-4.071,4.027-4.098c2.243,0.027,4.066,1.866,4.066,4.098
		v32.781h-8.093V14.821z"/>
	<path stroke="#FFFFFF" d="M57.261,10.723c1.395,0.017,2.629,0.737,3.36,1.816c0,0,0,20.746,0,20.746h-7.388V14.821
		C53.232,12.589,55.056,10.75,57.261,10.723z"/>
	<path stroke="#FFFFFF" d="M77.434,10.723c-1.396,0.017-2.629,0.737-3.361,1.816c0,0,0,20.746,0,20.746h7.389V14.821
		C81.461,12.589,79.637,10.75,77.434,10.723z"/>
	<path fill="#FFFFFF" stroke="#FFFFFF" d="M67.451,0.514V0.5h-0.136v0.014c-3.662,0.073-6.62,3.062-6.62,6.742v35.422h13.377V7.256
		C74.072,3.577,71.111,0.587,67.451,0.514z M71.427,40.037h-8.091V7.256c0-2.231,1.824-4.07,4.067-4.098
		c2.201,0.028,4.023,1.867,4.023,4.098V40.037z"/>
	<path stroke="#FFFFFF" d="M71.427,33.285h-8.091V7.256c0-2.231,1.824-4.07,4.067-4.098c2.201,0.028,4.023,1.867,4.023,4.098V33.285
		z"/>
	<path stroke="#FFFFFF" d="M10.709,95.119V40.04c0-2.268,1.844-4.112,4.111-4.112h105.346c2.265,0,4.107,1.845,4.107,4.112v55.079
		H10.709z"/>
	<path fill="#FFFFFF" d="M105.559,49.992c1.837-0.76,2.988-2.435,2.988-4.486c0-1.367-0.606-2.669-1.665-3.57
		c-0.866-0.754-1.943-1.105-3.387-1.106h-6.19h-0.244v16.339h2.894c0,0,0-6.312,0-6.769c0.394,0,2.419,0,2.674,0
		c0.128,0.264,3.272,6.769,3.272,6.769h3.409C109.31,57.169,105.769,50.39,105.559,49.992z M103.337,47.777c0,0-2.957,0-3.383,0
		c0-0.418,0-3.902,0-4.32c0.43,0,3.521,0,3.521,0c0.729,0,1.184,0.124,1.609,0.443c0.454,0.328,0.703,0.9,0.703,1.606
		C105.787,46.553,105.146,47.777,103.337,47.777z"/>
	<path fill="#FFFFFF" d="M91.05,40.831H80.676v16.339h10.618v-2.76c0,0-7.269,0-7.725,0c0-0.414,0-3.747,0-4.16
		c0.454,0,6.591,0,6.591,0v-2.628c0,0-6.137,0-6.591,0c0-0.413,0-3.62,0-4.031c0.456,0,7.725,0,7.725,0v-2.76H91.05z"/>
	<path fill="#FFFFFF" d="M75.22,40.831h-2.717c0,0-3.072,10.28-3.449,11.535c-0.374-1.254-3.445-11.535-3.445-11.535h-3.057
		l5.394,16.339h2.221l5.395-16.339H75.22z"/>
	<path fill="#FFFFFF" d="M53.024,40.831h-2.649v16.339h10.617v-2.76c0,0-7.265,0-7.725,0c0-0.469,0-13.579,0-13.579H53.024z"/>
	<path fill="#FFFFFF" d="M43.272,40.831h-2.649v16.339h2.894V40.831H43.272z"/>
	<path fill="#FFFFFF" d="M23.306,45.572c0,2.52,1.693,4.32,4.419,4.694l0.901,0.125l1.195,0.162c1.195,0.15,1.854,0.824,1.854,1.898
		c0,1.208-1.107,1.958-2.892,1.958c-1.542,0-3.125-0.556-4.345-1.527l-0.182-0.145l-1.896,2.161l0.183,0.16
		c1.689,1.487,3.781,2.243,6.216,2.243c3.583,0,5.81-1.858,5.81-4.85c0-1.965-1.194-4.401-4.556-4.806l-1.772-0.248
		c-1.279-0.193-2.041-0.859-2.041-1.781c0-1.494,1.243-2.026,2.404-2.026c1.251,0,2.56,0.41,3.789,1.185l0.199,0.128l1.608-2.382
		l-0.207-0.135c-1.691-1.12-3.467-1.687-5.275-1.687C25.429,40.7,23.306,42.612,23.306,45.572z"/>
	<path fill="#FFFFFF" d="M18.736,66.241c0,2.517,1.693,4.313,4.419,4.687l0.851,0.122l1.241,0.172
		c1.199,0.149,1.857,0.82,1.857,1.895c0,1.207-1.109,1.96-2.895,1.96c-1.546,0-3.129-0.56-4.342-1.528l-0.183-0.146l-1.894,2.168
		l0.181,0.158c1.691,1.487,3.783,2.244,6.218,2.244c3.583,0,5.808-1.861,5.808-4.855c0-1.965-1.192-4.401-4.555-4.805l-1.772-0.245
		c-1.278-0.195-2.041-0.859-2.041-1.783c0-1.496,1.239-2.028,2.402-2.028c1.254,0,2.564,0.409,3.789,1.188l0.199,0.127l1.609-2.384
		l-0.206-0.135c-1.695-1.122-3.471-1.689-5.277-1.689C20.857,61.362,18.736,63.277,18.736,66.241z"/>
	<path fill="#FFFFFF" d="M36.241,64.339c-0.535,0.979-0.719,1.509-0.719,5.328c0,3.825,0.171,4.322,0.719,5.329
		c0.791,1.435,2.565,2.976,5.177,2.976c2.964,0,5.188-1.825,5.807-4.761l0.062-0.296h-2.996l-0.065,0.14
		c-0.628,1.339-1.573,2.021-2.808,2.021c-1.236,0-1.943-0.666-2.254-1.065c-0.57-0.728-0.751-1.112-0.751-4.344
		c0-3.229,0.181-3.618,0.751-4.347c0.309-0.399,1.018-1.065,2.254-1.065c1.478,0,2.467,1.066,2.795,2.121l0.054,0.172h3.013
		l-0.055-0.29c-0.555-2.928-2.889-4.896-5.807-4.896C38.807,61.362,37.032,62.901,36.241,64.339z"/>
	<path fill="#FFFFFF" d="M60.937,70.654c1.838-0.757,2.989-2.434,2.989-4.485c0-1.365-0.607-2.666-1.667-3.57
		c-0.868-0.753-1.945-1.102-3.385-1.102h-6.191H52.44v16.338h2.891c0,0,0-6.315,0-6.771c0.395,0,2.423,0,2.673,0
		c0.131,0.269,3.277,6.771,3.277,6.771h3.402C64.683,77.835,61.145,71.057,60.937,70.654z M58.714,68.44c0,0-2.958,0-3.383,0
		c0-0.415,0-3.904,0-4.322c0.428,0,3.518,0,3.518,0c0.734,0,1.188,0.124,1.616,0.443c0.453,0.332,0.702,0.901,0.702,1.607
		C61.167,67.22,60.523,68.44,58.714,68.44z"/>
	<path fill="#FFFFFF" d="M80.397,61.497h-10.37v16.338h10.616v-2.759c0,0-7.268,0-7.726,0c0-0.414,0-3.751,0-4.164
		c0.454,0,6.59,0,6.59,0v-2.626c0,0-6.136,0-6.59,0c0-0.411,0-3.618,0-4.031c0.458,0,7.726,0,7.726,0v-2.758H80.397z"/>
	<path fill="#FFFFFF" d="M96.784,61.497H86.408v16.338h10.618v-2.759c0,0-7.266,0-7.723,0c0-0.414,0-3.751,0-4.164
		c0.453,0,6.588,0,6.588,0v-2.626c0,0-6.135,0-6.588,0c0-0.411,0-3.618,0-4.031c0.457,0,7.723,0,7.723,0v-2.758H96.784z"/>
	<path fill="#FFFFFF" d="M114.928,61.497h-2.652c0,0,0,9.399,0,10.736c-0.721-1.136-6.83-10.736-6.83-10.736h-2.652v16.338h2.892
		c0,0,0-9.409,0-10.74c0.721,1.128,6.838,10.74,6.838,10.74h2.647V61.497H114.928z"/>
	<g>
		<path fill="#FFFFFF" d="M32.36,83.631c-0.274,0.5-0.37,0.768-0.37,2.714c0,1.952,0.09,2.206,0.37,2.72
			c0.403,0.738,1.31,1.521,2.644,1.521c1.512,0,2.647-0.929,2.966-2.43l0.033-0.161h-1.541l-0.036,0.076
			c-0.319,0.679-0.797,1.023-1.422,1.023c-0.623,0-0.982-0.338-1.141-0.537c-0.286-0.376-0.377-0.57-0.377-2.212
			c0-1.639,0.092-1.832,0.377-2.201c0.159-0.201,0.516-0.54,1.141-0.54c0.748,0,1.25,0.542,1.412,1.077l0.033,0.093h1.552
			l-0.031-0.158c-0.283-1.498-1.477-2.509-2.966-2.509C33.67,82.106,32.763,82.894,32.36,83.631z"/>
		<path fill="#FFFFFF" d="M42.867,82.179h-1.355v8.336h5.425v-1.421c0,0-3.682,0-3.934,0c0-0.26,0-6.915,0-6.915H42.867z"/>
		<path fill="#FFFFFF" d="M54.105,82.179h-0.094h-1.116l-3.031,8.336h1.579c0,0,0.567-1.637,0.623-1.801c0.174,0,2.694,0,2.869,0
			c0.056,0.164,0.624,1.801,0.624,1.801h1.579L54.105,82.179z M52.509,87.355c0.094-0.285,0.813-2.457,0.991-2.992
			c0.178,0.535,0.901,2.707,0.992,2.992C54.205,87.355,52.801,87.355,52.509,87.355z"/>
		<path fill="#FFFFFF" d="M60.345,84.602c0,1.288,0.868,2.21,2.26,2.4l1.07,0.146c0.611,0.076,0.933,0.406,0.933,0.954
			c0,0.61-0.559,0.991-1.463,0.991c-0.778,0-1.583-0.283-2.205-0.778l-0.099-0.078l-0.98,1.115l0.101,0.086
			c0.864,0.762,1.931,1.146,3.172,1.146c1.83,0,2.966-0.947,2.966-2.482c0-1.005-0.608-2.248-2.326-2.453l-0.898-0.127
			c-0.649-0.098-1.034-0.432-1.034-0.897c0-0.751,0.627-1.021,1.214-1.021c0.636,0,1.303,0.207,1.923,0.603l0.111,0.066l0.827-1.229
			l-0.111-0.073c-0.873-0.573-1.777-0.863-2.694-0.863C61.433,82.106,60.345,83.086,60.345,84.602z"/>
		<path fill="#FFFFFF" d="M69.798,84.602c0,1.288,0.863,2.21,2.256,2.4l1.068,0.146c0.614,0.076,0.938,0.406,0.938,0.954
			c0,0.61-0.561,0.991-1.462,0.991c-0.78,0-1.586-0.283-2.208-0.778l-0.099-0.078l-0.977,1.115l0.101,0.086
			c0.859,0.762,1.926,1.146,3.171,1.146c1.828,0,2.968-0.947,2.968-2.482c0-1.005-0.611-2.248-2.329-2.453l-0.901-0.127
			c-0.647-0.098-1.034-0.432-1.034-0.897c0-0.751,0.63-1.021,1.215-1.021c0.635,0,1.302,0.207,1.924,0.603l0.109,0.066l0.83-1.229
			l-0.114-0.073c-0.87-0.573-1.772-0.863-2.69-0.863C70.884,82.106,69.798,83.086,69.798,84.602z"/>
		<path fill="#FFFFFF" d="M80.881,82.179H79.52v8.336h1.496v-8.336H80.881z"/>
		<path fill="#FFFFFF" d="M85.487,83.631c-0.271,0.502-0.366,0.774-0.366,2.714c0,1.943,0.095,2.216,0.366,2.72
			c0.403,0.738,1.312,1.521,2.645,1.521c1.512,0,2.65-0.929,2.966-2.43l0.033-0.161h-1.543l-0.035,0.076
			c-0.321,0.679-0.799,1.023-1.421,1.023c-0.621,0-0.982-0.338-1.142-0.539c-0.286-0.372-0.378-0.566-0.378-2.21
			c0-1.64,0.092-1.832,0.379-2.201c0.158-0.201,0.518-0.54,1.141-0.54c0.748,0,1.249,0.542,1.413,1.077l0.031,0.093h1.555
			l-0.033-0.158c-0.286-1.498-1.478-2.509-2.966-2.509C86.8,82.106,85.891,82.894,85.487,83.631z"/>
		<path fill="#FFFFFF" d="M94.367,84.602c0,1.288,0.869,2.21,2.262,2.4l1.066,0.146c0.608,0.076,0.933,0.406,0.933,0.954
			c0,0.61-0.563,0.991-1.464,0.991c-0.783,0-1.58-0.283-2.203-0.778l-0.099-0.078l-0.982,1.115l0.101,0.086
			c0.865,0.762,1.932,1.146,3.174,1.146c1.831,0,2.967-0.947,2.967-2.482c0-1.005-0.606-2.248-2.328-2.453l-0.9-0.127
			c-0.649-0.098-1.034-0.432-1.034-0.897c0-0.751,0.628-1.021,1.215-1.021c0.638,0,1.305,0.205,1.924,0.603l0.11,0.066l0.829-1.229
			l-0.113-0.073c-0.869-0.573-1.777-0.863-2.693-0.863C95.453,82.106,94.367,83.086,94.367,84.602z"/>
	</g>
</g>
</svg>
