<?xml version="1.0" encoding="utf-8"?>
<!-- Generator: Adobe Illustrator 19.2.1, SVG Export Plug-In . SVG Version: 6.00 Build 0)  -->
<svg version="1.1" id="Layer_1" xmlns="http://www.w3.org/2000/svg" xmlns:xlink="http://www.w3.org/1999/xlink" x="0px" y="0px"
	 viewBox="0 0 515.7 244.7" style="enable-background:new 0 0 515.7 244.7;" xml:space="preserve">
<style type="text/css">
	.st0{display:none;}
	.st1{display:inline;}
	.st2{fill:#0A90AF;}
	.st3{fill:#076878;}
	.st4{fill:#033849;}
	.st5{fill:#082228;}
</style>
<g id="Layer_3">
</g>
<g id="Layer_1_1_">
</g>
<g id="Layer_2">
	<g>
		<polygon points="487.7,224.6 476.5,235.3 476.7,4.8 487.7,12.2 		"/>
		<polygon points="503.4,209.3 495.3,216.4 495.3,16.2 503.4,21.5 		"/>
		<polygon points="515.7,198.9 510.5,203.1 510.5,24.9 515.7,27.7 		"/>
		<g>
			<g>
				<path d="M82.5,0C29.8,0,0,44.8,0,86.6c0,16.1,0,158,0,158h466.5V0C466.5,0,157,0,82.5,0z M451.9,75.9v62.7v92.6h-428
					c0,0,0-117.6,0-147c0-34.6,18.5-70.9,60-70.9l368-0.1V75.9z"/>
			</g>
		</g>
		<g>
			<g>
				<path d="M215.5,24.6c0,0,0.1,48.4,0.1,62.5c0,11.1-10.1,20.5-23.7,20.6c-14.2,0-23.6-9.6-23.6-20.8c0-15.8-0.1-62.3-0.1-62.3
					h-17.6c0,0,0.1,39.4,0.1,61.6c0,21.4,15.1,37.4,41.3,37.4c23.3-0.1,40.8-16.6,40.8-37.5c0-11-0.1-61.5-0.1-61.5
					S215.5,24.6,215.5,24.6z M88.4,24.7c-27.5,0.2-49.6,22.6-49.5,50.1c0.2,27.5,22.6,49.6,50.1,49.5c27.5-0.2,49.6-22.6,49.5-50.1
					C138.3,46.7,115.9,24.5,88.4,24.7 M88.9,107.2c-18.1,0.1-32.8-14.5-33-32.5c-0.1-18.1,14.5-32.8,32.5-33
					c18.1-0.1,32.8,14.5,33,32.6C121.6,92.4,107,107.1,88.9,107.2 M433,42.6v-18h-91.7v18h37.5v81.5h18V42.6H433z M331.4,67.2
					c0-12.2-2.9-42.6-38.2-42.6c-15.4,0-26.3,0-26.3,0v18c0,0,16.8,0,27.3,0c9.4,0,17.7,7.4,20.2,17.7h-1.6l-38.3,0.1
					c-17.6,0-29.3,12.9-29.3,32c0,17.8,12.9,31.3,29.4,31.3h56.7C331.4,123.6,331.4,79.4,331.4,67.2z M273.9,106.8
					c-6.9,0-12.3-6.4-12.3-14.5c0-8.2,5.3-14.4,12.4-14.4l40.4-0.1v28.9L273.9,106.8z"/>
			</g>
		</g>
		<path d="M398.7,135.1c-1.5,0-20.8,0-22.2,0c-0.5,1.7-30.4,83.2-31,85c1.5,0,22.2,0,23.2,0c0.4-1.1,4.7-13.3,5-14.5
			c1,0,26.5,0,27.9,0c0.5,1.4,4.5,12.7,5.2,14.5c1.7,0,21.3,0,23.5,0c-0.8-2-31.1-83.8-31.6-85.2 M381.1,184.6
			c0.4-1.1,5.8-16.6,6.3-18.1c0.5,1.4,6.2,17.1,6.5,18.1H381.1z M82.9,158.7l-40.5-23.6v85h21v-47.3L82.9,185l19-12v47.2h21.5v-85
			C123.4,135.1,87,155.9,82.9,158.7 M250.5,135.1c-11,0-28.1,0-28.1,0v85c0,0,12.2,0,35.2,0s43.5-17.8,43.6-43
			c0.1-14.8-7.4-28.2-18.4-35.4C271.6,134.5,261.5,135.1,250.5,135.1 M243.7,198.1v-43c0,0,9.6,0,13.5,0
			c12.6,0.1,22.3,9.1,22.2,21.9c-0.1,12.1-10.7,21.2-22.1,21.1H243.7z M314.6,135.1v85h21.6v-85
			C336.2,135.1,317.4,135.1,314.6,135.1 M161.9,187.1h35.5v-21h-35.5v-11h46v-20h-67v85h67v-22h-46V187.1z"/>
	</g>
</g>
<g id="Layer_4" class="st0">
	<g class="st1">
		<path class="st2" d="M89.4,197.4c-14,0.1-25.3-11.2-25.4-25.1c-0.1-14,11.2-25.3,25.1-25.4c14-0.1,25.3,11.2,25.4,25.1
			C114.6,186,103.3,197.3,89.4,197.4"/>
	</g>
	<g class="st1">
		<path class="st3" d="M89.3,188.1c-8.8,0.1-16-7-16-15.8c-0.1-8.8,7-16,15.8-16c8.8-0.1,16,7,16,15.8
			C105.2,180.9,98.1,188,89.3,188.1"/>
	</g>
	<g class="st1">
		<path class="st4" d="M89.3,181.5c-5.2,0-9.4-4.1-9.4-9.3s4.1-9.4,9.3-9.4c5.2,0,9.4,4.1,9.4,9.3C98.6,177.3,94.5,181.5,89.3,181.5
			"/>
	</g>
	<g class="st1">
		<path class="st5" d="M89.3,177c-2.7,0-4.9-2.2-4.9-4.8c0-2.7,2.2-4.9,4.8-4.9c2.7,0,4.9,2.2,4.9,4.8C94.1,174.8,92,177,89.3,177"
			/>
	</g>
</g>
<g id="Layer_5">
</g>
</svg>
